{"glyphs":{"0":{"ha":257,"x_min":17,"x_max":239,"o":"m 239 776 l 239 776 l 239 144 q 129 -4 239 -4 l 129 -4 q 17 147 17 -4 l 17 147 l 17 775 q 129 926 17 926 l 129 926 q 239 776 239 926 z m 163 144 l 163 144 l 163 778 q 128 856 163 856 q 93 778 93 856 l 93 778 l 93 144 q 128 67 93 67 q 163 144 163 67 z "},"1":{"ha":149,"x_min":11,"x_max":132,"o":"m 132 922 l 132 0 l 57 0 l 57 817 l 11 817 l 11 878 q 51 889 39 878 q 67 922 64 900 l 67 922 l 132 922 z "},"2":{"ha":247,"x_min":17,"x_max":233,"o":"m 233 68 l 233 0 l 17 0 l 17 279 q 51 389 17 344 l 51 389 q 100 438 67 407 q 143 482 133 469 l 143 482 q 160 540 160 504 l 160 540 l 160 814 q 126 854 160 854 l 126 854 q 92 811 92 854 l 92 811 l 92 638 l 18 638 l 18 804 q 39 899 18 871 q 126 926 60 926 l 126 926 q 211 901 189 926 q 233 817 233 876 l 233 817 l 233 538 q 204 447 233 482 l 204 447 q 160 402 192 432 q 117 358 128 372 l 117 358 q 94 296 94 332 l 94 296 l 94 68 l 233 68 z "},"3":{"ha":247,"x_min":17,"x_max":235,"o":"m 235 410 l 235 410 l 235 114 q 125 -4 235 -4 l 125 -4 q 17 113 17 -4 l 17 113 l 17 268 l 89 268 l 89 108 q 124 67 89 67 q 158 108 158 67 l 158 108 l 158 417 q 119 456 158 456 l 119 456 l 89 456 l 89 521 l 121 521 q 157 558 157 521 l 157 558 l 157 815 q 124 854 157 854 l 124 854 q 89 815 89 854 l 89 815 l 89 661 l 17 661 l 17 807 q 44 895 17 864 q 124 926 72 926 q 201 896 175 926 q 228 824 228 865 l 228 824 l 228 565 q 181 493 228 501 l 181 493 l 181 488 q 235 410 235 478 z "},"4":{"ha":253,"x_min":11,"x_max":242,"o":"m 65 308 l 135 308 l 135 693 l 129 693 l 65 308 z m 208 244 l 208 0 l 133 0 l 133 244 l 11 244 l 11 307 l 115 922 l 208 922 l 208 308 l 242 308 l 242 244 l 208 244 z "},"5":{"ha":251,"x_min":17,"x_max":235,"o":"m 235 474 l 235 474 l 235 114 q 125 -4 235 -4 l 125 -4 q 17 111 17 -4 l 17 111 l 17 238 l 89 238 l 89 108 q 124 67 89 67 q 158 108 158 67 l 158 108 l 158 467 q 126 504 158 504 l 126 504 q 93 478 104 504 l 93 478 l 17 478 l 26 922 l 221 922 l 221 854 l 93 854 l 86 536 l 92 536 q 153 569 113 569 l 153 569 q 235 474 235 569 z "},"6":{"ha":251,"x_min":17,"x_max":235,"o":"m 235 483 l 235 483 l 235 113 q 126 -4 235 -4 l 126 -4 q 17 114 17 -4 l 17 114 l 17 806 q 128 926 17 926 l 128 926 q 235 818 235 926 l 235 818 l 235 690 l 161 690 l 161 814 q 128 854 161 854 l 128 854 q 93 813 93 854 l 93 813 l 93 529 l 99 529 q 161 567 121 567 l 161 567 q 215 544 194 567 q 235 483 235 522 z m 161 108 l 161 108 l 161 465 q 131 503 161 503 l 131 503 q 93 469 101 503 l 93 469 l 93 108 q 128 67 93 67 l 128 67 q 161 108 161 67 z "},"7":{"ha":208,"x_min":11,"x_max":197,"o":"m 118 0 l 118 0 l 42 0 q 69 445 44 196 q 131 851 94 694 l 131 851 l 11 851 l 11 922 l 197 922 l 197 858 q 139 454 160 700 q 118 0 118 208 z "},"8":{"ha":247,"x_min":11,"x_max":235,"o":"m 156 554 l 156 554 l 156 815 q 124 854 156 854 l 124 854 q 90 815 90 854 l 90 815 l 90 554 q 124 515 90 515 l 124 515 q 156 554 156 515 z m 158 108 l 158 108 l 158 414 q 124 450 158 450 q 89 414 89 450 l 89 414 l 89 108 q 124 67 89 67 q 158 108 158 67 z m 235 406 l 235 406 l 235 114 q 124 -4 235 -4 l 124 -4 q 11 114 11 -4 l 11 114 l 11 406 q 65 483 11 474 l 65 483 l 65 489 q 18 561 18 499 l 18 561 l 18 824 q 45 897 18 867 q 124 926 72 926 q 201 897 175 926 q 228 824 228 867 l 228 824 l 228 561 q 181 489 228 499 l 181 489 l 181 483 q 235 406 235 474 z "},"9":{"ha":251,"x_min":17,"x_max":235,"o":"m 158 110 l 158 110 l 158 424 l 153 424 q 90 385 131 385 l 90 385 q 36 407 56 385 q 17 468 17 429 l 17 468 l 17 808 q 125 926 17 926 l 125 926 q 235 807 235 926 l 235 807 l 235 117 q 124 -4 235 -4 l 124 -4 q 18 103 18 -4 l 18 103 l 18 246 l 90 246 l 90 107 q 124 68 90 68 l 124 68 q 158 110 158 68 z m 158 482 l 158 482 l 158 814 q 124 856 158 856 q 89 814 89 856 l 89 814 l 89 486 q 121 450 89 450 l 121 450 q 158 482 149 450 z "},"\u0000":{"ha":0,"x_min":null,"x_max":null,"o":""},"\u0017":{"ha":83,"x_min":null,"x_max":null,"o":""}," ":{"ha":83,"x_min":null,"x_max":null,"o":""},"!":{"ha":126,"x_min":22,"x_max":103,"o":"m 100 114 l 100 0 l 24 0 l 24 114 l 100 114 z m 89 218 l 89 218 l 36 218 q 22 411 22 340 l 22 411 l 22 922 l 103 922 l 103 436 q 89 218 103 315 z "},"\"":{"ha":182,"x_min":17,"x_max":164,"o":"m 75 933 l 75 664 l 17 664 l 17 933 l 75 933 z m 164 933 l 164 664 l 106 664 l 106 933 l 164 933 z "},"#":{"ha":274,"x_min":18,"x_max":256,"o":"m 108 304 l 94 0 l 40 0 l 54 304 l 18 304 l 22 356 l 56 356 l 67 578 l 29 578 l 33 629 l 69 629 l 83 922 l 136 922 l 122 629 l 165 629 l 179 922 l 232 922 l 218 629 l 256 629 l 250 578 l 215 578 l 204 356 l 244 356 l 239 304 l 203 304 l 189 0 l 136 0 l 150 304 l 108 304 z m 163 578 l 121 578 l 110 356 l 151 356 l 163 578 z "},"$":{"ha":267,"x_min":17,"x_max":249,"o":"m 161 10 l 161 -83 l 103 -83 l 103 10 q 17 128 17 22 l 17 128 l 17 276 l 89 276 l 89 118 q 128 76 89 76 q 167 117 167 76 l 167 117 l 167 344 q 149 399 167 381 l 149 399 q 106 431 136 411 q 60 465 75 450 l 60 465 q 18 561 18 507 l 18 561 l 18 797 q 36 878 18 849 q 103 913 54 908 l 103 913 l 103 1014 l 161 1014 l 161 910 q 240 789 240 894 l 240 789 l 240 650 l 168 650 l 168 804 q 132 844 168 844 q 96 810 96 844 l 96 810 l 96 590 q 100 544 96 556 q 119 519 104 533 l 119 519 q 169 484 136 506 q 215 450 203 463 l 215 450 q 249 358 249 414 l 249 358 l 249 129 q 161 10 249 24 l 161 10 z "},"%":{"ha":276,"x_min":7,"x_max":269,"o":"m 244 940 l 76 -15 l 31 -15 l 197 940 l 244 940 z m 119 850 l 119 850 l 119 585 q 64 510 119 510 l 64 510 q 7 586 7 510 l 7 586 l 7 850 q 64 924 7 924 l 64 924 q 119 850 119 924 z m 78 585 l 78 585 l 78 850 q 64 886 78 886 l 64 886 q 49 850 49 886 l 49 850 l 49 585 q 64 549 49 549 l 64 549 q 78 585 78 549 z m 269 338 l 269 338 l 269 72 q 214 -3 269 -3 l 214 -3 q 157 74 157 -3 l 157 74 l 157 338 q 214 411 157 411 l 214 411 q 269 338 269 411 z m 228 72 l 228 72 l 228 338 q 214 374 228 374 l 214 374 q 199 338 199 374 l 199 338 l 199 72 q 214 36 199 36 l 214 36 q 228 72 228 36 z "},"&":{"ha":250,"x_min":17,"x_max":235,"o":"m 17 114 l 17 114 l 17 411 q 71 489 17 479 l 71 489 l 71 494 q 22 567 22 503 l 22 567 l 22 818 q 49 892 22 861 q 128 922 76 922 l 128 922 l 156 922 l 156 850 l 129 850 q 96 811 96 850 l 96 811 l 96 560 q 103 528 96 536 q 131 521 110 521 l 131 521 l 146 521 l 146 456 l 128 456 q 94 417 94 456 l 94 417 l 94 108 q 132 67 94 67 l 132 67 q 168 108 168 67 l 168 108 l 168 521 l 235 521 l 235 113 q 128 -4 235 -4 l 128 -4 q 17 114 17 -4 z "},"'":{"ha":92,"x_min":17,"x_max":75,"o":"m 75 933 l 75 664 l 17 664 l 17 933 l 75 933 z "},"(":{"ha":157,"x_min":29,"x_max":147,"o":"m 147 -199 l 147 -199 l 94 -199 q 29 414 29 60 l 29 414 q 94 1011 29 763 l 94 1011 l 147 1011 q 96 413 96 744 l 96 413 q 147 -199 96 83 z "},")":{"ha":157,"x_min":11,"x_max":128,"o":"m 64 -199 l 64 -199 l 11 -199 q 63 414 63 97 l 63 414 q 11 1011 63 735 l 11 1011 l 64 1011 q 128 415 128 763 l 128 415 q 64 -199 128 54 z "},"*":{"ha":228,"x_min":8,"x_max":219,"o":"m 147 815 l 193 750 l 160 726 l 113 788 l 68 726 l 33 750 l 79 815 l 8 838 l 19 876 l 90 853 l 90 933 l 135 933 l 135 853 l 206 876 l 219 838 l 147 815 z "},"+":{"ha":238,"x_min":17,"x_max":221,"o":"m 147 436 l 147 363 l 89 363 l 89 436 l 17 436 l 17 493 l 89 493 l 89 567 l 147 567 l 147 493 l 221 493 l 221 436 l 147 436 z "},",":{"ha":110,"x_min":17,"x_max":92,"o":"m 17 -175 l 17 -175 l 17 -132 q 50 -69 50 -112 l 50 -69 l 50 0 l 17 0 l 17 114 l 92 114 l 92 -60 q 17 -175 92 -158 z "},"-":{"ha":119,"x_min":13,"x_max":106,"o":"m 106 456 l 106 390 l 13 390 l 13 456 l 106 456 z "},"­":{"ha":119,"x_min":13,"x_max":106,"o":"m 106 456 l 106 390 l 13 390 l 13 456 l 106 456 z "},".":{"ha":110,"x_min":17,"x_max":92,"o":"m 92 114 l 92 0 l 17 0 l 17 114 l 92 114 z "},"/":{"ha":147,"x_min":0,"x_max":147,"o":"m 147 922 l 60 0 l 0 0 l 86 922 l 147 922 z "},"З":{"ha":247,"x_min":17,"x_max":235,"o":"m 235 410 l 235 410 l 235 114 q 125 -4 235 -4 l 125 -4 q 17 113 17 -4 l 17 113 l 17 268 l 89 268 l 89 108 q 124 67 89 67 q 158 108 158 67 l 158 108 l 158 417 q 119 456 158 456 l 119 456 l 89 456 l 89 521 l 121 521 q 157 558 157 521 l 157 558 l 157 815 q 124 854 157 854 l 124 854 q 89 815 89 854 l 89 815 l 89 661 l 17 661 l 17 807 q 44 895 17 864 q 124 926 72 926 q 201 896 175 926 q 228 824 228 865 l 228 824 l 228 565 q 181 493 228 501 l 181 493 l 181 488 q 235 410 235 478 z "},":":{"ha":110,"x_min":17,"x_max":92,"o":"m 92 181 l 92 67 l 17 67 l 17 181 l 92 181 z m 92 608 l 92 493 l 17 493 l 17 608 l 92 608 z "},";":{"ha":110,"x_min":17,"x_max":92,"o":"m 92 608 l 92 493 l 17 493 l 17 608 l 92 608 z m 17 -108 l 17 -108 l 17 -65 q 50 -3 50 -46 l 50 -3 l 50 67 l 17 67 l 17 181 l 92 181 l 92 7 q 17 -108 92 -92 z "},"<":{"ha":238,"x_min":17,"x_max":221,"o":"m 221 399 l 221 335 l 17 431 l 17 492 l 221 589 l 221 522 l 82 464 l 82 458 l 221 399 z "},"=":{"ha":238,"x_min":17,"x_max":221,"o":"m 221 572 l 221 514 l 17 514 l 17 572 l 221 572 z m 221 408 l 221 351 l 17 351 l 17 408 l 221 408 z "},">":{"ha":238,"x_min":17,"x_max":221,"o":"m 221 492 l 221 431 l 17 335 l 17 399 l 156 458 l 156 464 l 17 522 l 17 589 l 221 492 z "},"?":{"ha":240,"x_min":11,"x_max":225,"o":"m 157 103 l 157 0 l 82 0 l 82 103 l 157 103 z m 156 318 l 156 207 l 83 207 l 83 331 q 96 444 83 417 l 96 444 q 118 487 99 451 q 142 529 138 522 l 142 529 q 151 611 151 553 l 151 611 l 151 811 q 144 844 151 835 q 118 854 136 854 l 118 854 q 92 844 99 854 q 85 811 85 835 l 85 811 l 85 654 l 11 654 l 11 779 q 32 892 11 858 q 121 926 53 926 l 121 926 q 204 896 183 926 q 225 789 225 865 l 225 789 l 225 611 q 214 508 225 535 l 214 508 q 192 468 211 504 q 168 419 174 432 l 168 419 q 156 318 156 390 l 156 318 z "},"@":{"ha":326,"x_min":17,"x_max":308,"o":"m 257 -51 l 257 -51 l 271 -97 q 168 -117 236 -117 l 168 -117 q 96 -106 125 -117 q 51 -81 67 -96 q 27 -35 35 -67 q 18 22 19 -4 q 17 97 17 49 l 17 97 l 17 650 q 18 726 17 699 q 28 784 19 753 q 51 831 36 815 q 95 856 67 846 q 165 867 124 867 l 165 867 q 284 821 260 867 q 308 656 308 775 l 308 656 l 308 214 q 242 132 308 132 l 242 132 q 197 154 211 132 l 197 154 l 192 154 q 151 132 176 132 l 151 132 q 100 210 100 132 l 100 210 l 100 563 q 149 632 100 632 l 149 632 q 188 611 175 632 l 188 611 l 192 611 l 194 628 l 228 628 l 228 192 q 243 174 228 174 l 243 174 q 261 204 261 174 l 261 204 l 261 654 q 242 789 261 758 q 164 819 222 819 l 164 819 q 83 788 101 819 q 65 650 65 757 l 65 650 l 65 99 q 87 -34 65 -3 q 169 -65 108 -65 l 169 -65 q 257 -51 219 -65 z m 146 567 l 146 567 l 146 217 q 165 178 146 178 l 165 178 q 188 218 188 178 l 188 218 l 188 563 q 165 590 188 590 l 165 590 q 146 567 146 590 z "},"A":{"ha":258,"x_min":6,"x_max":251,"o":"m 189 922 l 251 0 l 175 0 l 161 238 l 93 238 l 81 0 l 6 0 l 67 922 l 189 922 z m 131 789 l 125 789 l 97 304 l 157 304 l 131 789 z "},"Α":{"ha":258,"x_min":6,"x_max":251,"o":"m 189 922 l 251 0 l 175 0 l 161 238 l 93 238 l 81 0 l 6 0 l 67 922 l 189 922 z m 131 789 l 125 789 l 97 304 l 157 304 l 131 789 z "},"А":{"ha":258,"x_min":6,"x_max":251,"o":"m 189 922 l 251 0 l 175 0 l 161 238 l 93 238 l 81 0 l 6 0 l 67 922 l 189 922 z m 131 789 l 125 789 l 97 304 l 157 304 l 131 789 z "},"B":{"ha":253,"x_min":17,"x_max":240,"o":"m 154 0 l 154 0 l 17 0 l 17 922 l 144 922 q 233 826 233 922 l 233 826 l 233 563 q 188 489 233 499 l 188 489 l 188 483 q 240 407 240 474 l 240 407 l 240 81 q 154 0 240 0 z m 163 106 l 163 106 l 163 413 q 128 450 163 450 l 128 450 l 93 450 l 93 67 l 128 67 q 163 106 163 67 z m 161 554 l 161 554 l 161 810 q 129 856 161 856 l 129 856 l 93 856 l 93 515 l 129 515 q 161 554 161 515 z "},"Β":{"ha":253,"x_min":17,"x_max":240,"o":"m 154 0 l 154 0 l 17 0 l 17 922 l 144 922 q 233 826 233 922 l 233 826 l 233 563 q 188 489 233 499 l 188 489 l 188 483 q 240 407 240 474 l 240 407 l 240 81 q 154 0 240 0 z m 163 106 l 163 106 l 163 413 q 128 450 163 450 l 128 450 l 93 450 l 93 67 l 128 67 q 163 106 163 67 z m 161 554 l 161 554 l 161 810 q 129 856 161 856 l 129 856 l 93 856 l 93 515 l 129 515 q 161 554 161 515 z "},"В":{"ha":253,"x_min":17,"x_max":240,"o":"m 154 0 l 154 0 l 17 0 l 17 922 l 144 922 q 233 826 233 922 l 233 826 l 233 563 q 188 489 233 499 l 188 489 l 188 483 q 240 407 240 474 l 240 407 l 240 81 q 154 0 240 0 z m 163 106 l 163 106 l 163 413 q 128 450 163 450 l 128 450 l 93 450 l 93 67 l 128 67 q 163 106 163 67 z m 161 554 l 161 554 l 161 810 q 129 856 161 856 l 129 856 l 93 856 l 93 515 l 129 515 q 161 554 161 515 z "},"C":{"ha":251,"x_min":17,"x_max":235,"o":"m 161 108 l 161 108 l 161 376 l 235 376 l 235 113 q 128 -4 235 -4 l 128 -4 q 17 114 17 -4 l 17 114 l 17 806 q 129 926 17 926 l 129 926 q 235 804 235 926 l 235 804 l 235 592 l 161 592 l 161 811 q 128 854 161 854 l 128 854 q 93 813 93 854 l 93 813 l 93 110 q 126 67 93 67 l 126 67 q 161 108 161 67 z "},"С":{"ha":251,"x_min":17,"x_max":235,"o":"m 161 108 l 161 108 l 161 376 l 235 376 l 235 113 q 128 -4 235 -4 l 128 -4 q 17 114 17 -4 l 17 114 l 17 806 q 129 926 17 926 l 129 926 q 235 804 235 926 l 235 804 l 235 592 l 161 592 l 161 811 q 128 854 161 854 l 128 854 q 93 813 93 854 l 93 813 l 93 110 q 126 67 93 67 l 126 67 q 161 108 161 67 z "},"D":{"ha":257,"x_min":17,"x_max":239,"o":"m 132 0 l 132 0 l 17 0 l 17 922 l 132 922 q 239 814 239 922 l 239 814 l 239 114 q 132 0 239 0 z m 93 851 l 93 69 l 128 69 q 161 118 161 69 l 161 118 l 161 808 q 122 851 161 851 l 122 851 l 93 851 z "},"E":{"ha":201,"x_min":17,"x_max":192,"o":"m 192 69 l 192 0 l 17 0 l 17 922 l 186 922 l 186 851 l 93 851 l 93 518 l 176 518 l 176 449 l 93 449 l 93 69 l 192 69 z "},"Ε":{"ha":201,"x_min":17,"x_max":192,"o":"m 192 69 l 192 0 l 17 0 l 17 922 l 186 922 l 186 851 l 93 851 l 93 518 l 176 518 l 176 449 l 93 449 l 93 69 l 192 69 z "},"Е":{"ha":201,"x_min":17,"x_max":192,"o":"m 192 69 l 192 0 l 17 0 l 17 922 l 186 922 l 186 851 l 93 851 l 93 518 l 176 518 l 176 449 l 93 449 l 93 69 l 192 69 z "},"F":{"ha":201,"x_min":17,"x_max":190,"o":"m 94 438 l 94 0 l 17 0 l 17 922 l 190 922 l 190 851 l 94 851 l 94 507 l 175 507 l 175 438 l 94 438 z "},"G":{"ha":251,"x_min":17,"x_max":235,"o":"m 235 464 l 235 0 l 185 0 l 182 29 l 176 29 q 114 -4 158 -4 l 114 -4 q 42 27 68 -4 q 17 114 17 58 l 17 114 l 17 806 q 44 895 17 864 q 125 926 72 926 l 125 926 q 207 894 179 926 q 235 804 235 863 l 235 804 l 235 638 l 161 638 l 161 811 q 126 854 161 854 l 126 854 q 93 813 93 854 l 93 813 l 93 108 q 126 67 93 67 l 126 67 q 161 104 157 67 l 161 104 l 161 394 l 122 394 l 122 464 l 235 464 z "},"H":{"ha":260,"x_min":17,"x_max":242,"o":"m 242 922 l 242 0 l 164 0 l 164 457 l 94 457 l 94 0 l 17 0 l 17 922 l 94 922 l 94 525 l 164 525 l 164 922 l 242 922 z "},"Η":{"ha":260,"x_min":17,"x_max":242,"o":"m 242 922 l 242 0 l 164 0 l 164 457 l 94 457 l 94 0 l 17 0 l 17 922 l 94 922 l 94 525 l 164 525 l 164 922 l 242 922 z "},"Н":{"ha":260,"x_min":17,"x_max":242,"o":"m 242 922 l 242 0 l 164 0 l 164 457 l 94 457 l 94 0 l 17 0 l 17 922 l 94 922 l 94 525 l 164 525 l 164 922 l 242 922 z "},"I":{"ha":111,"x_min":17,"x_max":94,"o":"m 94 922 l 94 0 l 17 0 l 17 922 l 94 922 z "},"Ι":{"ha":111,"x_min":17,"x_max":94,"o":"m 94 922 l 94 0 l 17 0 l 17 922 l 94 922 z "},"І":{"ha":111,"x_min":17,"x_max":94,"o":"m 94 922 l 94 0 l 17 0 l 17 922 l 94 922 z "},"Ӏ":{"ha":111,"x_min":17,"x_max":94,"o":"m 94 922 l 94 0 l 17 0 l 17 922 l 94 922 z "},"ӏ":{"ha":111,"x_min":17,"x_max":94,"o":"m 94 922 l 94 0 l 17 0 l 17 922 l 94 922 z "},"J":{"ha":246,"x_min":11,"x_max":229,"o":"m 153 108 l 153 108 l 153 922 l 229 922 l 229 114 q 119 -4 229 -4 l 119 -4 q 11 113 11 -4 l 11 113 l 11 340 l 85 340 l 85 108 q 118 67 85 67 l 118 67 q 153 108 153 67 z "},"Ј":{"ha":246,"x_min":11,"x_max":229,"o":"m 153 108 l 153 108 l 153 922 l 229 922 l 229 114 q 119 -4 229 -4 l 119 -4 q 11 113 11 -4 l 11 113 l 11 340 l 85 340 l 85 108 q 118 67 85 67 l 118 67 q 153 108 153 67 z "},"K":{"ha":256,"x_min":17,"x_max":250,"o":"m 176 565 l 249 0 l 171 0 l 121 396 l 118 396 l 94 290 l 94 0 l 17 0 l 17 922 l 94 922 l 94 563 l 100 563 l 172 922 l 250 922 l 176 565 z "},"Κ":{"ha":256,"x_min":17,"x_max":250,"o":"m 176 565 l 249 0 l 171 0 l 121 396 l 118 396 l 94 290 l 94 0 l 17 0 l 17 922 l 94 922 l 94 563 l 100 563 l 172 922 l 250 922 l 176 565 z "},"К":{"ha":256,"x_min":17,"x_max":250,"o":"m 176 565 l 249 0 l 171 0 l 121 396 l 118 396 l 94 290 l 94 0 l 17 0 l 17 922 l 94 922 l 94 563 l 100 563 l 172 922 l 250 922 l 176 565 z "},"L":{"ha":207,"x_min":17,"x_max":196,"o":"m 196 71 l 196 0 l 17 0 l 17 922 l 94 922 l 94 71 l 196 71 z "},"M":{"ha":365,"x_min":17,"x_max":349,"o":"m 349 922 l 349 0 l 279 0 l 279 426 q 282 744 279 675 l 282 744 l 276 744 l 218 0 l 146 0 l 88 744 l 82 744 q 85 426 85 678 l 85 426 l 85 0 l 17 0 l 17 922 l 138 922 l 181 229 l 186 229 l 229 922 l 349 922 z "},"Μ":{"ha":365,"x_min":17,"x_max":349,"o":"m 349 922 l 349 0 l 279 0 l 279 426 q 282 744 279 675 l 282 744 l 276 744 l 218 0 l 146 0 l 88 744 l 82 744 q 85 426 85 678 l 85 426 l 85 0 l 17 0 l 17 922 l 138 922 l 181 229 l 186 229 l 229 922 l 349 922 z "},"М":{"ha":365,"x_min":17,"x_max":349,"o":"m 349 922 l 349 0 l 279 0 l 279 426 q 282 744 279 675 l 282 744 l 276 744 l 218 0 l 146 0 l 88 744 l 82 744 q 85 426 85 678 l 85 426 l 85 0 l 17 0 l 17 922 l 138 922 l 181 229 l 186 229 l 229 922 l 349 922 z "},"N":{"ha":272,"x_min":17,"x_max":256,"o":"m 256 922 l 256 0 l 154 0 l 82 739 l 76 739 q 79 401 79 693 l 79 401 l 79 0 l 17 0 l 17 922 l 128 922 l 189 190 l 194 190 q 190 596 190 361 l 190 596 l 190 922 l 256 922 z "},"Ν":{"ha":272,"x_min":17,"x_max":256,"o":"m 256 922 l 256 0 l 154 0 l 82 739 l 76 739 q 79 401 79 693 l 79 401 l 79 0 l 17 0 l 17 922 l 128 922 l 189 190 l 194 190 q 190 596 190 361 l 190 596 l 190 922 l 256 922 z "},"O":{"ha":251,"x_min":14,"x_max":236,"o":"m 236 804 l 236 804 l 236 113 q 126 -4 236 -4 l 126 -4 q 14 114 14 -4 l 14 114 l 14 806 q 43 894 14 863 q 125 926 72 926 q 207 894 178 926 q 236 804 236 861 z m 160 108 l 160 108 l 160 811 q 125 854 160 854 q 90 813 90 854 l 90 813 l 90 108 q 125 67 90 67 q 160 108 160 67 z "},"Ο":{"ha":251,"x_min":14,"x_max":236,"o":"m 236 804 l 236 804 l 236 113 q 126 -4 236 -4 l 126 -4 q 14 114 14 -4 l 14 114 l 14 806 q 43 894 14 863 q 125 926 72 926 q 207 894 178 926 q 236 804 236 861 z m 160 108 l 160 108 l 160 811 q 125 854 160 854 q 90 813 90 854 l 90 813 l 90 108 q 125 67 90 67 q 160 108 160 67 z "},"О":{"ha":251,"x_min":14,"x_max":236,"o":"m 236 804 l 236 804 l 236 113 q 126 -4 236 -4 l 126 -4 q 14 114 14 -4 l 14 114 l 14 806 q 43 894 14 863 q 125 926 72 926 q 207 894 178 926 q 236 804 236 861 z m 160 108 l 160 108 l 160 811 q 125 854 160 854 q 90 813 90 854 l 90 813 l 90 108 q 125 67 90 67 q 160 108 160 67 z "},"P":{"ha":249,"x_min":17,"x_max":236,"o":"m 147 360 l 147 360 l 94 360 l 94 0 l 17 0 l 17 922 l 147 922 q 236 826 236 922 l 236 826 l 236 454 q 147 360 236 360 z m 131 851 l 94 851 l 94 428 l 131 428 q 163 467 163 428 l 163 467 l 163 818 q 131 851 163 851 l 131 851 z "},"Ρ":{"ha":249,"x_min":17,"x_max":236,"o":"m 147 360 l 147 360 l 94 360 l 94 0 l 17 0 l 17 922 l 147 922 q 236 826 236 922 l 236 826 l 236 454 q 147 360 236 360 z m 131 851 l 94 851 l 94 428 l 131 428 q 163 467 163 428 l 163 467 l 163 818 q 131 851 163 851 l 131 851 z "},"Р":{"ha":249,"x_min":17,"x_max":236,"o":"m 147 360 l 147 360 l 94 360 l 94 0 l 17 0 l 17 922 l 147 922 q 236 826 236 922 l 236 826 l 236 454 q 147 360 236 360 z m 131 851 l 94 851 l 94 428 l 131 428 q 163 467 163 428 l 163 467 l 163 818 q 131 851 163 851 l 131 851 z "},"Q":{"ha":250,"x_min":14,"x_max":278,"o":"m 236 804 l 236 804 l 236 118 q 158 3 236 21 l 158 3 l 158 -228 q 183 -254 158 -254 l 183 -254 q 210 -228 210 -254 l 210 -228 l 210 -31 l 278 -31 l 278 -221 q 185 -324 278 -324 q 92 -221 92 -324 l 92 -221 l 92 4 q 14 119 14 22 l 14 119 l 14 803 q 121 926 14 926 l 121 926 q 206 894 175 926 q 236 804 236 861 z m 160 113 l 160 113 l 160 810 q 124 854 160 854 l 124 854 q 90 810 90 854 l 90 810 l 90 114 q 124 71 90 71 l 124 71 q 160 113 160 71 z "},"R":{"ha":251,"x_min":17,"x_max":238,"o":"m 93 421 l 93 0 l 17 0 l 17 922 l 147 922 q 236 826 236 922 l 236 826 l 236 531 q 189 458 236 469 l 189 458 l 189 453 q 238 379 238 442 l 238 379 l 238 0 l 163 0 l 163 386 q 131 421 163 421 l 131 421 l 93 421 z m 161 522 l 161 522 l 161 818 q 129 851 161 851 l 129 851 l 93 851 l 93 483 l 129 483 q 161 522 161 483 z "},"S":{"ha":261,"x_min":14,"x_max":246,"o":"m 238 804 l 238 635 l 165 635 l 165 813 q 129 854 165 854 q 93 818 93 854 l 93 818 l 93 664 q 97 594 93 613 q 115 557 101 575 l 115 557 q 169 495 135 531 q 218 440 204 460 l 218 440 q 246 326 246 403 l 246 326 l 246 118 q 132 -4 246 -4 l 132 -4 q 14 124 14 -4 l 14 124 l 14 276 l 86 276 l 86 110 q 128 67 86 67 l 128 67 q 165 106 165 67 l 165 106 l 165 294 q 160 371 165 350 q 138 414 154 392 l 138 414 q 92 464 133 419 q 39 535 51 508 l 39 535 q 15 672 15 585 l 15 672 l 15 817 q 44 897 15 867 q 126 926 72 926 l 126 926 q 238 804 238 926 l 238 804 z "},"Ѕ":{"ha":261,"x_min":14,"x_max":246,"o":"m 238 804 l 238 635 l 165 635 l 165 813 q 129 854 165 854 q 93 818 93 854 l 93 818 l 93 664 q 97 594 93 613 q 115 557 101 575 l 115 557 q 169 495 135 531 q 218 440 204 460 l 218 440 q 246 326 246 403 l 246 326 l 246 118 q 132 -4 246 -4 l 132 -4 q 14 124 14 -4 l 14 124 l 14 276 l 86 276 l 86 110 q 128 67 86 67 l 128 67 q 165 106 165 67 l 165 106 l 165 294 q 160 371 165 350 q 138 414 154 392 l 138 414 q 92 464 133 419 q 39 535 51 508 l 39 535 q 15 672 15 585 l 15 672 l 15 817 q 44 897 15 867 q 126 926 72 926 l 126 926 q 238 804 238 926 l 238 804 z "},"T":{"ha":243,"x_min":11,"x_max":232,"o":"m 160 851 l 160 0 l 82 0 l 82 851 l 11 851 l 11 922 l 232 922 l 232 851 l 160 851 z "},"Τ":{"ha":243,"x_min":11,"x_max":232,"o":"m 160 851 l 160 0 l 82 0 l 82 851 l 11 851 l 11 922 l 232 922 l 232 851 l 160 851 z "},"Т":{"ha":243,"x_min":11,"x_max":232,"o":"m 160 851 l 160 0 l 82 0 l 82 851 l 11 851 l 11 922 l 232 922 l 232 851 l 160 851 z "},"U":{"ha":256,"x_min":17,"x_max":238,"o":"m 161 108 l 161 108 l 161 922 l 238 922 l 238 114 q 128 -4 238 -4 l 128 -4 q 17 113 17 -4 l 17 113 l 17 922 l 92 922 l 92 108 q 126 67 92 67 q 161 108 161 67 z "},"V":{"ha":258,"x_min":6,"x_max":251,"o":"m 251 922 l 189 0 l 67 0 l 6 922 l 82 922 l 126 169 l 132 169 l 176 922 l 251 922 z "},"W":{"ha":381,"x_min":6,"x_max":375,"o":"m 188 744 l 160 0 l 49 0 l 6 922 l 79 922 l 106 163 l 111 163 l 146 922 l 235 922 l 271 163 l 276 163 l 301 922 l 375 922 l 332 0 l 221 0 l 193 744 l 188 744 z "},"X":{"ha":271,"x_min":6,"x_max":264,"o":"m 139 578 l 185 922 l 261 922 l 189 482 l 264 0 l 185 0 l 138 364 l 132 364 l 83 0 l 6 0 l 82 465 l 8 922 l 86 922 l 133 578 l 139 578 z "},"Χ":{"ha":271,"x_min":6,"x_max":264,"o":"m 139 578 l 185 922 l 261 922 l 189 482 l 264 0 l 185 0 l 138 364 l 132 364 l 83 0 l 6 0 l 82 465 l 8 922 l 86 922 l 133 578 l 139 578 z "},"Х":{"ha":271,"x_min":6,"x_max":264,"o":"m 139 578 l 185 922 l 261 922 l 189 482 l 264 0 l 185 0 l 138 364 l 132 364 l 83 0 l 6 0 l 82 465 l 8 922 l 86 922 l 133 578 l 139 578 z "},"Y":{"ha":256,"x_min":4,"x_max":251,"o":"m 168 381 l 168 0 l 90 0 l 90 381 l 4 922 l 83 922 l 126 575 l 132 575 l 172 922 l 251 922 l 168 381 z "},"Υ":{"ha":256,"x_min":4,"x_max":251,"o":"m 168 381 l 168 0 l 90 0 l 90 381 l 4 922 l 83 922 l 126 575 l 132 575 l 172 922 l 251 922 l 168 381 z "},"Ү":{"ha":256,"x_min":4,"x_max":251,"o":"m 168 381 l 168 0 l 90 0 l 90 381 l 4 922 l 83 922 l 126 575 l 132 575 l 172 922 l 251 922 l 168 381 z "},"Z":{"ha":233,"x_min":11,"x_max":222,"o":"m 222 69 l 222 0 l 11 0 l 11 71 l 144 851 l 13 851 l 13 922 l 218 922 l 218 853 l 88 69 l 222 69 z "},"Ζ":{"ha":233,"x_min":11,"x_max":222,"o":"m 222 69 l 222 0 l 11 0 l 11 71 l 144 851 l 13 851 l 13 922 l 218 922 l 218 853 l 88 69 l 222 69 z "},"[":{"ha":157,"x_min":31,"x_max":147,"o":"m 147 -119 l 147 -181 l 31 -181 l 31 999 l 147 999 l 147 936 l 89 936 l 89 -119 l 147 -119 z "},"\\":{"ha":147,"x_min":0,"x_max":147,"o":"m 61 922 l 147 0 l 86 0 l 0 922 l 61 922 z "},"]":{"ha":157,"x_min":11,"x_max":126,"o":"m 126 999 l 126 -181 l 11 -181 l 11 -119 l 68 -119 l 68 936 l 11 936 l 11 999 l 126 999 z "},"^":{"ha":238,"x_min":6,"x_max":233,"o":"m 69 626 l 6 626 l 82 922 l 157 922 l 233 626 l 168 626 l 121 840 l 115 840 l 69 626 z "},"_":{"ha":171,"x_min":0,"x_max":172,"o":"m 172 -76 l 172 -126 l 0 -126 l 0 -76 l 172 -76 z "},"`":{"ha":175,"x_min":17,"x_max":158,"o":"m 158 733 l 129 704 l 17 828 l 56 872 l 158 733 z "},"a":{"ha":246,"x_min":13,"x_max":228,"o":"m 156 88 l 156 88 l 156 356 q 118 339 150 350 q 86 292 86 328 l 86 292 l 86 93 q 117 60 86 60 l 117 60 q 156 88 144 60 z m 228 599 l 228 0 l 160 0 l 158 35 l 153 35 q 83 -4 131 -4 l 83 -4 q 13 75 13 -4 l 13 75 l 13 278 q 31 346 13 325 q 99 383 49 367 l 99 383 q 142 401 129 393 q 154 425 154 408 l 154 425 l 154 588 q 122 614 154 614 l 122 614 q 88 585 88 614 l 88 585 l 88 457 l 18 457 l 18 593 q 128 679 18 679 l 128 679 q 228 599 228 679 l 228 599 z "},"а":{"ha":246,"x_min":13,"x_max":228,"o":"m 156 88 l 156 88 l 156 356 q 118 339 150 350 q 86 292 86 328 l 86 292 l 86 93 q 117 60 86 60 l 117 60 q 156 88 144 60 z m 228 599 l 228 0 l 160 0 l 158 35 l 153 35 q 83 -4 131 -4 l 83 -4 q 13 75 13 -4 l 13 75 l 13 278 q 31 346 13 325 q 99 383 49 367 l 99 383 q 142 401 129 393 q 154 425 154 408 l 154 425 l 154 588 q 122 614 154 614 l 122 614 q 88 585 88 614 l 88 585 l 88 457 l 18 457 l 18 593 q 128 679 18 679 l 128 679 q 228 599 228 679 l 228 599 z "},"b":{"ha":251,"x_min":18,"x_max":232,"o":"m 158 100 l 158 100 l 158 575 q 126 614 158 614 l 126 614 q 102 600 110 614 q 90 553 94 586 l 90 553 l 90 111 q 128 60 99 60 l 128 60 q 158 100 158 60 z m 86 42 l 85 0 l 18 0 l 18 933 l 90 933 l 90 640 l 96 640 q 161 679 122 679 l 161 679 q 215 655 199 679 q 232 569 232 631 l 232 569 l 232 90 q 158 -4 232 -4 l 158 -4 q 92 42 113 -4 l 92 42 l 86 42 z "},"c":{"ha":246,"x_min":18,"x_max":226,"o":"m 157 101 l 157 101 l 157 247 l 226 247 l 226 101 q 124 -4 226 -4 l 124 -4 q 18 101 18 -4 l 18 101 l 18 572 q 124 679 18 679 l 124 679 q 226 572 226 679 l 226 572 l 226 431 l 157 431 l 157 572 q 124 613 157 613 q 90 572 90 613 l 90 572 l 90 101 q 124 63 90 63 q 157 101 157 63 z "},"с":{"ha":246,"x_min":18,"x_max":226,"o":"m 157 101 l 157 101 l 157 247 l 226 247 l 226 101 q 124 -4 226 -4 l 124 -4 q 18 101 18 -4 l 18 101 l 18 572 q 124 679 18 679 l 124 679 q 226 572 226 679 l 226 572 l 226 431 l 157 431 l 157 572 q 124 613 157 613 q 90 572 90 613 l 90 572 l 90 101 q 124 63 90 63 q 157 101 157 63 z "},"d":{"ha":251,"x_min":18,"x_max":232,"o":"m 93 575 l 93 575 l 93 100 q 125 60 93 60 l 125 60 q 161 104 153 60 l 161 104 l 161 567 q 150 603 157 593 q 126 614 143 614 l 126 614 q 93 575 93 614 z m 232 933 l 232 0 l 167 0 l 164 42 l 158 42 q 93 -4 142 -4 l 93 -4 q 38 18 58 -4 q 18 81 18 40 l 18 81 l 18 593 q 38 656 18 633 q 94 679 58 679 l 94 679 q 153 640 135 679 l 153 640 l 158 640 l 158 933 l 232 933 z "},"e":{"ha":249,"x_min":18,"x_max":231,"o":"m 157 231 l 231 231 l 231 101 q 124 -4 231 -4 l 124 -4 q 18 101 18 -4 l 18 101 l 18 572 q 124 679 18 679 l 124 679 q 231 572 231 679 l 231 572 l 231 322 l 90 322 l 90 100 q 124 60 90 60 q 157 100 157 60 l 157 100 l 157 231 z m 90 375 l 157 375 l 157 574 q 124 613 157 613 q 90 574 90 613 l 90 574 l 90 375 z "},"е":{"ha":249,"x_min":18,"x_max":231,"o":"m 157 231 l 231 231 l 231 101 q 124 -4 231 -4 l 124 -4 q 18 101 18 -4 l 18 101 l 18 572 q 124 679 18 679 l 124 679 q 231 572 231 679 l 231 572 l 231 322 l 90 322 l 90 100 q 124 60 90 60 q 157 100 157 60 l 157 100 l 157 231 z m 90 375 l 157 375 l 157 574 q 124 613 157 613 q 90 574 90 613 l 90 574 l 90 375 z "},"f":{"ha":194,"x_min":10,"x_max":185,"o":"m 124 675 l 185 675 l 185 608 l 124 608 l 124 0 l 49 0 l 49 608 l 10 608 l 10 675 l 49 675 l 49 831 q 158 933 49 933 l 158 933 l 183 933 l 183 867 l 158 867 q 124 831 124 867 l 124 831 l 124 675 z "},"g":{"ha":251,"x_min":18,"x_max":232,"o":"m 232 675 l 232 -218 q 125 -324 232 -324 l 125 -324 q 19 -218 19 -324 l 19 -218 l 19 -42 l 92 -42 l 92 -218 q 125 -257 92 -257 q 158 -218 158 -257 l 158 -218 l 158 39 l 153 39 q 89 0 136 0 l 89 0 q 18 85 18 0 l 18 85 l 18 589 q 38 656 18 632 q 94 679 58 679 l 94 679 q 158 632 138 679 l 158 632 l 164 632 l 167 675 l 232 675 z m 93 575 l 93 575 l 93 107 q 125 68 93 68 l 125 68 q 161 110 153 68 l 161 110 l 161 568 q 126 614 153 614 l 126 614 q 93 575 93 614 z "},"h":{"ha":253,"x_min":18,"x_max":235,"o":"m 235 585 l 235 0 l 160 0 l 160 578 q 129 614 160 614 l 129 614 q 92 575 100 614 l 92 575 l 92 0 l 18 0 l 18 933 l 92 933 l 92 631 l 97 631 q 167 679 118 679 l 167 679 q 219 657 204 679 q 235 585 235 635 l 235 585 z "},"һ":{"ha":253,"x_min":18,"x_max":235,"o":"m 235 585 l 235 0 l 160 0 l 160 578 q 129 614 160 614 l 129 614 q 92 575 100 614 l 92 575 l 92 0 l 18 0 l 18 933 l 92 933 l 92 631 l 97 631 q 167 679 118 679 l 167 679 q 219 657 204 679 q 235 585 235 635 l 235 585 z "},"i":{"ha":111,"x_min":18,"x_max":92,"o":"m 92 675 l 92 0 l 18 0 l 18 675 l 92 675 z m 92 840 l 92 736 l 18 736 l 18 840 l 92 840 z "},"і":{"ha":111,"x_min":18,"x_max":92,"o":"m 92 675 l 92 0 l 18 0 l 18 675 l 92 675 z m 92 840 l 92 736 l 18 736 l 18 840 l 92 840 z "},"j":{"ha":119,"x_min":-114,"x_max":100,"o":"m -114 -218 l -114 -218 l -114 -37 l -42 -37 l -42 -218 q -8 -257 -42 -257 q 25 -218 25 -257 l 25 -218 l 25 675 l 100 675 l 100 -218 q -7 -324 100 -324 q -114 -218 -114 -324 z m 100 840 l 100 736 l 25 736 l 25 840 l 100 840 z "},"ј":{"ha":119,"x_min":-114,"x_max":100,"o":"m -114 -218 l -114 -218 l -114 -37 l -42 -37 l -42 -218 q -8 -257 -42 -257 q 25 -218 25 -257 l 25 -218 l 25 675 l 100 675 l 100 -218 q -7 -324 100 -324 q -114 -218 -114 -324 z m 100 840 l 100 736 l 25 736 l 25 840 l 100 840 z "},"k":{"ha":250,"x_min":18,"x_max":246,"o":"m 172 382 l 244 0 l 168 0 l 118 269 l 114 269 l 92 188 l 92 0 l 18 0 l 18 933 l 92 933 l 92 388 l 97 388 l 168 675 l 246 675 l 172 382 z "},"l":{"ha":111,"x_min":18,"x_max":92,"o":"m 92 933 l 92 0 l 18 0 l 18 933 l 92 933 z "},"m":{"ha":388,"x_min":18,"x_max":369,"o":"m 369 592 l 369 0 l 294 0 l 294 578 q 264 614 294 614 l 264 614 q 229 579 239 614 l 229 579 l 229 0 l 157 0 l 157 578 q 128 614 157 614 l 128 614 q 92 579 103 614 l 92 579 l 92 0 l 18 0 l 18 675 l 88 675 l 89 632 l 94 632 q 154 679 117 679 l 154 679 q 224 626 208 679 l 224 626 q 294 679 247 679 l 294 679 q 349 656 328 679 q 369 592 369 632 l 369 592 z "},"n":{"ha":253,"x_min":18,"x_max":235,"o":"m 235 592 l 235 0 l 160 0 l 160 578 q 128 614 160 614 l 128 614 q 92 579 104 614 l 92 579 l 92 0 l 18 0 l 18 675 l 88 675 l 89 632 l 94 632 q 165 679 117 679 l 165 679 q 235 592 235 679 l 235 592 z "},"o":{"ha":249,"x_min":18,"x_max":229,"o":"m 229 572 l 229 572 l 229 101 q 124 -4 229 -4 q 18 101 18 -4 l 18 101 l 18 572 q 124 679 18 679 q 229 572 229 679 z m 157 101 l 157 101 l 157 572 q 124 613 157 613 q 90 572 90 613 l 90 572 l 90 101 q 124 63 90 63 q 157 101 157 63 z "},"ο":{"ha":249,"x_min":18,"x_max":229,"o":"m 229 572 l 229 572 l 229 101 q 124 -4 229 -4 q 18 101 18 -4 l 18 101 l 18 572 q 124 679 18 679 q 229 572 229 679 z m 157 101 l 157 101 l 157 572 q 124 613 157 613 q 90 572 90 613 l 90 572 l 90 101 q 124 63 90 63 q 157 101 157 63 z "},"о":{"ha":249,"x_min":18,"x_max":229,"o":"m 229 572 l 229 572 l 229 101 q 124 -4 229 -4 q 18 101 18 -4 l 18 101 l 18 572 q 124 679 18 679 q 229 572 229 679 z m 157 101 l 157 101 l 157 572 q 124 613 157 613 q 90 572 90 613 l 90 572 l 90 101 q 124 63 90 63 q 157 101 157 63 z "},"p":{"ha":251,"x_min":18,"x_max":232,"o":"m 158 100 l 158 100 l 158 575 q 125 614 158 614 l 125 614 q 90 579 96 614 l 90 579 l 90 96 q 125 60 96 60 l 125 60 q 158 100 158 60 z m 90 36 l 90 -324 l 18 -324 l 18 675 l 85 675 l 86 632 l 92 632 q 156 679 114 679 l 156 679 q 212 656 192 679 q 232 593 232 633 l 232 593 l 232 81 q 212 18 232 40 q 157 -4 192 -4 l 157 -4 q 96 36 113 -4 l 96 36 l 90 36 z "},"р":{"ha":251,"x_min":18,"x_max":232,"o":"m 158 100 l 158 100 l 158 575 q 125 614 158 614 l 125 614 q 90 579 96 614 l 90 579 l 90 96 q 125 60 96 60 l 125 60 q 158 100 158 60 z m 90 36 l 90 -324 l 18 -324 l 18 675 l 85 675 l 86 632 l 92 632 q 156 679 114 679 l 156 679 q 212 656 192 679 q 232 593 232 633 l 232 593 l 232 81 q 212 18 232 40 q 157 -4 192 -4 l 157 -4 q 96 36 113 -4 l 96 36 l 90 36 z "},"q":{"ha":251,"x_min":18,"x_max":365,"o":"m 293 -37 l 365 -37 l 365 -218 q 263 -324 365 -324 l 263 -324 q 158 -218 158 -324 l 158 -218 l 158 36 l 154 36 q 92 -4 138 -4 l 92 -4 q 35 19 53 -4 q 18 92 18 42 l 18 92 l 18 593 q 38 656 18 633 q 93 679 58 679 l 93 679 q 160 631 138 679 l 160 631 l 164 631 l 167 675 l 232 675 l 232 -217 q 264 -257 232 -257 l 264 -257 q 293 -218 293 -257 l 293 -218 l 293 -37 z m 93 575 l 93 575 l 93 100 q 125 60 93 60 l 125 60 q 161 104 153 60 l 161 104 l 161 572 q 125 614 151 614 l 125 614 q 93 575 93 614 z "},"r":{"ha":190,"x_min":18,"x_max":181,"o":"m 92 543 l 92 0 l 18 0 l 18 675 l 88 675 l 89 626 l 94 626 q 156 679 114 679 l 156 679 q 181 674 167 679 l 181 674 l 181 606 q 153 611 171 611 l 153 611 q 110 596 124 611 q 92 543 96 581 l 92 543 z "},"s":{"ha":244,"x_min":15,"x_max":229,"o":"m 225 583 l 225 468 l 156 468 l 156 586 q 122 617 156 617 q 89 588 89 617 l 89 588 l 89 457 q 94 418 89 429 q 114 394 99 407 l 114 394 q 155 367 128 383 q 194 342 182 351 l 194 342 q 222 305 214 325 q 229 239 229 285 l 229 239 l 229 89 q 125 -4 229 -4 l 125 -4 q 15 92 15 -4 l 15 92 l 15 217 l 85 217 l 85 90 q 121 56 85 56 l 121 56 q 156 88 156 56 l 156 88 l 156 239 q 125 297 156 272 l 125 297 q 90 323 119 301 q 47 357 60 344 l 47 357 q 18 457 18 390 l 18 457 l 18 594 q 44 657 18 635 q 121 679 71 679 l 121 679 q 225 583 225 679 l 225 583 z "},"ѕ":{"ha":244,"x_min":15,"x_max":229,"o":"m 225 583 l 225 468 l 156 468 l 156 586 q 122 617 156 617 q 89 588 89 617 l 89 588 l 89 457 q 94 418 89 429 q 114 394 99 407 l 114 394 q 155 367 128 383 q 194 342 182 351 l 194 342 q 222 305 214 325 q 229 239 229 285 l 229 239 l 229 89 q 125 -4 229 -4 l 125 -4 q 15 92 15 -4 l 15 92 l 15 217 l 85 217 l 85 90 q 121 56 85 56 l 121 56 q 156 88 156 56 l 156 88 l 156 239 q 125 297 156 272 l 125 297 q 90 323 119 301 q 47 357 60 344 l 47 357 q 18 457 18 390 l 18 457 l 18 594 q 44 657 18 635 q 121 679 71 679 l 121 679 q 225 583 225 679 l 225 583 z "},"t":{"ha":238,"x_min":18,"x_max":218,"o":"m 156 101 l 156 101 l 156 381 l 218 381 l 218 101 q 197 21 218 46 q 124 -4 176 -4 l 124 -4 q 18 101 18 -4 l 18 101 l 18 860 l 90 860 l 90 675 l 218 675 l 218 608 l 90 608 l 90 101 q 125 63 90 63 l 125 63 q 156 101 156 63 z "},"u":{"ha":251,"x_min":18,"x_max":233,"o":"m 18 106 l 18 675 l 93 675 l 93 106 q 124 60 93 60 q 160 107 154 60 l 160 107 l 160 675 l 233 675 l 233 0 l 164 0 l 163 42 l 157 42 q 131 6 144 17 q 92 -4 117 -4 l 92 -4 q 32 24 46 -4 q 18 106 18 53 l 18 106 z "},"v":{"ha":236,"x_min":4,"x_max":231,"o":"m 231 675 l 171 0 l 65 0 l 4 675 l 78 675 l 117 139 l 122 139 l 161 675 l 231 675 z "},"ν":{"ha":236,"x_min":4,"x_max":231,"o":"m 231 675 l 171 0 l 65 0 l 4 675 l 78 675 l 117 139 l 122 139 l 161 675 l 231 675 z "},"w":{"ha":347,"x_min":4,"x_max":343,"o":"m 171 524 l 146 0 l 43 0 l 4 675 l 75 675 l 94 160 l 100 160 l 131 675 l 215 675 l 247 160 l 253 160 l 272 675 l 343 675 l 304 0 l 200 0 l 176 524 l 171 524 z "},"x":{"ha":247,"x_min":4,"x_max":243,"o":"m 129 432 l 167 675 l 240 675 l 176 353 l 243 0 l 167 0 l 125 257 l 119 257 l 79 0 l 4 0 l 71 343 l 7 675 l 82 675 l 124 432 l 129 432 z "},"х":{"ha":247,"x_min":4,"x_max":243,"o":"m 129 432 l 167 675 l 240 675 l 176 353 l 243 0 l 167 0 l 125 257 l 119 257 l 79 0 l 4 0 l 71 343 l 7 675 l 82 675 l 124 432 l 129 432 z "},"y":{"ha":251,"x_min":18,"x_max":232,"o":"m 18 675 l 93 675 l 93 107 q 125 68 93 68 l 125 68 q 161 111 153 68 l 161 111 l 161 675 l 232 675 l 232 -218 q 125 -324 232 -324 l 125 -324 q 19 -218 19 -324 l 19 -218 l 19 -42 l 92 -42 l 92 -218 q 125 -257 92 -257 q 158 -218 158 -257 l 158 -218 l 158 39 l 154 39 q 92 0 136 0 l 92 0 q 18 104 18 0 l 18 104 l 18 675 z "},"у":{"ha":251,"x_min":18,"x_max":232,"o":"m 18 675 l 93 675 l 93 107 q 125 68 93 68 l 125 68 q 161 111 153 68 l 161 111 l 161 675 l 232 675 l 232 -218 q 125 -324 232 -324 l 125 -324 q 19 -218 19 -324 l 19 -218 l 19 -42 l 92 -42 l 92 -218 q 125 -257 92 -257 q 158 -218 158 -257 l 158 -218 l 158 39 l 154 39 q 92 0 136 0 l 92 0 q 18 104 18 0 l 18 104 l 18 675 z "},"z":{"ha":211,"x_min":13,"x_max":200,"o":"m 200 68 l 200 0 l 13 0 l 13 69 l 129 608 l 13 608 l 13 675 l 197 675 l 197 607 l 81 68 l 200 68 z "},"{":{"ha":157,"x_min":18,"x_max":147,"o":"m 147 -124 l 147 -182 l 111 -182 q 51 -92 51 -182 l 51 -92 l 51 342 q 18 379 51 379 l 18 379 l 18 440 q 51 478 51 440 l 51 478 l 51 908 q 111 1000 51 1000 l 111 1000 l 147 1000 l 147 942 l 135 942 q 110 908 110 942 l 110 908 l 110 478 q 75 413 110 426 l 75 413 l 75 407 q 110 342 110 394 l 110 342 l 110 -92 q 135 -124 110 -124 l 135 -124 l 147 -124 z "},"|":{"ha":138,"x_min":39,"x_max":97,"o":"m 97 1022 l 97 -174 l 39 -174 l 39 1022 l 97 1022 z "},"}":{"ha":157,"x_min":10,"x_max":139,"o":"m 46 -182 l 46 -182 l 10 -182 l 10 -124 l 22 -124 q 47 -92 47 -124 l 47 -92 l 47 342 q 82 407 47 394 l 82 407 l 82 413 q 47 478 47 426 l 47 478 l 47 908 q 22 942 47 942 l 22 942 l 10 942 l 10 1000 l 46 1000 q 106 908 106 1000 l 106 908 l 106 478 q 139 440 106 440 l 139 440 l 139 379 q 106 342 106 379 l 106 342 l 106 -92 q 46 -182 106 -182 z "},"~":{"ha":238,"x_min":17,"x_max":221,"o":"m 164 426 l 164 426 q 116 435 146 426 q 71 444 86 444 l 71 444 q 17 419 42 444 l 17 419 l 17 482 q 72 503 38 503 l 72 503 q 122 494 92 503 q 165 485 151 485 l 165 485 q 221 508 199 485 l 221 508 l 221 447 q 164 426 197 426 z "}," ":{"ha":83,"x_min":null,"x_max":null,"o":""},"¡":{"ha":126,"x_min":22,"x_max":103,"o":"m 26 568 l 26 683 l 101 683 l 101 568 l 26 568 z m 36 464 l 36 464 l 89 464 q 103 272 103 364 l 103 272 l 103 -239 l 22 -239 l 22 247 q 36 464 22 350 z "},"¢":{"ha":243,"x_min":17,"x_max":225,"o":"m 151 121 l 151 -4 l 93 -4 l 93 121 q 17 225 17 133 l 17 225 l 17 713 q 93 817 17 804 l 93 817 l 93 931 l 151 931 l 151 817 q 225 713 225 804 l 225 713 l 225 567 l 156 567 l 156 718 q 122 758 156 758 q 89 718 89 758 l 89 718 l 89 219 q 122 181 89 181 q 156 219 156 181 l 156 219 l 156 375 l 225 375 l 225 225 q 151 121 225 135 l 151 121 z "},"£":{"ha":251,"x_min":17,"x_max":233,"o":"m 93 428 l 233 428 l 233 358 l 93 358 l 93 71 l 233 71 l 233 0 l 17 0 l 17 807 q 128 926 17 926 l 128 926 q 233 808 233 926 l 233 808 l 233 563 l 161 563 l 161 814 q 128 856 161 856 l 128 856 q 93 814 93 856 l 93 814 l 93 428 z "},"¤":{"ha":296,"x_min":17,"x_max":279,"o":"m 279 361 l 243 324 l 208 361 q 149 343 181 343 q 89 361 117 343 l 89 361 l 54 324 l 17 361 l 56 396 q 36 458 36 425 l 36 458 q 54 519 36 489 l 54 519 l 18 554 l 54 590 l 88 554 q 149 572 118 572 l 149 572 q 210 554 176 572 l 210 554 l 243 590 l 279 554 l 243 521 q 261 457 261 488 q 243 396 261 426 l 243 396 l 279 361 z m 217 458 l 217 458 q 197 508 217 488 q 149 528 178 528 q 100 508 119 528 q 81 457 81 488 q 100 407 81 426 q 149 388 119 388 q 197 408 178 388 q 217 458 217 428 z "},"¥":{"ha":256,"x_min":4,"x_max":251,"o":"m 165 154 l 165 0 l 93 0 l 93 154 l 29 154 l 29 201 l 93 201 l 93 342 l 29 342 l 29 388 l 93 388 l 93 424 l 4 922 l 82 922 l 126 581 l 132 581 l 175 922 l 251 922 l 165 424 l 165 388 l 233 388 l 233 342 l 165 342 l 165 201 l 233 201 l 233 154 l 165 154 z "},"¦":{"ha":138,"x_min":39,"x_max":97,"o":"m 97 360 l 97 -174 l 39 -174 l 39 360 l 97 360 z m 97 1022 l 97 494 l 39 494 l 39 1022 l 97 1022 z "},"§":{"ha":211,"x_min":17,"x_max":196,"o":"m 196 90 l 196 90 l 196 -103 q 107 -194 196 -194 l 107 -194 q 17 -99 17 -194 l 17 -99 l 17 21 l 74 21 l 74 -110 q 104 -140 74 -140 l 104 -140 q 132 -111 132 -140 l 132 -111 l 132 88 q 114 122 132 106 q 75 149 96 138 q 36 185 54 160 q 18 247 18 211 l 18 247 l 18 521 q 53 589 18 569 l 53 589 q 18 668 18 618 l 18 668 l 18 846 q 40 905 18 883 q 103 926 63 926 l 103 926 q 189 835 189 926 l 189 835 l 189 721 l 132 721 l 132 840 q 106 872 132 872 l 106 872 q 78 846 78 872 l 78 846 l 78 664 q 94 633 78 649 l 94 633 q 138 606 106 624 q 183 568 169 588 q 196 511 196 549 l 196 511 l 196 229 q 171 158 196 182 l 171 158 q 196 90 196 136 z m 132 215 l 132 215 l 132 508 q 97 553 132 529 l 97 553 q 78 526 78 547 l 78 526 l 78 243 q 125 194 78 217 l 125 194 q 132 215 132 201 z "},"¨":{"ha":208,"x_min":17,"x_max":192,"o":"m 85 840 l 85 736 l 17 736 l 17 840 l 85 840 z m 192 840 l 192 736 l 124 736 l 124 840 l 192 840 z "},"©":{"ha":257,"x_min":17,"x_max":239,"o":"m 239 804 l 239 804 l 239 113 q 129 -4 239 -4 l 129 -4 q 17 114 17 -4 l 17 114 l 17 806 q 46 894 17 863 q 128 926 75 926 q 210 894 181 926 q 239 804 239 861 z m 208 113 l 208 113 l 208 804 q 188 872 208 849 q 128 896 167 896 q 67 872 89 896 q 46 806 46 849 l 46 806 l 46 114 q 129 26 46 26 l 129 26 q 208 113 208 26 z m 179 618 l 179 519 l 149 519 l 149 622 q 129 646 149 646 q 110 622 110 646 l 110 622 l 110 297 q 128 272 110 272 l 128 272 q 149 296 149 272 l 149 296 l 149 421 l 179 421 l 179 297 q 129 243 179 243 q 79 299 79 243 l 79 299 l 79 619 q 128 675 79 675 l 128 675 q 179 618 179 675 l 179 618 z "},"ª":{"ha":164,"x_min":15,"x_max":146,"o":"m 99 571 l 99 571 l 99 729 q 78 719 94 725 l 78 719 q 61 692 61 713 l 61 692 l 61 572 q 78 553 61 553 l 78 553 q 99 571 93 553 z m 146 876 l 146 514 l 101 514 l 100 535 l 96 535 q 57 511 86 511 l 57 511 q 15 563 15 511 l 15 563 l 15 683 q 26 726 15 713 q 67 750 38 740 l 67 750 q 97 775 97 760 l 97 775 l 97 869 q 81 885 97 885 q 64 868 64 885 l 64 868 l 64 792 l 18 792 l 18 872 q 83 926 18 926 l 83 926 q 146 876 146 926 l 146 876 z "},"«":{"ha":206,"x_min":7,"x_max":199,"o":"m 114 321 l 81 296 l 7 442 l 81 588 l 114 561 l 51 442 l 114 321 z m 199 321 l 165 296 l 92 442 l 165 588 l 199 561 l 136 442 l 199 321 z "},"¬":{"ha":238,"x_min":17,"x_max":221,"o":"m 221 618 l 221 140 l 164 140 l 164 560 l 17 560 l 17 618 l 221 618 z "},"®":{"ha":200,"x_min":17,"x_max":183,"o":"m 183 835 l 183 835 l 183 483 q 100 396 183 396 q 17 485 17 396 l 17 485 l 17 836 q 38 903 17 879 q 99 926 60 926 l 99 926 q 161 903 139 926 q 183 835 183 879 z m 160 483 l 160 483 l 160 835 q 99 903 160 903 l 99 903 q 40 836 40 903 l 40 836 l 40 485 q 100 419 40 419 q 160 483 160 419 z m 139 639 l 139 533 l 115 533 l 115 642 q 100 654 115 654 l 100 654 l 86 654 l 86 533 l 61 533 l 61 813 l 107 813 q 139 779 139 813 l 139 779 l 139 692 q 124 668 139 671 l 124 668 l 124 664 q 139 639 139 660 l 139 639 z m 114 689 l 114 689 l 114 776 q 100 790 114 790 l 100 790 l 86 790 l 86 675 l 100 675 q 114 689 114 675 z "},"¯":{"ha":200,"x_min":17,"x_max":182,"o":"m 182 788 l 182 740 l 17 740 l 17 788 l 182 788 z "},"°":{"ha":119,"x_min":8,"x_max":111,"o":"m 60 794 l 60 794 q 20 810 32 794 q 8 864 8 826 q 20 917 8 901 q 60 933 32 933 l 60 933 q 111 864 111 933 q 60 794 111 794 z m 38 864 q 60 822 38 822 q 82 864 82 822 q 60 906 82 906 q 38 864 38 906 z "},"±":{"ha":238,"x_min":17,"x_max":221,"o":"m 147 436 l 147 363 l 89 363 l 89 436 l 17 436 l 17 493 l 89 493 l 89 567 l 147 567 l 147 493 l 221 493 l 221 436 l 147 436 z m 221 254 l 221 196 l 17 196 l 17 254 l 221 254 z "},"²":{"ha":139,"x_min":15,"x_max":125,"o":"m 125 549 l 125 513 l 15 513 l 15 628 q 35 688 15 663 l 35 688 q 76 733 44 701 l 76 733 q 85 768 85 744 l 85 768 l 85 869 q 71 886 85 886 q 57 867 57 886 l 57 867 l 57 769 l 17 769 l 17 864 q 27 910 17 897 q 71 924 38 924 l 71 924 q 113 911 101 924 q 125 869 125 899 l 125 869 l 125 768 q 108 714 125 733 l 108 714 q 69 671 83 689 l 69 671 q 58 636 58 656 l 58 636 l 58 549 l 125 549 z "},"³":{"ha":139,"x_min":15,"x_max":125,"o":"m 125 683 l 125 683 l 125 568 q 71 510 125 510 l 71 510 q 15 571 15 510 l 15 571 l 15 658 l 56 658 l 56 568 q 69 549 56 549 l 69 549 q 85 565 85 549 l 85 565 l 85 686 q 67 707 85 707 l 67 707 l 53 707 l 53 742 l 68 742 q 83 761 83 742 l 83 761 l 83 868 q 69 886 83 886 q 56 867 56 886 l 56 867 l 56 790 l 15 790 l 15 863 q 69 924 15 924 l 69 924 q 122 871 122 924 l 122 871 l 122 764 q 100 728 122 735 l 100 728 l 100 724 q 125 683 125 717 z "},"´":{"ha":175,"x_min":17,"x_max":158,"o":"m 119 872 l 158 828 l 46 704 l 17 733 l 119 872 z "},"¶":{"ha":256,"x_min":11,"x_max":253,"o":"m 233 861 l 233 -139 l 171 -139 l 171 861 l 119 861 l 119 -139 l 57 -139 l 57 668 q 11 719 11 675 l 11 719 l 11 871 q 79 922 11 922 l 79 922 l 253 922 l 233 861 z "},"·":{"ha":110,"x_min":17,"x_max":92,"o":"m 92 521 l 92 406 l 17 406 l 17 521 l 92 521 z "},"¸":{"ha":100,"x_min":17,"x_max":83,"o":"m 17 -292 l 17 -292 l 17 -257 q 50 -207 50 -250 l 50 -207 l 50 -149 l 17 -149 l 17 -25 l 83 -25 l 83 -189 q 67 -265 83 -242 q 17 -292 51 -289 z "},"¹":{"ha":96,"x_min":13,"x_max":78,"o":"m 78 922 l 78 513 l 39 513 l 39 865 l 13 865 l 13 899 q 43 922 39 899 l 43 922 l 78 922 z "},"º":{"ha":161,"x_min":15,"x_max":143,"o":"m 143 864 l 143 864 l 143 578 q 79 513 143 513 q 15 578 15 513 l 15 578 l 15 864 q 79 928 15 928 q 143 864 143 928 z m 97 578 l 97 578 l 97 864 q 79 885 97 885 q 61 864 61 885 l 61 864 l 61 578 q 79 557 61 557 q 97 578 97 557 z "},"»":{"ha":206,"x_min":7,"x_max":199,"o":"m 114 443 l 39 296 l 7 322 l 69 443 l 7 563 l 39 589 l 114 443 z m 199 443 l 124 296 l 92 322 l 154 443 l 92 563 l 124 589 l 199 443 z "},"¼":{"ha":276,"x_min":17,"x_max":258,"o":"m 82 922 l 82 513 l 43 513 l 43 865 l 17 865 l 17 899 q 47 922 43 899 l 47 922 l 82 922 z m 236 940 l 68 -15 l 22 -15 l 189 940 l 236 940 z m 240 88 l 240 0 l 201 0 l 201 88 l 142 88 l 142 122 l 188 410 l 240 410 l 240 122 l 258 122 l 258 88 l 240 88 z m 174 122 l 201 122 l 201 285 l 196 285 l 174 122 z "},"½":{"ha":276,"x_min":10,"x_max":265,"o":"m 229 940 l 61 -15 l 15 -15 l 182 940 l 229 940 z m 75 922 l 75 513 l 36 513 l 36 865 l 10 865 l 10 899 q 40 922 36 899 l 40 922 l 75 922 z m 265 36 l 265 0 l 156 0 l 156 115 q 175 175 156 150 l 175 175 q 217 221 185 189 l 217 221 q 225 256 225 232 l 225 256 l 225 357 q 211 374 225 374 q 197 354 197 374 l 197 354 l 197 257 l 157 257 l 157 351 q 167 398 157 385 q 211 411 178 411 l 211 411 q 253 399 242 411 q 265 357 265 386 l 265 357 l 265 256 q 249 201 265 221 l 249 201 q 210 158 225 176 l 210 158 q 199 124 199 143 l 199 124 l 199 36 l 265 36 z "},"¾":{"ha":276,"x_min":10,"x_max":265,"o":"m 119 683 l 119 683 l 119 568 q 65 510 119 510 l 65 510 q 10 571 10 510 l 10 571 l 10 658 l 50 658 l 50 568 q 64 549 50 549 l 64 549 q 79 565 79 549 l 79 565 l 79 686 q 61 707 79 707 l 61 707 l 47 707 l 47 742 l 63 742 q 78 761 78 742 l 78 761 l 78 868 q 64 886 78 886 q 50 867 50 886 l 50 867 l 50 790 l 10 790 l 10 863 q 64 924 10 924 l 64 924 q 117 871 117 924 l 117 871 l 117 764 q 94 728 117 735 l 94 728 l 94 724 q 119 683 119 717 z m 253 940 l 85 -15 l 39 -15 l 206 940 l 253 940 z m 247 88 l 247 0 l 208 0 l 208 88 l 149 88 l 149 122 l 194 410 l 247 410 l 247 122 l 265 122 l 265 88 l 247 88 z m 181 122 l 208 122 l 208 285 l 203 285 l 181 122 z "},"¿":{"ha":240,"x_min":14,"x_max":229,"o":"m 82 579 l 82 682 l 158 682 l 158 579 l 82 579 z m 85 364 l 85 475 l 156 475 l 156 351 q 143 238 156 264 l 143 238 q 119 194 138 226 q 97 153 101 163 l 97 153 q 88 71 88 132 l 88 71 l 88 -129 q 95 -162 88 -153 q 122 -172 103 -172 q 149 -162 142 -172 q 156 -129 156 -153 l 156 -129 l 156 28 l 229 28 l 229 -97 q 208 -210 229 -176 q 118 -244 188 -244 l 118 -244 q 35 -214 56 -244 q 14 -107 14 -183 l 14 -107 l 14 71 q 26 174 14 144 l 26 174 q 51 224 33 190 q 72 264 69 258 l 72 264 q 85 364 85 292 l 85 364 z "},"À":{"ha":258,"x_min":6,"x_max":251,"o":"m 189 922 l 251 0 l 175 0 l 161 238 l 93 238 l 81 0 l 6 0 l 67 922 l 189 922 z m 131 789 l 125 789 l 97 304 l 157 304 l 131 789 z m 183 982 l 154 953 l 42 1076 l 81 1121 l 183 982 z "},"Á":{"ha":258,"x_min":6,"x_max":251,"o":"m 189 922 l 251 0 l 175 0 l 161 238 l 93 238 l 81 0 l 6 0 l 67 922 l 189 922 z m 131 789 l 125 789 l 97 304 l 157 304 l 131 789 z m 172 1121 l 211 1076 l 99 953 l 69 982 l 172 1121 z "},"Â":{"ha":258,"x_min":6,"x_max":251,"o":"m 189 922 l 251 0 l 175 0 l 161 238 l 93 238 l 81 0 l 6 0 l 67 922 l 189 922 z m 131 789 l 125 789 l 97 304 l 157 304 l 131 789 z m 161 1093 l 222 978 l 190 953 l 128 1050 l 65 953 l 33 978 l 94 1093 l 161 1093 z "},"Ã":{"ha":258,"x_min":6,"x_max":251,"o":"m 189 922 l 251 0 l 175 0 l 161 238 l 93 238 l 81 0 l 6 0 l 67 922 l 189 922 z m 131 789 l 125 789 l 97 304 l 157 304 l 131 789 z m 193 1033 l 193 1033 l 224 1014 q 172 964 211 964 l 172 964 q 130 978 156 964 q 90 993 104 993 l 90 993 q 63 969 68 993 l 63 969 l 31 988 q 83 1038 43 1038 l 83 1038 q 125 1024 99 1038 q 164 1010 151 1010 l 164 1010 q 193 1033 185 1010 z "},"Ä":{"ha":258,"x_min":6,"x_max":251,"o":"m 189 922 l 251 0 l 175 0 l 161 238 l 93 238 l 81 0 l 6 0 l 67 922 l 189 922 z m 131 789 l 125 789 l 97 304 l 157 304 l 131 789 z m 108 1089 l 108 985 l 40 985 l 40 1089 l 108 1089 z m 215 1089 l 215 985 l 147 985 l 147 1089 l 215 1089 z "},"Å":{"ha":258,"x_min":6,"x_max":251,"o":"m 189 922 l 251 0 l 175 0 l 161 238 l 93 238 l 81 0 l 6 0 l 67 922 l 189 922 z m 131 789 l 125 789 l 97 304 l 157 304 l 131 789 z m 128 985 l 128 985 q 156 1029 156 985 l 156 1029 q 128 1075 156 1075 l 128 1075 q 99 1029 99 1075 l 99 1029 q 128 985 99 985 z m 128 953 l 128 953 q 82 974 97 953 q 67 1029 67 996 q 82 1084 67 1063 q 128 1106 97 1106 l 128 1106 q 172 1084 157 1106 q 188 1029 188 1063 q 172 974 188 996 q 128 953 157 953 z "},"Æ":{"ha":342,"x_min":6,"x_max":333,"o":"m 333 69 l 333 0 l 158 0 l 158 203 l 92 203 l 81 0 l 6 0 l 67 922 l 328 922 l 328 851 l 235 851 l 235 518 l 318 518 l 318 449 l 235 449 l 235 69 l 333 69 z m 158 851 l 131 851 l 96 269 l 158 269 l 158 851 z "},"Ç":{"ha":251,"x_min":17,"x_max":235,"o":"m 161 108 l 161 108 l 161 376 l 235 376 l 235 113 q 128 -4 235 -4 l 128 -4 q 17 114 17 -4 l 17 114 l 17 806 q 129 926 17 926 l 129 926 q 235 804 235 926 l 235 804 l 235 592 l 161 592 l 161 811 q 128 854 161 854 l 128 854 q 93 813 93 854 l 93 813 l 93 110 q 126 67 93 67 l 126 67 q 161 108 161 67 z m 90 -292 l 90 -292 l 90 -257 q 124 -207 124 -250 l 124 -207 l 124 -149 l 90 -149 l 90 -25 l 157 -25 l 157 -189 q 141 -265 157 -242 q 90 -292 125 -289 z "},"È":{"ha":201,"x_min":17,"x_max":192,"o":"m 192 69 l 192 0 l 17 0 l 17 922 l 186 922 l 186 851 l 93 851 l 93 518 l 176 518 l 176 449 l 93 449 l 93 69 l 192 69 z m 160 982 l 131 953 l 18 1076 l 57 1121 l 160 982 z "},"Ѐ":{"ha":201,"x_min":17,"x_max":192,"o":"m 192 69 l 192 0 l 17 0 l 17 922 l 186 922 l 186 851 l 93 851 l 93 518 l 176 518 l 176 449 l 93 449 l 93 69 l 192 69 z m 160 982 l 131 953 l 18 1076 l 57 1121 l 160 982 z "},"É":{"ha":201,"x_min":17,"x_max":192,"o":"m 192 69 l 192 0 l 17 0 l 17 922 l 186 922 l 186 851 l 93 851 l 93 518 l 176 518 l 176 449 l 93 449 l 93 69 l 192 69 z m 149 1121 l 188 1076 l 75 953 l 46 982 l 149 1121 z "},"Ê":{"ha":201,"x_min":8,"x_max":197,"o":"m 192 69 l 192 0 l 17 0 l 17 922 l 186 922 l 186 851 l 93 851 l 93 518 l 176 518 l 176 449 l 93 449 l 93 69 l 192 69 z m 136 1093 l 197 978 l 165 953 l 103 1050 l 40 953 l 8 978 l 69 1093 l 136 1093 z "},"Ë":{"ha":201,"x_min":14,"x_max":192,"o":"m 192 69 l 192 0 l 17 0 l 17 922 l 186 922 l 186 851 l 93 851 l 93 518 l 176 518 l 176 449 l 93 449 l 93 69 l 192 69 z m 82 1089 l 82 985 l 14 985 l 14 1089 l 82 1089 z m 189 1089 l 189 985 l 121 985 l 121 1089 l 189 1089 z "},"Ё":{"ha":201,"x_min":14,"x_max":192,"o":"m 192 69 l 192 0 l 17 0 l 17 922 l 186 922 l 186 851 l 93 851 l 93 518 l 176 518 l 176 449 l 93 449 l 93 69 l 192 69 z m 82 1089 l 82 985 l 14 985 l 14 1089 l 82 1089 z m 189 1089 l 189 985 l 121 985 l 121 1089 l 189 1089 z "},"Ì":{"ha":121,"x_min":-22,"x_max":119,"o":"m 104 922 l 104 0 l 26 0 l 26 922 l 104 922 z m 119 982 l 90 953 l -22 1076 l 17 1121 l 119 982 z "},"Í":{"ha":125,"x_min":7,"x_max":149,"o":"m 94 922 l 94 0 l 17 0 l 17 922 l 94 922 z m 110 1121 l 149 1076 l 36 953 l 7 982 l 110 1121 z "},"Î":{"ha":153,"x_min":-18,"x_max":171,"o":"m 114 922 l 114 0 l 36 0 l 36 922 l 114 922 z m 110 1093 l 171 978 l 139 953 l 76 1050 l 14 953 l -18 978 l 43 1093 l 110 1093 z "},"Ï":{"ha":146,"x_min":-15,"x_max":160,"o":"m 111 922 l 111 0 l 33 0 l 33 922 l 111 922 z m 53 1085 l 53 981 l -15 981 l -15 1085 l 53 1085 z m 160 1085 l 160 981 l 92 981 l 92 1085 l 160 1085 z "},"Ϊ":{"ha":146,"x_min":-15,"x_max":160,"o":"m 111 922 l 111 0 l 33 0 l 33 922 l 111 922 z m 53 1085 l 53 981 l -15 981 l -15 1085 l 53 1085 z m 160 1085 l 160 981 l 92 981 l 92 1085 l 160 1085 z "},"Ї":{"ha":146,"x_min":-15,"x_max":160,"o":"m 111 922 l 111 0 l 33 0 l 33 922 l 111 922 z m 53 1085 l 53 981 l -15 981 l -15 1085 l 53 1085 z m 160 1085 l 160 981 l 92 981 l 92 1085 l 160 1085 z "},"Ð":{"ha":267,"x_min":3,"x_max":250,"o":"m 143 0 l 143 0 l 26 0 l 26 449 l 3 449 l 3 518 l 26 518 l 26 922 l 143 922 q 250 814 250 922 l 250 814 l 250 114 q 143 0 250 0 z m 103 449 l 103 69 l 139 69 q 172 118 172 69 l 172 118 l 172 808 q 133 851 172 851 l 133 851 l 103 851 l 103 518 l 143 518 l 143 449 l 103 449 z "},"Đ":{"ha":267,"x_min":3,"x_max":250,"o":"m 143 0 l 143 0 l 26 0 l 26 449 l 3 449 l 3 518 l 26 518 l 26 922 l 143 922 q 250 814 250 922 l 250 814 l 250 114 q 143 0 250 0 z m 103 449 l 103 69 l 139 69 q 172 118 172 69 l 172 118 l 172 808 q 133 851 172 851 l 133 851 l 103 851 l 103 518 l 143 518 l 143 449 l 103 449 z "},"Ñ":{"ha":272,"x_min":17,"x_max":256,"o":"m 256 922 l 256 0 l 154 0 l 82 739 l 76 739 q 79 401 79 693 l 79 401 l 79 0 l 17 0 l 17 922 l 128 922 l 189 190 l 194 190 q 190 596 190 361 l 190 596 l 190 922 l 256 922 z m 201 1033 l 201 1033 l 232 1014 q 181 964 219 964 l 181 964 q 138 978 164 964 q 99 993 113 993 l 99 993 q 71 969 76 993 l 71 969 l 39 988 q 92 1038 51 1038 l 92 1038 q 133 1024 107 1038 q 172 1010 160 1010 l 172 1010 q 201 1033 193 1010 z "},"Ò":{"ha":251,"x_min":14,"x_max":236,"o":"m 236 804 l 236 804 l 236 113 q 126 -4 236 -4 l 126 -4 q 14 114 14 -4 l 14 114 l 14 806 q 43 894 14 863 q 125 926 72 926 q 207 894 178 926 q 236 804 236 861 z m 160 108 l 160 108 l 160 811 q 125 854 160 854 q 90 813 90 854 l 90 813 l 90 108 q 125 67 90 67 q 160 108 160 67 z m 183 982 l 154 953 l 42 1076 l 81 1121 l 183 982 z "},"Ó":{"ha":251,"x_min":14,"x_max":236,"o":"m 236 804 l 236 804 l 236 113 q 126 -4 236 -4 l 126 -4 q 14 114 14 -4 l 14 114 l 14 806 q 43 894 14 863 q 125 926 72 926 q 207 894 178 926 q 236 804 236 861 z m 160 108 l 160 108 l 160 811 q 125 854 160 854 q 90 813 90 854 l 90 813 l 90 108 q 125 67 90 67 q 160 108 160 67 z m 171 1121 l 210 1076 l 97 953 l 68 982 l 171 1121 z "},"Ô":{"ha":251,"x_min":14,"x_max":236,"o":"m 236 804 l 236 804 l 236 113 q 126 -4 236 -4 l 126 -4 q 14 114 14 -4 l 14 114 l 14 806 q 43 894 14 863 q 125 926 72 926 q 207 894 178 926 q 236 804 236 861 z m 160 108 l 160 108 l 160 811 q 125 854 160 854 q 90 813 90 854 l 90 813 l 90 108 q 125 67 90 67 q 160 108 160 67 z m 160 1093 l 221 978 l 189 953 l 126 1050 l 64 953 l 32 978 l 93 1093 l 160 1093 z "},"Õ":{"ha":251,"x_min":14,"x_max":236,"o":"m 236 804 l 236 804 l 236 113 q 126 -4 236 -4 l 126 -4 q 14 114 14 -4 l 14 114 l 14 806 q 43 894 14 863 q 125 926 72 926 q 207 894 178 926 q 236 804 236 861 z m 160 108 l 160 108 l 160 811 q 125 854 160 854 q 90 813 90 854 l 90 813 l 90 108 q 125 67 90 67 q 160 108 160 67 z m 192 1033 l 192 1033 l 222 1014 q 171 964 210 964 l 171 964 q 128 978 154 964 q 89 993 103 993 l 89 993 q 61 969 67 993 l 61 969 l 29 988 q 82 1038 42 1038 l 82 1038 q 124 1024 97 1038 q 163 1010 150 1010 l 163 1010 q 192 1033 183 1010 z "},"Ö":{"ha":251,"x_min":14,"x_max":236,"o":"m 236 804 l 236 804 l 236 113 q 126 -4 236 -4 l 126 -4 q 14 114 14 -4 l 14 114 l 14 806 q 43 894 14 863 q 125 926 72 926 q 207 894 178 926 q 236 804 236 861 z m 160 108 l 160 108 l 160 811 q 125 854 160 854 q 90 813 90 854 l 90 813 l 90 108 q 125 67 90 67 q 160 108 160 67 z m 106 1089 l 106 985 l 38 985 l 38 1089 l 106 1089 z m 213 1089 l 213 985 l 144 985 l 144 1089 l 213 1089 z "},"×":{"ha":238,"x_min":21,"x_max":217,"o":"m 175 560 l 217 519 l 160 463 l 217 406 l 176 365 l 118 422 l 61 365 l 21 406 l 78 463 l 21 519 l 63 560 l 118 503 l 175 560 z "},"Ø":{"ha":251,"x_min":14,"x_max":236,"o":"m 69 7 l 65 -15 l 18 -15 l 28 44 q 14 114 14 71 l 14 114 l 14 806 q 43 894 14 863 q 125 926 72 926 l 125 926 q 181 914 158 926 l 181 914 l 185 940 l 233 940 l 221 872 q 236 804 236 844 l 236 804 l 236 113 q 126 -4 236 -4 l 126 -4 q 69 7 94 -4 l 69 7 z m 160 108 l 160 108 l 160 521 l 154 521 l 90 125 q 125 67 90 67 q 160 108 160 67 z m 90 813 l 90 813 l 90 399 l 96 399 l 160 797 q 125 854 160 854 q 90 813 90 854 z "},"Ù":{"ha":256,"x_min":17,"x_max":238,"o":"m 161 108 l 161 108 l 161 922 l 238 922 l 238 114 q 128 -4 238 -4 l 128 -4 q 17 113 17 -4 l 17 113 l 17 922 l 92 922 l 92 108 q 126 67 92 67 q 161 108 161 67 z m 185 982 l 156 953 l 43 1076 l 82 1121 l 185 982 z "},"Ú":{"ha":256,"x_min":17,"x_max":238,"o":"m 161 108 l 161 108 l 161 922 l 238 922 l 238 114 q 128 -4 238 -4 l 128 -4 q 17 113 17 -4 l 17 113 l 17 922 l 92 922 l 92 108 q 126 67 92 67 q 161 108 161 67 z m 172 1121 l 211 1076 l 99 953 l 69 982 l 172 1121 z "},"Û":{"ha":256,"x_min":17,"x_max":238,"o":"m 161 108 l 161 108 l 161 922 l 238 922 l 238 114 q 128 -4 238 -4 l 128 -4 q 17 113 17 -4 l 17 113 l 17 922 l 92 922 l 92 108 q 126 67 92 67 q 161 108 161 67 z m 160 1093 l 221 978 l 189 953 l 126 1050 l 64 953 l 32 978 l 93 1093 l 160 1093 z "},"Ü":{"ha":256,"x_min":17,"x_max":238,"o":"m 161 108 l 161 108 l 161 922 l 238 922 l 238 114 q 128 -4 238 -4 l 128 -4 q 17 113 17 -4 l 17 113 l 17 922 l 92 922 l 92 108 q 126 67 92 67 q 161 108 161 67 z m 108 1089 l 108 985 l 40 985 l 40 1089 l 108 1089 z m 215 1089 l 215 985 l 147 985 l 147 1089 l 215 1089 z "},"Ý":{"ha":256,"x_min":4,"x_max":251,"o":"m 168 381 l 168 0 l 90 0 l 90 381 l 4 922 l 83 922 l 126 575 l 132 575 l 172 922 l 251 922 l 168 381 z m 176 1121 l 215 1076 l 103 953 l 74 982 l 176 1121 z "},"Þ":{"ha":251,"x_min":17,"x_max":236,"o":"m 94 0 l 17 0 l 17 922 l 94 922 l 94 785 l 147 785 q 236 690 236 785 l 236 690 l 236 279 q 147 186 236 186 l 147 186 l 94 186 l 94 0 z m 131 718 l 131 718 l 94 718 l 94 253 l 131 253 q 163 293 163 253 l 163 293 l 163 679 q 131 718 163 718 z "},"ß":{"ha":264,"x_min":17,"x_max":249,"o":"m 176 103 l 176 103 l 176 438 q 169 467 176 458 q 139 475 161 475 l 139 475 l 114 475 l 114 538 l 126 538 q 157 571 157 538 l 157 571 l 157 833 q 124 871 157 871 l 124 871 q 89 831 89 871 l 89 831 l 89 0 l 17 0 l 17 832 q 43 912 17 886 q 128 938 69 938 l 128 938 q 235 844 235 938 l 235 844 l 235 583 q 188 510 235 518 l 188 510 l 188 504 q 249 413 249 494 l 249 413 l 249 103 q 225 22 249 47 q 146 -4 201 -4 l 146 -4 q 110 1 125 -4 l 110 1 l 110 63 q 135 58 122 58 l 135 58 q 176 103 176 58 z "},"à":{"ha":246,"x_min":13,"x_max":228,"o":"m 156 88 l 156 88 l 156 356 q 118 339 150 350 q 86 292 86 328 l 86 292 l 86 93 q 117 60 86 60 l 117 60 q 156 88 144 60 z m 228 599 l 228 0 l 160 0 l 158 35 l 153 35 q 83 -4 131 -4 l 83 -4 q 13 75 13 -4 l 13 75 l 13 278 q 31 346 13 325 q 99 383 49 367 l 99 383 q 142 401 129 393 q 154 425 154 408 l 154 425 l 154 588 q 122 614 154 614 l 122 614 q 88 585 88 614 l 88 585 l 88 457 l 18 457 l 18 593 q 128 679 18 679 l 128 679 q 228 599 228 679 l 228 599 z m 181 733 l 151 704 l 39 828 l 78 872 l 181 733 z "},"á":{"ha":246,"x_min":13,"x_max":228,"o":"m 156 88 l 156 88 l 156 356 q 118 339 150 350 q 86 292 86 328 l 86 292 l 86 93 q 117 60 86 60 l 117 60 q 156 88 144 60 z m 228 599 l 228 0 l 160 0 l 158 35 l 153 35 q 83 -4 131 -4 l 83 -4 q 13 75 13 -4 l 13 75 l 13 278 q 31 346 13 325 q 99 383 49 367 l 99 383 q 142 401 129 393 q 154 425 154 408 l 154 425 l 154 588 q 122 614 154 614 l 122 614 q 88 585 88 614 l 88 585 l 88 457 l 18 457 l 18 593 q 128 679 18 679 l 128 679 q 228 599 228 679 l 228 599 z m 167 872 l 206 828 l 93 704 l 64 733 l 167 872 z "},"â":{"ha":246,"x_min":13,"x_max":228,"o":"m 156 88 l 156 88 l 156 356 q 118 339 150 350 q 86 292 86 328 l 86 292 l 86 93 q 117 60 86 60 l 117 60 q 156 88 144 60 z m 228 599 l 228 0 l 160 0 l 158 35 l 153 35 q 83 -4 131 -4 l 83 -4 q 13 75 13 -4 l 13 75 l 13 278 q 31 346 13 325 q 99 383 49 367 l 99 383 q 142 401 129 393 q 154 425 154 408 l 154 425 l 154 588 q 122 614 154 614 l 122 614 q 88 585 88 614 l 88 585 l 88 457 l 18 457 l 18 593 q 128 679 18 679 l 128 679 q 228 599 228 679 l 228 599 z m 154 844 l 215 729 l 183 704 l 121 801 l 58 704 l 26 729 l 88 844 l 154 844 z "},"ã":{"ha":246,"x_min":13,"x_max":228,"o":"m 156 88 l 156 88 l 156 356 q 118 339 150 350 q 86 292 86 328 l 86 292 l 86 93 q 117 60 86 60 l 117 60 q 156 88 144 60 z m 228 599 l 228 0 l 160 0 l 158 35 l 153 35 q 83 -4 131 -4 l 83 -4 q 13 75 13 -4 l 13 75 l 13 278 q 31 346 13 325 q 99 383 49 367 l 99 383 q 142 401 129 393 q 154 425 154 408 l 154 425 l 154 588 q 122 614 154 614 l 122 614 q 88 585 88 614 l 88 585 l 88 457 l 18 457 l 18 593 q 128 679 18 679 l 128 679 q 228 599 228 679 l 228 599 z m 188 785 l 188 785 l 218 765 q 167 715 206 715 l 167 715 q 124 730 150 715 q 85 744 99 744 l 85 744 q 57 721 63 744 l 57 721 l 25 739 q 78 789 38 789 l 78 789 q 119 775 93 789 q 158 761 146 761 l 158 761 q 188 785 179 761 z "},"ä":{"ha":246,"x_min":13,"x_max":228,"o":"m 156 88 l 156 88 l 156 356 q 118 339 150 350 q 86 292 86 328 l 86 292 l 86 93 q 117 60 86 60 l 117 60 q 156 88 144 60 z m 228 599 l 228 0 l 160 0 l 158 35 l 153 35 q 83 -4 131 -4 l 83 -4 q 13 75 13 -4 l 13 75 l 13 278 q 31 346 13 325 q 99 383 49 367 l 99 383 q 142 401 129 393 q 154 425 154 408 l 154 425 l 154 588 q 122 614 154 614 l 122 614 q 88 585 88 614 l 88 585 l 88 457 l 18 457 l 18 593 q 128 679 18 679 l 128 679 q 228 599 228 679 l 228 599 z m 103 840 l 103 736 l 35 736 l 35 840 l 103 840 z m 210 840 l 210 736 l 142 736 l 142 840 l 210 840 z "},"å":{"ha":246,"x_min":13,"x_max":228,"o":"m 156 88 l 156 88 l 156 356 q 118 339 150 350 q 86 292 86 328 l 86 292 l 86 93 q 117 60 86 60 l 117 60 q 156 88 144 60 z m 228 599 l 228 0 l 160 0 l 158 35 l 153 35 q 83 -4 131 -4 l 83 -4 q 13 75 13 -4 l 13 75 l 13 278 q 31 346 13 325 q 99 383 49 367 l 99 383 q 142 401 129 393 q 154 425 154 408 l 154 425 l 154 588 q 122 614 154 614 l 122 614 q 88 585 88 614 l 88 585 l 88 457 l 18 457 l 18 593 q 128 679 18 679 l 128 679 q 228 599 228 679 l 228 599 z m 125 736 l 125 736 q 153 781 153 736 l 153 781 q 125 826 153 826 l 125 826 q 96 781 96 826 l 96 781 q 125 736 96 736 z m 125 704 l 125 704 q 79 726 94 704 q 64 781 64 747 q 79 835 64 814 q 125 857 94 857 l 125 857 q 169 835 154 857 q 185 781 185 814 q 169 726 185 747 q 125 704 154 704 z "},"æ":{"ha":385,"x_min":13,"x_max":368,"o":"m 294 231 l 368 231 l 368 101 q 260 -4 368 -4 l 260 -4 q 165 46 185 -4 l 165 46 l 161 46 q 85 -4 135 -4 l 85 -4 q 13 75 13 -4 l 13 75 l 13 278 q 31 347 13 328 q 99 383 50 367 l 99 383 q 142 401 129 393 q 154 425 154 408 l 154 425 l 154 588 q 122 614 154 614 l 122 614 q 88 585 88 614 l 88 585 l 88 457 l 18 457 l 18 593 q 126 679 18 679 l 126 679 q 196 663 172 679 l 196 663 q 261 679 219 679 l 261 679 q 368 572 368 679 l 368 572 l 368 322 l 228 322 l 228 100 q 261 60 228 60 q 294 100 294 60 l 294 100 l 294 231 z m 156 88 l 156 88 l 156 356 q 118 339 150 350 q 86 292 86 328 l 86 292 l 86 93 q 117 60 86 60 l 117 60 q 156 88 144 60 z m 228 375 l 294 375 l 294 574 q 261 613 294 613 q 228 574 228 613 l 228 574 l 228 375 z "},"ç":{"ha":246,"x_min":18,"x_max":226,"o":"m 157 101 l 157 101 l 157 247 l 226 247 l 226 101 q 124 -4 226 -4 l 124 -4 q 18 101 18 -4 l 18 101 l 18 572 q 124 679 18 679 l 124 679 q 226 572 226 679 l 226 572 l 226 431 l 157 431 l 157 572 q 124 613 157 613 q 90 572 90 613 l 90 572 l 90 101 q 124 63 90 63 q 157 101 157 63 z m 89 -292 l 89 -292 l 89 -257 q 122 -207 122 -250 l 122 -207 l 122 -149 l 89 -149 l 89 -25 l 156 -25 l 156 -189 q 140 -265 156 -242 q 89 -292 124 -289 z "},"è":{"ha":249,"x_min":18,"x_max":231,"o":"m 157 231 l 231 231 l 231 101 q 124 -4 231 -4 l 124 -4 q 18 101 18 -4 l 18 101 l 18 572 q 124 679 18 679 l 124 679 q 231 572 231 679 l 231 572 l 231 322 l 90 322 l 90 100 q 124 60 90 60 q 157 100 157 60 l 157 100 l 157 231 z m 90 375 l 157 375 l 157 574 q 124 613 157 613 q 90 574 90 613 l 90 574 l 90 375 z m 182 733 l 153 704 l 40 828 l 79 872 l 182 733 z "},"ѐ":{"ha":249,"x_min":18,"x_max":231,"o":"m 157 231 l 231 231 l 231 101 q 124 -4 231 -4 l 124 -4 q 18 101 18 -4 l 18 101 l 18 572 q 124 679 18 679 l 124 679 q 231 572 231 679 l 231 572 l 231 322 l 90 322 l 90 100 q 124 60 90 60 q 157 100 157 60 l 157 100 l 157 231 z m 90 375 l 157 375 l 157 574 q 124 613 157 613 q 90 574 90 613 l 90 574 l 90 375 z m 182 733 l 153 704 l 40 828 l 79 872 l 182 733 z "},"é":{"ha":249,"x_min":18,"x_max":231,"o":"m 157 231 l 231 231 l 231 101 q 124 -4 231 -4 l 124 -4 q 18 101 18 -4 l 18 101 l 18 572 q 124 679 18 679 l 124 679 q 231 572 231 679 l 231 572 l 231 322 l 90 322 l 90 100 q 124 60 90 60 q 157 100 157 60 l 157 100 l 157 231 z m 90 375 l 157 375 l 157 574 q 124 613 157 613 q 90 574 90 613 l 90 574 l 90 375 z m 169 872 l 208 828 l 96 704 l 67 733 l 169 872 z "},"ê":{"ha":249,"x_min":18,"x_max":231,"o":"m 157 231 l 231 231 l 231 101 q 124 -4 231 -4 l 124 -4 q 18 101 18 -4 l 18 101 l 18 572 q 124 679 18 679 l 124 679 q 231 572 231 679 l 231 572 l 231 322 l 90 322 l 90 100 q 124 60 90 60 q 157 100 157 60 l 157 100 l 157 231 z m 90 375 l 157 375 l 157 574 q 124 613 157 613 q 90 574 90 613 l 90 574 l 90 375 z m 157 844 l 218 729 l 186 704 l 124 801 l 61 704 l 29 729 l 90 844 l 157 844 z "},"ë":{"ha":249,"x_min":18,"x_max":231,"o":"m 157 231 l 231 231 l 231 101 q 124 -4 231 -4 l 124 -4 q 18 101 18 -4 l 18 101 l 18 572 q 124 679 18 679 l 124 679 q 231 572 231 679 l 231 572 l 231 322 l 90 322 l 90 100 q 124 60 90 60 q 157 100 157 60 l 157 100 l 157 231 z m 90 375 l 157 375 l 157 574 q 124 613 157 613 q 90 574 90 613 l 90 574 l 90 375 z m 106 840 l 106 736 l 38 736 l 38 840 l 106 840 z m 213 840 l 213 736 l 144 736 l 144 840 l 213 840 z "},"ё":{"ha":249,"x_min":18,"x_max":231,"o":"m 157 231 l 231 231 l 231 101 q 124 -4 231 -4 l 124 -4 q 18 101 18 -4 l 18 101 l 18 572 q 124 679 18 679 l 124 679 q 231 572 231 679 l 231 572 l 231 322 l 90 322 l 90 100 q 124 60 90 60 q 157 100 157 60 l 157 100 l 157 231 z m 90 375 l 157 375 l 157 574 q 124 613 157 613 q 90 574 90 613 l 90 574 l 90 375 z m 106 840 l 106 736 l 38 736 l 38 840 l 106 840 z m 213 840 l 213 736 l 144 736 l 144 840 l 213 840 z "},"ì":{"ha":135,"x_min":-6,"x_max":136,"o":"m 136 733 l 107 704 l -6 828 l 33 872 l 136 733 z m 115 675 l 115 0 l 42 0 l 42 675 l 115 675 z "},"í":{"ha":140,"x_min":3,"x_max":144,"o":"m 106 872 l 144 828 l 32 704 l 3 733 l 106 872 z m 92 675 l 92 0 l 18 0 l 18 675 l 92 675 z "},"î":{"ha":174,"x_min":-8,"x_max":181,"o":"m 122 675 l 122 0 l 49 0 l 49 675 l 122 675 z m 119 844 l 181 729 l 149 704 l 86 801 l 24 704 l -8 729 l 53 844 l 119 844 z "},"ï":{"ha":149,"x_min":-14,"x_max":161,"o":"m 54 840 l 54 736 l -14 736 l -14 840 l 54 840 z m 161 840 l 161 736 l 93 736 l 93 840 l 161 840 z m 110 675 l 110 0 l 36 0 l 36 675 l 110 675 z "},"ї":{"ha":149,"x_min":-14,"x_max":161,"o":"m 54 840 l 54 736 l -14 736 l -14 840 l 54 840 z m 161 840 l 161 736 l 93 736 l 93 840 l 161 840 z m 110 675 l 110 0 l 36 0 l 36 675 l 110 675 z "},"ð":{"ha":251,"x_min":18,"x_max":233,"o":"m 185 867 l 233 904 l 233 868 l 197 839 q 233 649 233 753 l 233 649 l 233 150 q 213 29 233 63 q 124 -4 193 -4 l 124 -4 q 37 25 56 -4 q 18 122 18 54 l 18 122 l 18 578 q 38 638 18 617 q 93 658 58 658 l 93 658 q 158 621 139 658 l 158 621 l 164 621 l 164 676 q 143 796 164 731 l 143 796 l 64 733 l 64 771 l 132 825 q 60 933 100 906 l 60 933 l 126 933 q 185 867 160 914 l 185 867 z m 129 60 l 129 60 q 161 94 161 60 l 161 94 l 161 564 q 125 594 151 594 l 125 594 q 99 579 106 594 q 93 510 93 564 l 93 510 l 93 94 q 129 60 93 60 z "},"ñ":{"ha":253,"x_min":18,"x_max":235,"o":"m 235 592 l 235 0 l 160 0 l 160 578 q 128 614 160 614 l 128 614 q 92 579 104 614 l 92 579 l 92 0 l 18 0 l 18 675 l 88 675 l 89 632 l 94 632 q 165 679 117 679 l 165 679 q 235 592 235 679 l 235 592 z m 192 785 l 192 785 l 222 765 q 171 715 210 715 l 171 715 q 128 730 154 715 q 89 744 103 744 l 89 744 q 61 721 67 744 l 61 721 l 29 739 q 82 789 42 789 l 82 789 q 124 775 97 789 q 163 761 150 761 l 163 761 q 192 785 183 761 z "},"ò":{"ha":249,"x_min":18,"x_max":229,"o":"m 229 572 l 229 572 l 229 101 q 124 -4 229 -4 q 18 101 18 -4 l 18 101 l 18 572 q 124 679 18 679 q 229 572 229 679 z m 157 101 l 157 101 l 157 572 q 124 613 157 613 q 90 572 90 613 l 90 572 l 90 101 q 124 63 90 63 q 157 101 157 63 z m 182 733 l 153 704 l 40 828 l 79 872 l 182 733 z "},"ó":{"ha":249,"x_min":18,"x_max":229,"o":"m 229 572 l 229 572 l 229 101 q 124 -4 229 -4 q 18 101 18 -4 l 18 101 l 18 572 q 124 679 18 679 q 229 572 229 679 z m 157 101 l 157 101 l 157 572 q 124 613 157 613 q 90 572 90 613 l 90 572 l 90 101 q 124 63 90 63 q 157 101 157 63 z m 169 872 l 208 828 l 96 704 l 67 733 l 169 872 z "},"ô":{"ha":249,"x_min":18,"x_max":229,"o":"m 229 572 l 229 572 l 229 101 q 124 -4 229 -4 q 18 101 18 -4 l 18 101 l 18 572 q 124 679 18 679 q 229 572 229 679 z m 157 101 l 157 101 l 157 572 q 124 613 157 613 q 90 572 90 613 l 90 572 l 90 101 q 124 63 90 63 q 157 101 157 63 z m 158 844 l 219 729 l 188 704 l 125 801 l 63 704 l 31 729 l 92 844 l 158 844 z "},"õ":{"ha":249,"x_min":18,"x_max":229,"o":"m 229 572 l 229 572 l 229 101 q 124 -4 229 -4 q 18 101 18 -4 l 18 101 l 18 572 q 124 679 18 679 q 229 572 229 679 z m 157 101 l 157 101 l 157 572 q 124 613 157 613 q 90 572 90 613 l 90 572 l 90 101 q 124 63 90 63 q 157 101 157 63 z m 189 785 l 189 785 l 219 765 q 168 715 207 715 l 168 715 q 126 730 151 715 q 86 744 100 744 l 86 744 q 58 721 64 744 l 58 721 l 26 739 q 79 789 39 789 l 79 789 q 121 775 94 789 q 160 761 147 761 l 160 761 q 189 785 181 761 z "},"ö":{"ha":249,"x_min":18,"x_max":229,"o":"m 229 572 l 229 572 l 229 101 q 124 -4 229 -4 q 18 101 18 -4 l 18 101 l 18 572 q 124 679 18 679 q 229 572 229 679 z m 157 101 l 157 101 l 157 572 q 124 613 157 613 q 90 572 90 613 l 90 572 l 90 101 q 124 63 90 63 q 157 101 157 63 z m 104 840 l 104 736 l 36 736 l 36 840 l 104 840 z m 211 840 l 211 736 l 143 736 l 143 840 l 211 840 z "},"÷":{"ha":238,"x_min":17,"x_max":221,"o":"m 221 492 l 221 435 l 17 435 l 17 492 l 221 492 z m 156 361 l 156 257 l 81 257 l 81 361 l 156 361 z m 156 671 l 156 567 l 81 567 l 81 671 l 156 671 z "},"ø":{"ha":249,"x_min":18,"x_max":229,"o":"m 68 4 l 64 -14 l 19 -14 l 31 38 q 18 101 18 63 l 18 101 l 18 572 q 124 679 18 679 l 124 679 q 178 669 157 679 l 178 669 l 182 689 l 228 689 l 215 636 q 229 572 229 608 l 229 572 l 229 101 q 124 -4 229 -4 l 124 -4 q 68 4 92 -4 l 68 4 z m 157 101 l 157 101 l 157 385 l 151 385 l 90 100 q 124 63 90 63 q 157 101 157 63 z m 90 572 l 90 572 l 90 293 l 96 293 l 157 581 q 124 613 153 613 l 124 613 q 90 572 90 613 z "},"ù":{"ha":251,"x_min":18,"x_max":233,"o":"m 18 106 l 18 675 l 93 675 l 93 106 q 124 60 93 60 q 160 107 154 60 l 160 107 l 160 675 l 233 675 l 233 0 l 164 0 l 163 42 l 157 42 q 131 6 144 17 q 92 -4 117 -4 l 92 -4 q 32 24 46 -4 q 18 106 18 53 l 18 106 z m 185 733 l 156 704 l 43 828 l 82 872 l 185 733 z "},"ú":{"ha":251,"x_min":18,"x_max":233,"o":"m 18 106 l 18 675 l 93 675 l 93 106 q 124 60 93 60 q 160 107 154 60 l 160 107 l 160 675 l 233 675 l 233 0 l 164 0 l 163 42 l 157 42 q 131 6 144 17 q 92 -4 117 -4 l 92 -4 q 32 24 46 -4 q 18 106 18 53 l 18 106 z m 171 872 l 210 828 l 97 704 l 68 733 l 171 872 z "},"û":{"ha":251,"x_min":18,"x_max":233,"o":"m 18 106 l 18 675 l 93 675 l 93 106 q 124 60 93 60 q 160 107 154 60 l 160 107 l 160 675 l 233 675 l 233 0 l 164 0 l 163 42 l 157 42 q 131 6 144 17 q 92 -4 117 -4 l 92 -4 q 32 24 46 -4 q 18 106 18 53 l 18 106 z m 160 844 l 221 729 l 189 704 l 126 801 l 64 704 l 32 729 l 93 844 l 160 844 z "},"ü":{"ha":251,"x_min":18,"x_max":233,"o":"m 18 106 l 18 675 l 93 675 l 93 106 q 124 60 93 60 q 160 107 154 60 l 160 107 l 160 675 l 233 675 l 233 0 l 164 0 l 163 42 l 157 42 q 131 6 144 17 q 92 -4 117 -4 l 92 -4 q 32 24 46 -4 q 18 106 18 53 l 18 106 z m 106 840 l 106 736 l 38 736 l 38 840 l 106 840 z m 213 840 l 213 736 l 144 736 l 144 840 l 213 840 z "},"ý":{"ha":251,"x_min":18,"x_max":232,"o":"m 18 675 l 93 675 l 93 107 q 125 68 93 68 l 125 68 q 161 111 153 68 l 161 111 l 161 675 l 232 675 l 232 -218 q 125 -324 232 -324 l 125 -324 q 19 -218 19 -324 l 19 -218 l 19 -42 l 92 -42 l 92 -218 q 125 -257 92 -257 q 158 -218 158 -257 l 158 -218 l 158 39 l 154 39 q 92 0 136 0 l 92 0 q 18 104 18 0 l 18 104 l 18 675 z m 171 872 l 210 828 l 97 704 l 68 733 l 171 872 z "},"þ":{"ha":251,"x_min":18,"x_max":232,"o":"m 90 35 l 90 -324 l 18 -324 l 18 933 l 90 933 l 90 640 l 96 640 q 160 676 113 676 l 160 676 q 217 643 201 676 q 232 549 232 610 l 232 549 l 232 140 q 231 93 232 108 q 227 56 231 78 q 217 23 224 33 q 195 4 210 13 q 160 -4 181 -4 l 160 -4 q 96 35 113 -4 l 96 35 l 90 35 z m 158 100 l 158 100 l 158 575 q 126 614 158 614 l 126 614 q 102 600 110 614 q 90 553 94 586 l 90 553 l 90 111 q 128 60 99 60 l 128 60 q 158 100 158 60 z "},"ÿ":{"ha":251,"x_min":18,"x_max":232,"o":"m 18 675 l 93 675 l 93 107 q 125 68 93 68 l 125 68 q 161 111 153 68 l 161 111 l 161 675 l 232 675 l 232 -218 q 125 -324 232 -324 l 125 -324 q 19 -218 19 -324 l 19 -218 l 19 -42 l 92 -42 l 92 -218 q 125 -257 92 -257 q 158 -218 158 -257 l 158 -218 l 158 39 l 154 39 q 92 0 136 0 l 92 0 q 18 104 18 0 l 18 104 l 18 675 z m 108 840 l 108 736 l 40 736 l 40 840 l 108 840 z m 215 840 l 215 736 l 147 736 l 147 840 l 215 840 z "},"Ā":{"ha":258,"x_min":6,"x_max":251,"o":"m 189 922 l 251 0 l 175 0 l 161 238 l 93 238 l 81 0 l 6 0 l 67 922 l 189 922 z m 131 789 l 125 789 l 97 304 l 157 304 l 131 789 z m 210 1036 l 210 989 l 44 989 l 44 1036 l 210 1036 z "},"ā":{"ha":246,"x_min":13,"x_max":228,"o":"m 156 88 l 156 88 l 156 356 q 118 339 150 350 q 86 292 86 328 l 86 292 l 86 93 q 117 60 86 60 l 117 60 q 156 88 144 60 z m 228 599 l 228 0 l 160 0 l 158 35 l 153 35 q 83 -4 131 -4 l 83 -4 q 13 75 13 -4 l 13 75 l 13 278 q 31 346 13 325 q 99 383 49 367 l 99 383 q 142 401 129 393 q 154 425 154 408 l 154 425 l 154 588 q 122 614 154 614 l 122 614 q 88 585 88 614 l 88 585 l 88 457 l 18 457 l 18 593 q 128 679 18 679 l 128 679 q 228 599 228 679 l 228 599 z m 204 788 l 204 740 l 39 740 l 39 788 l 204 788 z "},"Ă":{"ha":258,"x_min":6,"x_max":251,"o":"m 189 922 l 251 0 l 175 0 l 161 238 l 93 238 l 81 0 l 6 0 l 67 922 l 189 922 z m 131 789 l 125 789 l 97 304 l 157 304 l 131 789 z m 197 991 q 126 953 169 953 q 56 992 83 953 q 29 1093 29 1031 l 29 1093 l 83 1093 q 126 1000 85 1000 l 126 1000 q 169 1093 165 1000 l 169 1093 l 224 1093 q 197 991 224 1029 z "},"ă":{"ha":246,"x_min":13,"x_max":228,"o":"m 156 88 l 156 88 l 156 356 q 118 339 150 350 q 86 292 86 328 l 86 292 l 86 93 q 117 60 86 60 l 117 60 q 156 88 144 60 z m 228 599 l 228 0 l 160 0 l 158 35 l 153 35 q 83 -4 131 -4 l 83 -4 q 13 75 13 -4 l 13 75 l 13 278 q 31 346 13 325 q 99 383 49 367 l 99 383 q 142 401 129 393 q 154 425 154 408 l 154 425 l 154 588 q 122 614 154 614 l 122 614 q 88 585 88 614 l 88 585 l 88 457 l 18 457 l 18 593 q 128 679 18 679 l 128 679 q 228 599 228 679 l 228 599 z m 190 742 q 119 704 163 704 q 49 743 76 704 q 22 844 22 782 l 22 844 l 76 844 q 119 751 78 751 l 119 751 q 163 844 158 751 l 163 844 l 217 844 q 190 742 217 781 z "},"Ą":{"ha":258,"x_min":6,"x_max":251,"o":"m 250 -222 l 250 -222 l 250 -282 q 204 -292 232 -292 l 204 -292 q 153 -272 168 -292 q 138 -199 138 -253 l 138 -199 l 138 -154 q 207 -10 138 -57 l 207 -10 l 207 0 l 175 0 l 161 238 l 93 238 l 81 0 l 6 0 l 67 922 l 189 922 l 251 0 q 203 -59 217 -28 q 189 -140 189 -90 l 189 -140 l 189 -186 q 195 -219 189 -211 q 219 -226 201 -226 q 250 -222 238 -226 z m 131 789 l 125 789 l 97 304 l 157 304 l 131 789 z "},"ą":{"ha":246,"x_min":13,"x_max":228,"o":"m 226 -222 l 226 -222 l 226 -282 q 181 -292 211 -292 l 181 -292 q 130 -272 146 -292 q 114 -199 114 -253 l 114 -199 l 114 -154 q 186 -8 114 -53 l 186 -8 l 186 0 l 160 0 l 158 35 l 153 35 q 83 -4 131 -4 l 83 -4 q 13 75 13 -4 l 13 75 l 13 278 q 31 347 13 325 q 99 383 50 368 l 99 383 q 130 394 122 390 q 146 405 138 397 q 154 424 154 413 l 154 424 l 154 588 q 122 614 154 614 l 122 614 q 88 585 88 614 l 88 585 l 88 457 l 18 457 l 18 593 q 128 679 18 679 l 128 679 q 228 599 228 679 l 228 599 l 228 0 q 179 -59 193 -28 q 165 -140 165 -90 l 165 -140 l 165 -186 q 172 -219 165 -211 q 196 -226 179 -226 l 196 -226 q 226 -222 217 -226 z m 156 88 l 156 88 l 156 356 q 118 339 149 350 l 118 339 q 86 292 86 328 l 86 292 l 86 93 q 117 60 86 60 l 117 60 q 156 88 144 60 z "},"Ć":{"ha":251,"x_min":17,"x_max":235,"o":"m 161 108 l 161 108 l 161 376 l 235 376 l 235 113 q 128 -4 235 -4 l 128 -4 q 17 114 17 -4 l 17 114 l 17 806 q 129 926 17 926 l 129 926 q 235 804 235 926 l 235 804 l 235 592 l 161 592 l 161 811 q 128 854 161 854 l 128 854 q 93 813 93 854 l 93 813 l 93 110 q 126 67 93 67 l 126 67 q 161 108 161 67 z m 172 1121 l 211 1076 l 99 953 l 69 982 l 172 1121 z "},"ć":{"ha":246,"x_min":18,"x_max":226,"o":"m 157 101 l 157 101 l 157 247 l 226 247 l 226 101 q 124 -4 226 -4 l 124 -4 q 18 101 18 -4 l 18 101 l 18 572 q 124 679 18 679 l 124 679 q 226 572 226 679 l 226 572 l 226 431 l 157 431 l 157 572 q 124 613 157 613 q 90 572 90 613 l 90 572 l 90 101 q 124 63 90 63 q 157 101 157 63 z m 168 872 l 207 828 l 94 704 l 65 733 l 168 872 z "},"Ċ":{"ha":251,"x_min":17,"x_max":235,"o":"m 161 108 l 161 108 l 161 376 l 235 376 l 235 113 q 128 -4 235 -4 l 128 -4 q 17 114 17 -4 l 17 114 l 17 806 q 129 926 17 926 l 129 926 q 235 804 235 926 l 235 804 l 235 592 l 161 592 l 161 811 q 128 854 161 854 l 128 854 q 93 813 93 854 l 93 813 l 93 110 q 126 67 93 67 l 126 67 q 161 108 161 67 z m 163 1089 l 163 985 l 89 985 l 89 1089 l 163 1089 z "},"ċ":{"ha":246,"x_min":18,"x_max":226,"o":"m 157 101 l 157 101 l 157 247 l 226 247 l 226 101 q 124 -4 226 -4 l 124 -4 q 18 101 18 -4 l 18 101 l 18 572 q 124 679 18 679 l 124 679 q 226 572 226 679 l 226 572 l 226 431 l 157 431 l 157 572 q 124 613 157 613 q 90 572 90 613 l 90 572 l 90 101 q 124 63 90 63 q 157 101 157 63 z m 160 840 l 160 736 l 86 736 l 86 840 l 160 840 z "},"Č":{"ha":251,"x_min":17,"x_max":235,"o":"m 161 108 l 161 108 l 161 376 l 235 376 l 235 113 q 128 -4 235 -4 l 128 -4 q 17 114 17 -4 l 17 114 l 17 806 q 129 926 17 926 l 129 926 q 235 804 235 926 l 235 804 l 235 592 l 161 592 l 161 811 q 128 854 161 854 l 128 854 q 93 813 93 854 l 93 813 l 93 110 q 126 67 93 67 l 126 67 q 161 108 161 67 z m 221 1063 l 160 965 l 93 965 l 32 1063 l 64 1089 l 126 1010 l 189 1089 l 221 1063 z "},"č":{"ha":246,"x_min":18,"x_max":226,"o":"m 157 101 l 157 101 l 157 247 l 226 247 l 226 101 q 124 -4 226 -4 l 124 -4 q 18 101 18 -4 l 18 101 l 18 572 q 124 679 18 679 l 124 679 q 226 572 226 679 l 226 572 l 226 431 l 157 431 l 157 572 q 124 613 157 613 q 90 572 90 613 l 90 572 l 90 101 q 124 63 90 63 q 157 101 157 63 z m 218 814 l 157 717 l 90 717 l 29 814 l 61 840 l 124 761 l 186 840 l 218 814 z "},"Ď":{"ha":257,"x_min":17,"x_max":239,"o":"m 132 0 l 132 0 l 17 0 l 17 922 l 132 922 q 239 814 239 922 l 239 814 l 239 114 q 132 0 239 0 z m 93 851 l 93 69 l 128 69 q 161 118 161 69 l 161 118 l 161 808 q 122 851 161 851 l 122 851 l 93 851 z m 221 1063 l 160 965 l 93 965 l 32 1063 l 64 1089 l 126 1010 l 189 1089 l 221 1063 z "},"ď":{"ha":332,"x_min":18,"x_max":325,"o":"m 93 575 l 93 575 l 93 100 q 125 60 93 60 l 125 60 q 161 104 153 60 l 161 104 l 161 567 q 150 603 157 593 q 126 614 143 614 l 126 614 q 93 575 93 614 z m 232 933 l 232 0 l 167 0 l 164 42 l 158 42 q 93 -4 142 -4 l 93 -4 q 38 18 58 -4 q 18 81 18 40 l 18 81 l 18 593 q 38 656 18 633 q 94 679 58 679 l 94 679 q 153 640 135 679 l 153 640 l 158 640 l 158 933 l 232 933 z m 250 644 l 250 644 l 250 686 q 283 749 283 708 l 283 749 l 283 818 l 250 818 l 250 933 l 325 933 l 325 760 q 250 644 325 661 z "},"đ":{"ha":251,"x_min":18,"x_max":250,"o":"m 232 757 l 232 0 l 167 0 l 164 42 l 158 42 q 93 -4 142 -4 l 93 -4 q 38 18 58 -4 q 18 81 18 40 l 18 81 l 18 593 q 38 656 18 633 q 94 679 58 679 l 94 679 q 153 640 135 679 l 153 640 l 158 640 l 158 757 l 85 757 l 85 804 l 158 804 l 158 933 l 232 933 l 232 804 l 250 804 l 250 757 l 232 757 z m 93 575 l 93 575 l 93 100 q 125 60 93 60 l 125 60 q 161 104 153 60 l 161 104 l 161 567 q 150 603 157 593 q 126 614 143 614 l 126 614 q 93 575 93 614 z "},"Ē":{"ha":201,"x_min":17,"x_max":192,"o":"m 192 69 l 192 0 l 17 0 l 17 922 l 186 922 l 186 851 l 93 851 l 93 518 l 176 518 l 176 449 l 93 449 l 93 69 l 192 69 z m 186 1036 l 186 989 l 21 989 l 21 1036 l 186 1036 z "},"ē":{"ha":249,"x_min":18,"x_max":231,"o":"m 157 231 l 231 231 l 231 101 q 124 -4 231 -4 l 124 -4 q 18 101 18 -4 l 18 101 l 18 572 q 124 679 18 679 l 124 679 q 231 572 231 679 l 231 572 l 231 322 l 90 322 l 90 100 q 124 60 90 60 q 157 100 157 60 l 157 100 l 157 231 z m 90 375 l 157 375 l 157 574 q 124 613 157 613 q 90 574 90 613 l 90 574 l 90 375 z m 207 788 l 207 740 l 42 740 l 42 788 l 207 788 z "},"Ĕ":{"ha":201,"x_min":10,"x_max":204,"o":"m 192 69 l 192 0 l 17 0 l 17 922 l 186 922 l 186 851 l 93 851 l 93 518 l 176 518 l 176 449 l 93 449 l 93 69 l 192 69 z m 177 991 q 107 953 150 953 q 37 992 64 953 q 10 1093 10 1031 l 10 1093 l 64 1093 q 107 1000 65 1000 l 107 1000 q 150 1093 146 1000 l 150 1093 l 204 1093 q 177 991 204 1029 z "},"ĕ":{"ha":249,"x_min":18,"x_max":231,"o":"m 157 231 l 231 231 l 231 101 q 124 -4 231 -4 l 124 -4 q 18 101 18 -4 l 18 101 l 18 572 q 124 679 18 679 l 124 679 q 231 572 231 679 l 231 572 l 231 322 l 90 322 l 90 100 q 124 60 90 60 q 157 100 157 60 l 157 100 l 157 231 z m 90 375 l 157 375 l 157 574 q 124 613 157 613 q 90 574 90 613 l 90 574 l 90 375 z m 194 742 q 124 704 167 704 q 53 743 81 704 q 26 844 26 782 l 26 844 l 81 844 q 124 751 82 751 l 124 751 q 167 844 163 751 l 167 844 l 221 844 q 194 742 221 781 z "},"Ė":{"ha":201,"x_min":17,"x_max":192,"o":"m 192 69 l 192 0 l 17 0 l 17 922 l 186 922 l 186 851 l 93 851 l 93 518 l 176 518 l 176 449 l 93 449 l 93 69 l 192 69 z m 142 1089 l 142 985 l 68 985 l 68 1089 l 142 1089 z "},"ė":{"ha":249,"x_min":18,"x_max":231,"o":"m 157 231 l 231 231 l 231 101 q 124 -4 231 -4 l 124 -4 q 18 101 18 -4 l 18 101 l 18 572 q 124 679 18 679 l 124 679 q 231 572 231 679 l 231 572 l 231 322 l 90 322 l 90 100 q 124 60 90 60 q 157 100 157 60 l 157 100 l 157 231 z m 90 375 l 157 375 l 157 574 q 124 613 157 613 q 90 574 90 613 l 90 574 l 90 375 z m 160 840 l 160 736 l 86 736 l 86 840 l 160 840 z "},"Ę":{"ha":201,"x_min":17,"x_max":192,"o":"m 190 -222 l 190 -222 l 190 -282 q 144 -292 172 -292 l 144 -292 q 93 -272 108 -292 q 78 -199 78 -253 l 78 -199 l 78 -154 q 150 -8 78 -53 l 150 -8 l 150 0 l 17 0 l 17 922 l 186 922 l 186 851 l 93 851 l 93 518 l 176 518 l 176 449 l 93 449 l 93 69 l 192 69 l 192 0 q 143 -59 157 -28 q 129 -140 129 -90 l 129 -140 l 129 -186 q 135 -219 129 -211 q 160 -226 142 -226 q 190 -222 178 -226 z "},"ę":{"ha":249,"x_min":18,"x_max":231,"o":"m 168 -222 l 168 -222 l 168 -282 q 122 -292 150 -292 l 122 -292 q 72 -272 88 -292 q 56 -199 56 -253 l 56 -199 l 56 -154 q 117 -11 56 -57 l 117 -11 l 117 -4 q 42 24 65 -1 q 18 101 18 49 l 18 101 l 18 572 q 124 679 18 679 l 124 679 q 231 572 231 679 l 231 572 l 231 322 l 90 322 l 90 100 q 124 60 90 60 q 157 100 157 60 l 157 100 l 157 231 l 231 231 l 231 101 q 165 0 231 19 l 165 0 q 107 -140 107 -49 l 107 -140 l 107 -186 q 113 -219 107 -211 q 138 -226 119 -226 q 168 -222 156 -226 z m 90 375 l 157 375 l 157 574 q 124 613 157 613 q 90 574 90 613 l 90 574 l 90 375 z "},"Ě":{"ha":201,"x_min":8,"x_max":197,"o":"m 192 69 l 192 0 l 17 0 l 17 922 l 186 922 l 186 851 l 93 851 l 93 518 l 176 518 l 176 449 l 93 449 l 93 69 l 192 69 z m 197 1063 l 136 965 l 69 965 l 8 1063 l 40 1089 l 103 1010 l 165 1089 l 197 1063 z "},"ě":{"ha":249,"x_min":18,"x_max":231,"o":"m 157 231 l 231 231 l 231 101 q 124 -4 231 -4 l 124 -4 q 18 101 18 -4 l 18 101 l 18 572 q 124 679 18 679 l 124 679 q 231 572 231 679 l 231 572 l 231 322 l 90 322 l 90 100 q 124 60 90 60 q 157 100 157 60 l 157 100 l 157 231 z m 90 375 l 157 375 l 157 574 q 124 613 157 613 q 90 574 90 613 l 90 574 l 90 375 z m 219 814 l 158 717 l 92 717 l 31 814 l 63 840 l 125 761 l 188 840 l 219 814 z "},"Ğ":{"ha":251,"x_min":17,"x_max":235,"o":"m 235 464 l 235 0 l 185 0 l 182 29 l 176 29 q 114 -4 158 -4 l 114 -4 q 42 27 68 -4 q 17 114 17 58 l 17 114 l 17 806 q 44 895 17 864 q 125 926 72 926 l 125 926 q 207 894 179 926 q 235 804 235 863 l 235 804 l 235 638 l 161 638 l 161 811 q 126 854 161 854 l 126 854 q 93 813 93 854 l 93 813 l 93 108 q 126 67 93 67 l 126 67 q 161 104 157 67 l 161 104 l 161 394 l 122 394 l 122 464 l 235 464 z m 198 991 q 128 953 171 953 q 58 992 85 953 q 31 1093 31 1031 l 31 1093 l 85 1093 q 128 1000 86 1000 l 128 1000 q 171 1093 167 1000 l 171 1093 l 225 1093 q 198 991 225 1029 z "},"ğ":{"ha":251,"x_min":18,"x_max":232,"o":"m 232 675 l 232 -218 q 125 -324 232 -324 l 125 -324 q 19 -218 19 -324 l 19 -218 l 19 -42 l 92 -42 l 92 -218 q 125 -257 92 -257 q 158 -218 158 -257 l 158 -218 l 158 39 l 153 39 q 89 0 136 0 l 89 0 q 18 85 18 0 l 18 85 l 18 589 q 38 656 18 632 q 94 679 58 679 l 94 679 q 158 632 138 679 l 158 632 l 164 632 l 167 675 l 232 675 z m 93 575 l 93 575 l 93 107 q 125 68 93 68 l 125 68 q 161 110 153 68 l 161 110 l 161 568 q 126 614 153 614 l 126 614 q 93 575 93 614 z m 198 742 q 128 704 171 704 q 58 743 85 704 q 31 844 31 782 l 31 844 l 85 844 q 128 751 86 751 l 128 751 q 171 844 167 751 l 171 844 l 225 844 q 198 742 225 781 z "},"Ġ":{"ha":251,"x_min":17,"x_max":235,"o":"m 235 464 l 235 0 l 185 0 l 182 29 l 176 29 q 114 -4 158 -4 l 114 -4 q 42 27 68 -4 q 17 114 17 58 l 17 114 l 17 806 q 44 895 17 864 q 125 926 72 926 l 125 926 q 207 894 179 926 q 235 804 235 863 l 235 804 l 235 638 l 161 638 l 161 811 q 126 854 161 854 l 126 854 q 93 813 93 854 l 93 813 l 93 108 q 126 67 93 67 l 126 67 q 161 104 157 67 l 161 104 l 161 394 l 122 394 l 122 464 l 235 464 z m 163 1089 l 163 985 l 89 985 l 89 1089 l 163 1089 z "},"ġ":{"ha":251,"x_min":18,"x_max":232,"o":"m 232 675 l 232 -218 q 125 -324 232 -324 l 125 -324 q 19 -218 19 -324 l 19 -218 l 19 -42 l 92 -42 l 92 -218 q 125 -257 92 -257 q 158 -218 158 -257 l 158 -218 l 158 39 l 153 39 q 89 0 136 0 l 89 0 q 18 85 18 0 l 18 85 l 18 589 q 38 656 18 632 q 94 679 58 679 l 94 679 q 158 632 138 679 l 158 632 l 164 632 l 167 675 l 232 675 z m 93 575 l 93 575 l 93 107 q 125 68 93 68 l 125 68 q 161 110 153 68 l 161 110 l 161 568 q 126 614 153 614 l 126 614 q 93 575 93 614 z m 163 840 l 163 736 l 89 736 l 89 840 l 163 840 z "},"Ģ":{"ha":251,"x_min":17,"x_max":235,"o":"m 235 464 l 235 0 l 185 0 l 182 29 l 176 29 q 114 -4 158 -4 l 114 -4 q 42 27 68 -4 q 17 114 17 58 l 17 114 l 17 806 q 44 895 17 864 q 125 926 72 926 l 125 926 q 207 894 179 926 q 235 804 235 863 l 235 804 l 235 638 l 161 638 l 161 811 q 126 854 161 854 l 126 854 q 93 813 93 854 l 93 813 l 93 108 q 126 67 93 67 l 126 67 q 161 104 157 67 l 161 104 l 161 394 l 122 394 l 122 464 l 235 464 z m 96 -292 l 96 -292 l 96 -257 q 129 -207 129 -250 l 129 -207 l 129 -149 l 96 -149 l 96 -25 l 163 -25 l 163 -189 q 147 -265 163 -242 q 96 -292 131 -289 z "},"ģ":{"ha":251,"x_min":18,"x_max":232,"o":"m 232 675 l 232 -218 q 125 -324 232 -324 l 125 -324 q 19 -218 19 -324 l 19 -218 l 19 -42 l 92 -42 l 92 -218 q 125 -257 92 -257 q 158 -218 158 -257 l 158 -218 l 158 39 l 153 39 q 89 0 136 0 l 89 0 q 18 85 18 0 l 18 85 l 18 589 q 38 656 18 632 q 94 679 58 679 l 94 679 q 158 632 138 679 l 158 632 l 164 632 l 167 675 l 232 675 z m 93 575 l 93 575 l 93 107 q 125 68 93 68 l 125 68 q 161 110 153 68 l 161 110 l 161 568 q 126 614 153 614 l 126 614 q 93 575 93 614 z m 160 1011 l 160 1011 l 160 976 q 126 926 126 969 l 126 926 l 126 868 l 160 868 l 160 744 l 93 744 l 93 908 q 109 985 93 961 q 160 1011 125 1008 z "},"Ħ":{"ha":260,"x_min":-1,"x_max":258,"o":"m 242 697 l 242 0 l 164 0 l 164 457 l 94 457 l 94 0 l 17 0 l 17 697 l -1 697 l -1 744 l 17 744 l 17 922 l 94 922 l 94 744 l 164 744 l 164 922 l 242 922 l 242 744 l 258 744 l 258 697 l 242 697 z m 94 697 l 94 525 l 164 525 l 164 697 l 94 697 z "},"ħ":{"ha":253,"x_min":-1,"x_max":235,"o":"m 165 804 l 165 757 l 92 757 l 92 631 l 97 631 q 167 679 118 679 l 167 679 q 219 657 204 679 q 235 585 235 635 l 235 585 l 235 0 l 160 0 l 160 578 q 129 614 160 614 l 129 614 q 92 575 100 614 l 92 575 l 92 0 l 18 0 l 18 757 l -1 757 l -1 804 l 18 804 l 18 933 l 92 933 l 92 804 l 165 804 z "},"ћ":{"ha":253,"x_min":-1,"x_max":235,"o":"m 165 804 l 165 757 l 92 757 l 92 631 l 97 631 q 167 679 118 679 l 167 679 q 219 657 204 679 q 235 585 235 635 l 235 585 l 235 0 l 160 0 l 160 578 q 129 614 160 614 l 129 614 q 92 575 100 614 l 92 575 l 92 0 l 18 0 l 18 757 l -1 757 l -1 804 l 18 804 l 18 933 l 92 933 l 92 804 l 165 804 z "},"Ĩ":{"ha":140,"x_min":-28,"x_max":165,"o":"m 108 922 l 108 0 l 31 0 l 31 922 l 108 922 z m 135 1029 l 135 1029 l 165 1010 q 114 960 153 960 l 114 960 q 72 974 97 960 q 32 989 46 989 l 32 989 q 4 965 10 989 l 4 965 l -28 983 q 25 1033 -15 1033 l 25 1033 q 67 1019 40 1033 q 106 1006 93 1006 l 106 1006 q 135 1029 126 1006 z "},"ĩ":{"ha":171,"x_min":-12,"x_max":181,"o":"m 150 785 l 150 785 l 181 765 q 129 715 168 715 l 129 715 q 87 730 113 715 q 47 744 61 744 l 47 744 q 19 721 25 744 l 19 721 l -12 739 q 40 789 0 789 l 40 789 q 82 775 56 789 q 121 761 108 761 l 121 761 q 150 785 142 761 z m 119 675 l 119 0 l 46 0 l 46 675 l 119 675 z "},"Ī":{"ha":147,"x_min":-10,"x_max":156,"o":"m 111 922 l 111 0 l 33 0 l 33 922 l 111 922 z m 156 1032 l 156 985 l -10 985 l -10 1032 l 156 1032 z "},"ī":{"ha":142,"x_min":-12,"x_max":153,"o":"m 153 788 l 153 740 l -12 740 l -12 788 l 153 788 z m 106 675 l 106 0 l 32 0 l 32 675 l 106 675 z "},"Ĭ":{"ha":146,"x_min":-25,"x_max":169,"o":"m 111 922 l 111 0 l 33 0 l 33 922 l 111 922 z m 142 991 q 72 953 115 953 q 2 992 29 953 q -25 1093 -25 1031 l -25 1093 l 29 1093 q 72 1000 31 1000 l 72 1000 q 115 1093 111 1000 l 115 1093 l 169 1093 q 142 991 169 1029 z "},"ĭ":{"ha":167,"x_min":-15,"x_max":179,"o":"m 152 742 q 82 704 125 704 q 12 743 39 704 q -15 844 -15 782 l -15 844 l 39 844 q 82 751 40 751 l 82 751 q 125 844 121 751 l 125 844 l 179 844 q 152 742 179 781 z m 119 675 l 119 0 l 46 0 l 46 675 l 119 675 z "},"Į":{"ha":115,"x_min":-15,"x_max":99,"o":"m 97 -222 l 97 -222 l 97 -282 q 51 -292 79 -292 l 51 -292 q 0 -272 15 -292 q -15 -199 -15 -253 l -15 -199 l -15 -154 q 58 -7 -15 -51 l 58 -7 l 58 0 l 21 0 l 21 922 l 99 922 l 99 0 q 50 -59 64 -28 q 36 -140 36 -90 l 36 -140 l 36 -186 q 42 -219 36 -211 q 67 -226 49 -226 q 97 -222 85 -226 z "},"į":{"ha":115,"x_min":-18,"x_max":96,"o":"m 94 -222 l 94 -222 l 94 -282 q 49 -292 79 -292 l 49 -292 q -2 -272 14 -292 q -18 -199 -18 -253 l -18 -199 l -18 -154 q 57 -7 -18 -51 l 57 -7 l 57 0 l 22 0 l 22 675 l 96 675 l 96 0 q 47 -59 61 -28 q 33 -140 33 -90 l 33 -140 l 33 -186 q 40 -219 33 -211 q 64 -226 47 -226 l 64 -226 q 94 -222 85 -226 z m 96 840 l 96 736 l 22 736 l 22 840 l 96 840 z "},"İ":{"ha":111,"x_min":17,"x_max":94,"o":"m 94 922 l 94 0 l 17 0 l 17 922 l 94 922 z m 92 1085 l 92 981 l 18 981 l 18 1085 l 92 1085 z "},"ı":{"ha":111,"x_min":18,"x_max":92,"o":"m 92 675 l 92 0 l 18 0 l 18 675 l 92 675 z "},"Ĳ":{"ha":351,"x_min":17,"x_max":333,"o":"m 94 922 l 94 0 l 17 0 l 17 922 l 94 922 z m 257 108 l 257 108 l 257 922 l 333 922 l 333 114 q 224 -4 333 -4 l 224 -4 q 115 113 115 -4 l 115 113 l 115 340 l 189 340 l 189 108 q 222 67 189 67 l 222 67 q 257 108 257 67 z "},"ĳ":{"ha":244,"x_min":18,"x_max":225,"o":"m 92 675 l 92 0 l 18 0 l 18 675 l 92 675 z m 92 840 l 92 736 l 18 736 l 18 840 l 92 840 z m 18 -219 l 18 -219 l 18 -62 l 92 -62 l 92 -219 q 121 -257 92 -257 l 121 -257 q 151 -219 151 -257 l 151 -219 l 151 675 l 225 675 l 225 -219 q 121 -324 225 -324 l 121 -324 q 18 -219 18 -324 z m 225 840 l 225 736 l 151 736 l 151 840 l 225 840 z "},"Ķ":{"ha":256,"x_min":17,"x_max":250,"o":"m 176 565 l 249 0 l 171 0 l 121 396 l 118 396 l 94 290 l 94 0 l 17 0 l 17 922 l 94 922 l 94 563 l 100 563 l 172 922 l 250 922 l 176 565 z m 90 -292 l 90 -292 l 90 -257 q 124 -207 124 -250 l 124 -207 l 124 -149 l 90 -149 l 90 -25 l 157 -25 l 157 -189 q 141 -265 157 -242 q 90 -292 125 -289 z "},"ķ":{"ha":250,"x_min":18,"x_max":246,"o":"m 172 382 l 244 0 l 168 0 l 118 269 l 114 269 l 92 188 l 92 0 l 18 0 l 18 933 l 92 933 l 92 388 l 97 388 l 168 675 l 246 675 l 172 382 z m 90 -292 l 90 -292 l 90 -257 q 124 -207 124 -250 l 124 -207 l 124 -149 l 90 -149 l 90 -25 l 157 -25 l 157 -189 q 141 -265 157 -242 q 90 -292 125 -289 z "},"Ĺ":{"ha":207,"x_min":10,"x_max":196,"o":"m 196 71 l 196 0 l 17 0 l 17 922 l 94 922 l 94 71 l 196 71 z m 113 1121 l 151 1076 l 39 953 l 10 982 l 113 1121 z "},"ĺ":{"ha":117,"x_min":3,"x_max":144,"o":"m 92 933 l 92 0 l 18 0 l 18 933 l 92 933 z m 106 1121 l 144 1076 l 32 953 l 3 982 l 106 1121 z "},"Ļ":{"ha":207,"x_min":17,"x_max":196,"o":"m 196 71 l 196 0 l 17 0 l 17 922 l 94 922 l 94 71 l 196 71 z m 69 -292 l 69 -292 l 69 -257 q 103 -207 103 -250 l 103 -207 l 103 -149 l 69 -149 l 69 -25 l 136 -25 l 136 -189 q 120 -265 136 -242 q 69 -292 104 -289 z "},"ļ":{"ha":111,"x_min":18,"x_max":92,"o":"m 92 933 l 92 0 l 18 0 l 18 933 l 92 933 z m 21 -292 l 21 -292 l 21 -257 q 54 -207 54 -250 l 54 -207 l 54 -149 l 21 -149 l 21 -25 l 88 -25 l 88 -189 q 72 -265 88 -242 q 21 -292 56 -289 z "},"Ľ":{"ha":214,"x_min":17,"x_max":196,"o":"m 196 71 l 196 0 l 17 0 l 17 922 l 94 922 l 94 71 l 196 71 z m 121 644 l 121 644 l 121 686 q 154 749 154 708 l 154 749 l 154 818 l 121 818 l 121 933 l 196 933 l 196 760 q 121 644 196 661 z "},"ľ":{"ha":192,"x_min":18,"x_max":185,"o":"m 92 933 l 92 0 l 18 0 l 18 933 l 92 933 z m 110 644 l 110 644 l 110 686 q 143 749 143 708 l 143 749 l 143 818 l 110 818 l 110 933 l 185 933 l 185 760 q 110 644 185 661 z "},"Ł":{"ha":207,"x_min":17,"x_max":196,"o":"m 196 71 l 196 0 l 17 0 l 17 922 l 94 922 l 94 644 l 171 690 l 171 622 l 94 576 l 94 71 l 196 71 z "},"ł":{"ha":150,"x_min":3,"x_max":147,"o":"m 113 453 l 113 0 l 38 0 l 38 418 l 3 403 l 3 461 l 38 476 l 38 933 l 113 933 l 113 511 l 147 526 l 147 468 l 113 453 z "},"Ń":{"ha":272,"x_min":17,"x_max":256,"o":"m 256 922 l 256 0 l 154 0 l 82 739 l 76 739 q 79 401 79 693 l 79 401 l 79 0 l 17 0 l 17 922 l 128 922 l 189 190 l 194 190 q 190 596 190 361 l 190 596 l 190 922 l 256 922 z m 182 1121 l 221 1076 l 108 953 l 79 982 l 182 1121 z "},"ń":{"ha":253,"x_min":18,"x_max":235,"o":"m 235 592 l 235 0 l 160 0 l 160 578 q 128 614 160 614 l 128 614 q 92 579 104 614 l 92 579 l 92 0 l 18 0 l 18 675 l 88 675 l 89 632 l 94 632 q 165 679 117 679 l 165 679 q 235 592 235 679 l 235 592 z m 171 872 l 210 828 l 97 704 l 68 733 l 171 872 z "},"Ņ":{"ha":272,"x_min":17,"x_max":256,"o":"m 256 922 l 256 0 l 154 0 l 82 739 l 76 739 q 79 401 79 693 l 79 401 l 79 0 l 17 0 l 17 922 l 128 922 l 189 190 l 194 190 q 190 596 190 361 l 190 596 l 190 922 l 256 922 z m 99 -292 l 99 -292 l 99 -257 q 132 -207 132 -250 l 132 -207 l 132 -149 l 99 -149 l 99 -25 l 165 -25 l 165 -189 q 149 -265 165 -242 q 99 -292 133 -289 z "},"ņ":{"ha":253,"x_min":18,"x_max":235,"o":"m 235 592 l 235 0 l 160 0 l 160 578 q 128 614 160 614 l 128 614 q 92 579 104 614 l 92 579 l 92 0 l 18 0 l 18 675 l 88 675 l 89 632 l 94 632 q 165 679 117 679 l 165 679 q 235 592 235 679 l 235 592 z m 92 -292 l 92 -292 l 92 -257 q 125 -207 125 -250 l 125 -207 l 125 -149 l 92 -149 l 92 -25 l 158 -25 l 158 -189 q 142 -265 158 -242 q 92 -292 126 -289 z "},"Ň":{"ha":272,"x_min":17,"x_max":256,"o":"m 256 922 l 256 0 l 154 0 l 82 739 l 76 739 q 79 401 79 693 l 79 401 l 79 0 l 17 0 l 17 922 l 128 922 l 189 190 l 194 190 q 190 596 190 361 l 190 596 l 190 922 l 256 922 z m 231 1063 l 169 965 l 103 965 l 42 1063 l 74 1089 l 136 1010 l 199 1089 l 231 1063 z "},"ň":{"ha":253,"x_min":18,"x_max":235,"o":"m 235 592 l 235 0 l 160 0 l 160 578 q 128 614 160 614 l 128 614 q 92 579 104 614 l 92 579 l 92 0 l 18 0 l 18 675 l 88 675 l 89 632 l 94 632 q 165 679 117 679 l 165 679 q 235 592 235 679 l 235 592 z m 221 814 l 160 717 l 93 717 l 32 814 l 64 840 l 126 761 l 189 840 l 221 814 z "},"Ŋ":{"ha":272,"x_min":17,"x_max":256,"o":"m 118 -322 l 118 -322 l 118 -254 q 135 -257 122 -257 l 135 -257 q 169 -218 169 -257 l 169 -218 l 169 -133 l 82 739 l 76 739 q 79 401 79 693 l 79 401 l 79 0 l 17 0 l 17 922 l 128 922 l 189 190 l 194 190 q 190 596 190 276 l 190 596 l 190 922 l 256 922 l 256 -218 q 146 -325 256 -325 l 146 -325 q 118 -322 126 -325 z "},"ŋ":{"ha":253,"x_min":18,"x_max":235,"o":"m 235 592 l 235 -218 q 138 -324 235 -324 l 138 -324 q 111 -321 122 -324 l 111 -321 l 111 -254 q 128 -257 117 -257 l 128 -257 q 160 -218 160 -257 l 160 -218 l 160 578 q 128 614 160 614 l 128 614 q 92 579 104 614 l 92 579 l 92 0 l 18 0 l 18 675 l 88 675 l 89 632 l 94 632 q 165 679 117 679 l 165 679 q 235 592 235 679 l 235 592 z "},"Ō":{"ha":251,"x_min":14,"x_max":236,"o":"m 236 804 l 236 804 l 236 113 q 126 -4 236 -4 l 126 -4 q 14 114 14 -4 l 14 114 l 14 806 q 43 894 14 863 q 125 926 72 926 q 207 894 178 926 q 236 804 236 861 z m 160 108 l 160 108 l 160 811 q 125 854 160 854 q 90 813 90 854 l 90 813 l 90 108 q 125 67 90 67 q 160 108 160 67 z m 208 1036 l 208 989 l 43 989 l 43 1036 l 208 1036 z "},"ō":{"ha":249,"x_min":18,"x_max":229,"o":"m 229 572 l 229 572 l 229 101 q 124 -4 229 -4 q 18 101 18 -4 l 18 101 l 18 572 q 124 679 18 679 q 229 572 229 679 z m 157 101 l 157 101 l 157 572 q 124 613 157 613 q 90 572 90 613 l 90 572 l 90 101 q 124 63 90 63 q 157 101 157 63 z m 207 788 l 207 740 l 42 740 l 42 788 l 207 788 z "},"Ŏ":{"ha":251,"x_min":14,"x_max":236,"o":"m 236 804 l 236 804 l 236 113 q 126 -4 236 -4 l 126 -4 q 14 114 14 -4 l 14 114 l 14 806 q 43 894 14 863 q 125 926 72 926 q 207 894 178 926 q 236 804 236 861 z m 160 108 l 160 108 l 160 811 q 125 854 160 854 q 90 813 90 854 l 90 813 l 90 108 q 125 67 90 67 q 160 108 160 67 z m 195 991 q 125 953 168 953 q 55 992 82 953 q 28 1093 28 1031 l 28 1093 l 82 1093 q 125 1000 83 1000 l 125 1000 q 168 1093 164 1000 l 168 1093 l 222 1093 q 195 991 222 1029 z "},"ŏ":{"ha":249,"x_min":18,"x_max":229,"o":"m 229 572 l 229 572 l 229 101 q 124 -4 229 -4 q 18 101 18 -4 l 18 101 l 18 572 q 124 679 18 679 q 229 572 229 679 z m 157 101 l 157 101 l 157 572 q 124 613 157 613 q 90 572 90 613 l 90 572 l 90 101 q 124 63 90 63 q 157 101 157 63 z m 194 742 q 124 704 167 704 q 53 743 81 704 q 26 844 26 782 l 26 844 l 81 844 q 124 751 82 751 l 124 751 q 167 844 163 751 l 167 844 l 221 844 q 194 742 221 781 z "},"Ő":{"ha":251,"x_min":14,"x_max":236,"o":"m 236 804 l 236 804 l 236 113 q 126 -4 236 -4 l 126 -4 q 14 114 14 -4 l 14 114 l 14 806 q 43 894 14 863 q 125 926 72 926 q 207 894 178 926 q 236 804 236 861 z m 160 108 l 160 108 l 160 811 q 125 854 160 854 q 90 813 90 854 l 90 813 l 90 108 q 125 67 90 67 q 160 108 160 67 z m 150 1094 l 78 953 l 44 969 l 103 1121 l 150 1094 z m 233 1094 l 163 953 l 128 969 l 186 1121 l 233 1094 z "},"ő":{"ha":249,"x_min":18,"x_max":232,"o":"m 229 572 l 229 572 l 229 101 q 124 -4 229 -4 q 18 101 18 -4 l 18 101 l 18 572 q 124 679 18 679 q 229 572 229 679 z m 157 101 l 157 101 l 157 572 q 124 613 157 613 q 90 572 90 613 l 90 572 l 90 101 q 124 63 90 63 q 157 101 157 63 z m 149 846 l 76 704 l 43 721 l 101 872 l 149 846 z m 232 846 l 161 704 l 126 721 l 185 872 l 232 846 z "},"Œ":{"ha":338,"x_min":14,"x_max":329,"o":"m 329 69 l 329 0 l 163 0 q 126 -4 144 -4 l 126 -4 q 14 114 14 -4 l 14 114 l 14 806 q 43 894 14 863 q 125 926 72 926 l 125 926 q 158 922 144 926 l 158 922 l 324 922 l 324 851 l 225 851 q 236 804 236 832 l 236 804 l 236 518 l 314 518 l 314 449 l 236 449 l 236 113 q 226 69 236 85 l 226 69 l 329 69 z m 160 108 l 160 108 l 160 811 q 125 854 160 854 q 90 811 90 854 l 90 811 l 90 108 q 125 67 90 67 q 160 108 160 67 z "},"œ":{"ha":382,"x_min":18,"x_max":365,"o":"m 292 231 l 365 231 l 365 101 q 257 -4 365 -4 l 257 -4 q 190 14 213 -4 l 190 14 q 124 -4 168 -4 l 124 -4 q 18 101 18 -4 l 18 101 l 18 572 q 124 679 18 679 l 124 679 q 190 661 168 679 l 190 661 q 258 679 215 679 l 258 679 q 365 572 365 679 l 365 572 l 365 322 l 224 322 l 224 100 q 258 60 224 60 l 258 60 q 292 100 292 60 l 292 100 l 292 231 z m 157 101 l 157 101 l 157 572 q 124 613 157 613 q 90 572 90 613 l 90 572 l 90 101 q 124 63 90 63 q 157 101 157 63 z m 224 375 l 292 375 l 292 574 q 258 613 292 613 l 258 613 q 224 574 224 613 l 224 574 l 224 375 z "},"Ŕ":{"ha":251,"x_min":17,"x_max":238,"o":"m 93 421 l 93 0 l 17 0 l 17 922 l 147 922 q 236 826 236 922 l 236 826 l 236 531 q 189 458 236 469 l 189 458 l 189 453 q 238 379 238 442 l 238 379 l 238 0 l 163 0 l 163 386 q 131 421 163 421 l 131 421 l 93 421 z m 161 522 l 161 522 l 161 818 q 129 851 161 851 l 129 851 l 93 851 l 93 483 l 129 483 q 161 522 161 483 z m 165 1121 l 204 1076 l 92 953 l 63 982 l 165 1121 z "},"ŕ":{"ha":190,"x_min":18,"x_max":183,"o":"m 92 543 l 92 0 l 18 0 l 18 675 l 88 675 l 89 626 l 94 626 q 156 679 114 679 l 156 679 q 181 674 167 679 l 181 674 l 181 606 q 153 611 171 611 l 153 611 q 110 596 124 611 q 92 543 96 581 l 92 543 z m 144 872 l 183 828 l 71 704 l 42 733 l 144 872 z "},"Ŗ":{"ha":251,"x_min":17,"x_max":238,"o":"m 93 421 l 93 0 l 17 0 l 17 922 l 147 922 q 236 826 236 922 l 236 826 l 236 531 q 189 458 236 469 l 189 458 l 189 453 q 238 379 238 442 l 238 379 l 238 0 l 163 0 l 163 386 q 131 421 163 421 l 131 421 l 93 421 z m 161 522 l 161 522 l 161 818 q 129 851 161 851 l 129 851 l 93 851 l 93 483 l 129 483 q 161 522 161 483 z m 92 -292 l 92 -292 l 92 -257 q 125 -207 125 -250 l 125 -207 l 125 -149 l 92 -149 l 92 -25 l 158 -25 l 158 -189 q 142 -265 158 -242 q 92 -292 126 -289 z "},"ŗ":{"ha":190,"x_min":18,"x_max":181,"o":"m 92 543 l 92 0 l 18 0 l 18 675 l 88 675 l 89 626 l 94 626 q 156 679 114 679 l 156 679 q 181 674 167 679 l 181 674 l 181 606 q 153 611 171 611 l 153 611 q 110 596 124 611 q 92 543 96 581 l 92 543 z m 19 -292 l 19 -292 l 19 -257 q 53 -207 53 -250 l 53 -207 l 53 -149 l 19 -149 l 19 -25 l 86 -25 l 86 -189 q 70 -265 86 -242 q 19 -292 54 -289 z "},"Ř":{"ha":251,"x_min":17,"x_max":238,"o":"m 93 421 l 93 0 l 17 0 l 17 922 l 147 922 q 236 826 236 922 l 236 826 l 236 531 q 189 458 236 469 l 189 458 l 189 453 q 238 379 238 442 l 238 379 l 238 0 l 163 0 l 163 386 q 131 421 163 421 l 131 421 l 93 421 z m 161 522 l 161 522 l 161 818 q 129 851 161 851 l 129 851 l 93 851 l 93 483 l 129 483 q 161 522 161 483 z m 217 1063 l 156 965 l 89 965 l 28 1063 l 60 1089 l 122 1010 l 185 1089 l 217 1063 z "},"ř":{"ha":190,"x_min":4,"x_max":193,"o":"m 92 543 l 92 0 l 18 0 l 18 675 l 88 675 l 89 626 l 94 626 q 156 679 114 679 l 156 679 q 181 674 167 679 l 181 674 l 181 606 q 153 611 171 611 l 153 611 q 110 596 124 611 q 92 543 96 581 l 92 543 z m 193 814 l 132 717 l 65 717 l 4 814 l 36 840 l 99 761 l 161 840 l 193 814 z "},"Ś":{"ha":261,"x_min":14,"x_max":246,"o":"m 238 804 l 238 635 l 165 635 l 165 813 q 129 854 165 854 q 93 818 93 854 l 93 818 l 93 664 q 97 594 93 613 q 115 557 101 575 l 115 557 q 169 495 135 531 q 218 440 204 460 l 218 440 q 246 326 246 403 l 246 326 l 246 118 q 132 -4 246 -4 l 132 -4 q 14 124 14 -4 l 14 124 l 14 276 l 86 276 l 86 110 q 128 67 86 67 l 128 67 q 165 106 165 67 l 165 106 l 165 294 q 160 371 165 350 q 138 414 154 392 l 138 414 q 92 464 133 419 q 39 535 51 508 l 39 535 q 15 672 15 585 l 15 672 l 15 817 q 44 897 15 867 q 126 926 72 926 l 126 926 q 238 804 238 926 l 238 804 z m 174 1121 l 213 1076 l 100 953 l 71 982 l 174 1121 z "},"ś":{"ha":244,"x_min":15,"x_max":229,"o":"m 225 583 l 225 468 l 156 468 l 156 586 q 122 617 156 617 q 89 588 89 617 l 89 588 l 89 457 q 94 418 89 429 q 114 394 99 407 l 114 394 q 155 367 128 383 q 194 342 182 351 l 194 342 q 222 305 214 325 q 229 239 229 285 l 229 239 l 229 89 q 125 -4 229 -4 l 125 -4 q 15 92 15 -4 l 15 92 l 15 217 l 85 217 l 85 90 q 121 56 85 56 l 121 56 q 156 88 156 56 l 156 88 l 156 239 q 125 297 156 272 l 125 297 q 90 323 119 301 q 47 357 60 344 l 47 357 q 18 457 18 390 l 18 457 l 18 594 q 44 657 18 635 q 121 679 71 679 l 121 679 q 225 583 225 679 l 225 583 z m 167 872 l 206 828 l 93 704 l 64 733 l 167 872 z "},"Ş":{"ha":261,"x_min":14,"x_max":246,"o":"m 238 804 l 238 635 l 165 635 l 165 813 q 129 854 165 854 q 93 818 93 854 l 93 818 l 93 664 q 97 594 93 613 q 115 557 101 575 l 115 557 q 169 495 135 531 q 218 440 204 460 l 218 440 q 246 326 246 403 l 246 326 l 246 118 q 132 -4 246 -4 l 132 -4 q 14 124 14 -4 l 14 124 l 14 276 l 86 276 l 86 110 q 128 67 86 67 l 128 67 q 165 106 165 67 l 165 106 l 165 294 q 160 371 165 350 q 138 414 154 392 l 138 414 q 92 464 133 419 q 39 535 51 508 l 39 535 q 15 672 15 585 l 15 672 l 15 817 q 44 897 15 867 q 126 926 72 926 l 126 926 q 238 804 238 926 l 238 804 z m 94 -292 l 94 -292 l 94 -257 q 128 -207 128 -250 l 128 -207 l 128 -149 l 94 -149 l 94 -25 l 161 -25 l 161 -189 q 145 -265 161 -242 q 94 -292 129 -289 z "},"Ș":{"ha":261,"x_min":14,"x_max":246,"o":"m 238 804 l 238 635 l 165 635 l 165 813 q 129 854 165 854 q 93 818 93 854 l 93 818 l 93 664 q 97 594 93 613 q 115 557 101 575 l 115 557 q 169 495 135 531 q 218 440 204 460 l 218 440 q 246 326 246 403 l 246 326 l 246 118 q 132 -4 246 -4 l 132 -4 q 14 124 14 -4 l 14 124 l 14 276 l 86 276 l 86 110 q 128 67 86 67 l 128 67 q 165 106 165 67 l 165 106 l 165 294 q 160 371 165 350 q 138 414 154 392 l 138 414 q 92 464 133 419 q 39 535 51 508 l 39 535 q 15 672 15 585 l 15 672 l 15 817 q 44 897 15 867 q 126 926 72 926 l 126 926 q 238 804 238 926 l 238 804 z m 94 -292 l 94 -292 l 94 -257 q 128 -207 128 -250 l 128 -207 l 128 -149 l 94 -149 l 94 -25 l 161 -25 l 161 -189 q 145 -265 161 -242 q 94 -292 129 -289 z "},"ş":{"ha":244,"x_min":15,"x_max":229,"o":"m 225 583 l 225 468 l 156 468 l 156 586 q 122 617 156 617 q 89 588 89 617 l 89 588 l 89 457 q 94 418 89 429 q 114 394 99 407 l 114 394 q 155 367 128 383 q 194 342 182 351 l 194 342 q 222 305 214 325 q 229 239 229 285 l 229 239 l 229 89 q 125 -4 229 -4 l 125 -4 q 15 92 15 -4 l 15 92 l 15 217 l 85 217 l 85 90 q 121 56 85 56 l 121 56 q 156 88 156 56 l 156 88 l 156 239 q 125 297 156 272 l 125 297 q 90 323 119 301 q 47 357 60 344 l 47 357 q 18 457 18 390 l 18 457 l 18 594 q 44 657 18 635 q 121 679 71 679 l 121 679 q 225 583 225 679 l 225 583 z m 89 -292 l 89 -292 l 89 -257 q 122 -207 122 -250 l 122 -207 l 122 -149 l 89 -149 l 89 -25 l 156 -25 l 156 -189 q 140 -265 156 -242 q 89 -292 124 -289 z "},"ș":{"ha":244,"x_min":15,"x_max":229,"o":"m 225 583 l 225 468 l 156 468 l 156 586 q 122 617 156 617 q 89 588 89 617 l 89 588 l 89 457 q 94 418 89 429 q 114 394 99 407 l 114 394 q 155 367 128 383 q 194 342 182 351 l 194 342 q 222 305 214 325 q 229 239 229 285 l 229 239 l 229 89 q 125 -4 229 -4 l 125 -4 q 15 92 15 -4 l 15 92 l 15 217 l 85 217 l 85 90 q 121 56 85 56 l 121 56 q 156 88 156 56 l 156 88 l 156 239 q 125 297 156 272 l 125 297 q 90 323 119 301 q 47 357 60 344 l 47 357 q 18 457 18 390 l 18 457 l 18 594 q 44 657 18 635 q 121 679 71 679 l 121 679 q 225 583 225 679 l 225 583 z m 89 -292 l 89 -292 l 89 -257 q 122 -207 122 -250 l 122 -207 l 122 -149 l 89 -149 l 89 -25 l 156 -25 l 156 -189 q 140 -265 156 -242 q 89 -292 124 -289 z "},"Š":{"ha":261,"x_min":14,"x_max":246,"o":"m 238 804 l 238 635 l 165 635 l 165 813 q 129 854 165 854 q 93 818 93 854 l 93 818 l 93 664 q 97 594 93 613 q 115 557 101 575 l 115 557 q 169 495 135 531 q 218 440 204 460 l 218 440 q 246 326 246 403 l 246 326 l 246 118 q 132 -4 246 -4 l 132 -4 q 14 124 14 -4 l 14 124 l 14 276 l 86 276 l 86 110 q 128 67 86 67 l 128 67 q 165 106 165 67 l 165 106 l 165 294 q 160 371 165 350 q 138 414 154 392 l 138 414 q 92 464 133 419 q 39 535 51 508 l 39 535 q 15 672 15 585 l 15 672 l 15 817 q 44 897 15 867 q 126 926 72 926 l 126 926 q 238 804 238 926 l 238 804 z m 225 1063 l 164 965 l 97 965 l 36 1063 l 68 1089 l 131 1010 l 193 1089 l 225 1063 z "},"š":{"ha":244,"x_min":15,"x_max":229,"o":"m 225 583 l 225 468 l 156 468 l 156 586 q 122 617 156 617 q 89 588 89 617 l 89 588 l 89 457 q 94 418 89 429 q 114 394 99 407 l 114 394 q 155 367 128 383 q 194 342 182 351 l 194 342 q 222 305 214 325 q 229 239 229 285 l 229 239 l 229 89 q 125 -4 229 -4 l 125 -4 q 15 92 15 -4 l 15 92 l 15 217 l 85 217 l 85 90 q 121 56 85 56 l 121 56 q 156 88 156 56 l 156 88 l 156 239 q 125 297 156 272 l 125 297 q 90 323 119 301 q 47 357 60 344 l 47 357 q 18 457 18 390 l 18 457 l 18 594 q 44 657 18 635 q 121 679 71 679 l 121 679 q 225 583 225 679 l 225 583 z m 215 814 l 154 717 l 88 717 l 26 814 l 58 840 l 121 761 l 183 840 l 215 814 z "},"Ţ":{"ha":243,"x_min":11,"x_max":232,"o":"m 160 851 l 160 0 l 82 0 l 82 851 l 11 851 l 11 922 l 232 922 l 232 851 l 160 851 z m 86 -292 l 86 -292 l 86 -257 q 119 -207 119 -250 l 119 -207 l 119 -149 l 86 -149 l 86 -25 l 153 -25 l 153 -189 q 137 -265 153 -242 q 86 -292 121 -289 z "},"Ț":{"ha":243,"x_min":11,"x_max":232,"o":"m 160 851 l 160 0 l 82 0 l 82 851 l 11 851 l 11 922 l 232 922 l 232 851 l 160 851 z m 86 -292 l 86 -292 l 86 -257 q 119 -207 119 -250 l 119 -207 l 119 -149 l 86 -149 l 86 -25 l 153 -25 l 153 -189 q 137 -265 153 -242 q 86 -292 121 -289 z "},"ţ":{"ha":238,"x_min":18,"x_max":218,"o":"m 156 101 l 156 101 l 156 381 l 218 381 l 218 101 q 197 21 218 46 q 124 -4 176 -4 l 124 -4 q 18 101 18 -4 l 18 101 l 18 860 l 90 860 l 90 675 l 218 675 l 218 608 l 90 608 l 90 101 q 125 63 90 63 l 125 63 q 156 101 156 63 z m 86 -292 l 86 -292 l 86 -257 q 119 -207 119 -250 l 119 -207 l 119 -149 l 86 -149 l 86 -25 l 153 -25 l 153 -189 q 137 -265 153 -242 q 86 -292 121 -289 z "},"ț":{"ha":238,"x_min":18,"x_max":218,"o":"m 156 101 l 156 101 l 156 381 l 218 381 l 218 101 q 197 21 218 46 q 124 -4 176 -4 l 124 -4 q 18 101 18 -4 l 18 101 l 18 860 l 90 860 l 90 675 l 218 675 l 218 608 l 90 608 l 90 101 q 125 63 90 63 l 125 63 q 156 101 156 63 z m 86 -292 l 86 -292 l 86 -257 q 119 -207 119 -250 l 119 -207 l 119 -149 l 86 -149 l 86 -25 l 153 -25 l 153 -189 q 137 -265 153 -242 q 86 -292 121 -289 z "},"Ť":{"ha":243,"x_min":11,"x_max":232,"o":"m 160 851 l 160 0 l 82 0 l 82 851 l 11 851 l 11 922 l 232 922 l 232 851 l 160 851 z m 215 1060 l 154 963 l 88 963 l 26 1060 l 58 1086 l 121 1007 l 183 1086 l 215 1060 z "},"ť":{"ha":310,"x_min":18,"x_max":303,"o":"m 156 101 l 156 101 l 156 381 l 218 381 l 218 101 q 197 21 218 46 q 124 -4 176 -4 l 124 -4 q 18 101 18 -4 l 18 101 l 18 860 l 90 860 l 90 675 l 218 675 l 218 608 l 90 608 l 90 101 q 125 63 90 63 l 125 63 q 156 101 156 63 z m 228 644 l 228 644 l 228 686 q 261 749 261 708 l 261 749 l 261 818 l 228 818 l 228 933 l 303 933 l 303 760 q 228 644 303 661 z "},"Ŧ":{"ha":243,"x_min":11,"x_max":232,"o":"m 160 521 l 160 0 l 82 0 l 82 521 l 38 521 l 38 568 l 82 568 l 82 851 l 11 851 l 11 922 l 232 922 l 232 851 l 160 851 l 160 568 l 204 568 l 204 521 l 160 521 z "},"ŧ":{"ha":238,"x_min":18,"x_max":218,"o":"m 213 513 l 213 464 l 90 464 l 90 101 q 125 63 90 63 l 125 63 q 156 101 156 63 l 156 101 l 156 374 l 218 374 l 218 101 q 197 21 218 46 q 124 -4 176 -4 l 124 -4 q 18 101 18 -4 l 18 101 l 18 860 l 90 860 l 90 675 l 218 675 l 218 608 l 90 608 l 90 513 l 213 513 z "},"Ũ":{"ha":256,"x_min":17,"x_max":238,"o":"m 161 108 l 161 108 l 161 922 l 238 922 l 238 114 q 128 -4 238 -4 l 128 -4 q 17 113 17 -4 l 17 113 l 17 922 l 92 922 l 92 108 q 126 67 92 67 q 161 108 161 67 z m 193 1033 l 193 1033 l 224 1014 q 172 964 211 964 l 172 964 q 130 978 156 964 q 90 993 104 993 l 90 993 q 63 969 68 993 l 63 969 l 31 988 q 83 1038 43 1038 l 83 1038 q 125 1024 99 1038 q 164 1010 151 1010 l 164 1010 q 193 1033 185 1010 z "},"ũ":{"ha":251,"x_min":18,"x_max":233,"o":"m 18 106 l 18 675 l 93 675 l 93 106 q 124 60 93 60 q 160 107 154 60 l 160 107 l 160 675 l 233 675 l 233 0 l 164 0 l 163 42 l 157 42 q 131 6 144 17 q 92 -4 117 -4 l 92 -4 q 32 24 46 -4 q 18 106 18 53 l 18 106 z m 192 785 l 192 785 l 222 765 q 171 715 210 715 l 171 715 q 128 730 154 715 q 89 744 103 744 l 89 744 q 61 721 67 744 l 61 721 l 29 739 q 82 789 42 789 l 82 789 q 124 775 97 789 q 163 761 150 761 l 163 761 q 192 785 183 761 z "},"Ū":{"ha":256,"x_min":17,"x_max":238,"o":"m 161 108 l 161 108 l 161 922 l 238 922 l 238 114 q 128 -4 238 -4 l 128 -4 q 17 113 17 -4 l 17 113 l 17 922 l 92 922 l 92 108 q 126 67 92 67 q 161 108 161 67 z m 210 1036 l 210 989 l 44 989 l 44 1036 l 210 1036 z "},"ū":{"ha":251,"x_min":18,"x_max":233,"o":"m 18 106 l 18 675 l 93 675 l 93 106 q 124 60 93 60 q 160 107 154 60 l 160 107 l 160 675 l 233 675 l 233 0 l 164 0 l 163 42 l 157 42 q 131 6 144 17 q 92 -4 117 -4 l 92 -4 q 32 24 46 -4 q 18 106 18 53 l 18 106 z m 208 788 l 208 740 l 43 740 l 43 788 l 208 788 z "},"Ŭ":{"ha":256,"x_min":17,"x_max":238,"o":"m 161 108 l 161 108 l 161 922 l 238 922 l 238 114 q 128 -4 238 -4 l 128 -4 q 17 113 17 -4 l 17 113 l 17 922 l 92 922 l 92 108 q 126 67 92 67 q 161 108 161 67 z m 197 991 q 126 953 169 953 q 56 992 83 953 q 29 1093 29 1031 l 29 1093 l 83 1093 q 126 1000 85 1000 l 126 1000 q 169 1093 165 1000 l 169 1093 l 224 1093 q 197 991 224 1029 z "},"ŭ":{"ha":251,"x_min":18,"x_max":233,"o":"m 18 106 l 18 675 l 93 675 l 93 106 q 124 60 93 60 q 160 107 154 60 l 160 107 l 160 675 l 233 675 l 233 0 l 164 0 l 163 42 l 157 42 q 131 6 144 17 q 92 -4 117 -4 l 92 -4 q 32 24 46 -4 q 18 106 18 53 l 18 106 z m 195 742 q 125 704 168 704 q 55 743 82 704 q 28 844 28 782 l 28 844 l 82 844 q 125 751 83 751 l 125 751 q 168 844 164 751 l 168 844 l 222 844 q 195 742 222 781 z "},"Ů":{"ha":256,"x_min":17,"x_max":238,"o":"m 161 108 l 161 108 l 161 922 l 238 922 l 238 114 q 128 -4 238 -4 l 128 -4 q 17 113 17 -4 l 17 113 l 17 922 l 92 922 l 92 108 q 126 67 92 67 q 161 108 161 67 z m 128 985 l 128 985 q 156 1029 156 985 l 156 1029 q 128 1075 156 1075 l 128 1075 q 99 1029 99 1075 l 99 1029 q 128 985 99 985 z m 128 953 l 128 953 q 82 974 97 953 q 67 1029 67 996 q 82 1084 67 1063 q 128 1106 97 1106 l 128 1106 q 172 1084 157 1106 q 188 1029 188 1063 q 172 974 188 996 q 128 953 157 953 z "},"ů":{"ha":251,"x_min":18,"x_max":233,"o":"m 18 106 l 18 675 l 93 675 l 93 106 q 124 60 93 60 q 160 107 154 60 l 160 107 l 160 675 l 233 675 l 233 0 l 164 0 l 163 42 l 157 42 q 131 6 144 17 q 92 -4 117 -4 l 92 -4 q 32 24 46 -4 q 18 106 18 53 l 18 106 z m 126 736 l 126 736 q 154 781 154 736 l 154 781 q 126 826 154 826 l 126 826 q 97 781 97 826 l 97 781 q 126 736 97 736 z m 126 704 l 126 704 q 81 726 96 704 q 65 781 65 747 q 81 835 65 814 q 126 857 96 857 l 126 857 q 171 835 156 857 q 186 781 186 814 q 171 726 186 747 q 126 704 156 704 z "},"Ű":{"ha":256,"x_min":17,"x_max":238,"o":"m 161 108 l 161 108 l 161 922 l 238 922 l 238 114 q 128 -4 238 -4 l 128 -4 q 17 113 17 -4 l 17 113 l 17 922 l 92 922 l 92 108 q 126 67 92 67 q 161 108 161 67 z m 151 1094 l 79 953 l 46 969 l 104 1121 l 151 1094 z m 235 1094 l 164 953 l 129 969 l 188 1121 l 235 1094 z "},"ű":{"ha":251,"x_min":18,"x_max":233,"o":"m 18 106 l 18 675 l 93 675 l 93 106 q 124 60 93 60 q 160 107 154 60 l 160 107 l 160 675 l 233 675 l 233 0 l 164 0 l 163 42 l 157 42 q 131 6 144 17 q 92 -4 117 -4 l 92 -4 q 32 24 46 -4 q 18 106 18 53 l 18 106 z m 150 846 l 78 704 l 44 721 l 103 872 l 150 846 z m 233 846 l 163 704 l 128 721 l 186 872 l 233 846 z "},"Ų":{"ha":256,"x_min":17,"x_max":238,"o":"m 158 -222 l 158 -222 l 158 -282 q 113 -292 143 -292 l 113 -292 q 62 -272 78 -292 q 46 -199 46 -253 l 46 -199 l 46 -154 q 110 -12 46 -58 l 110 -12 l 110 -3 q 17 113 17 6 l 17 113 l 17 922 l 92 922 l 92 108 q 126 67 92 67 q 161 108 161 67 l 161 108 l 161 922 l 238 922 l 238 114 q 156 -1 238 14 l 156 -1 q 97 -140 97 -50 l 97 -140 l 97 -186 q 104 -219 97 -211 q 128 -226 111 -226 l 128 -226 q 158 -222 147 -226 z "},"ų":{"ha":251,"x_min":18,"x_max":233,"o":"m 232 -222 l 232 -222 l 232 -282 q 186 -292 214 -292 l 186 -292 q 135 -272 151 -292 q 119 -199 119 -253 l 119 -199 l 119 -154 q 190 -8 119 -54 l 190 -8 l 190 0 l 164 0 l 163 42 l 157 42 q 131 6 144 17 q 92 -4 117 -4 l 92 -4 q 32 24 46 -4 q 18 106 18 53 l 18 106 l 18 675 l 93 675 l 93 106 q 124 60 93 60 q 160 107 154 60 l 160 107 l 160 675 l 233 675 l 233 0 q 185 -59 199 -28 q 171 -140 171 -90 l 171 -140 l 171 -186 q 177 -219 171 -211 q 201 -226 183 -226 q 232 -222 219 -226 z "},"Ŵ":{"ha":381,"x_min":6,"x_max":375,"o":"m 188 744 l 160 0 l 49 0 l 6 922 l 79 922 l 106 163 l 111 163 l 146 922 l 235 922 l 271 163 l 276 163 l 301 922 l 375 922 l 332 0 l 221 0 l 193 744 l 188 744 z m 222 1093 l 283 978 l 251 953 l 189 1050 l 126 953 l 94 978 l 156 1093 l 222 1093 z "},"ŵ":{"ha":347,"x_min":4,"x_max":343,"o":"m 171 524 l 146 0 l 43 0 l 4 675 l 75 675 l 94 160 l 100 160 l 131 675 l 215 675 l 247 160 l 253 160 l 272 675 l 343 675 l 304 0 l 200 0 l 176 524 l 171 524 z m 207 844 l 268 729 l 236 704 l 174 801 l 111 704 l 79 729 l 140 844 l 207 844 z "},"Ŷ":{"ha":256,"x_min":4,"x_max":251,"o":"m 168 381 l 168 0 l 90 0 l 90 381 l 4 922 l 83 922 l 126 575 l 132 575 l 172 922 l 251 922 l 168 381 z m 164 1093 l 225 978 l 193 953 l 131 1050 l 68 953 l 36 978 l 97 1093 l 164 1093 z "},"ŷ":{"ha":251,"x_min":18,"x_max":232,"o":"m 18 675 l 93 675 l 93 107 q 125 68 93 68 l 125 68 q 161 111 153 68 l 161 111 l 161 675 l 232 675 l 232 -218 q 125 -324 232 -324 l 125 -324 q 19 -218 19 -324 l 19 -218 l 19 -42 l 92 -42 l 92 -218 q 125 -257 92 -257 q 158 -218 158 -257 l 158 -218 l 158 39 l 154 39 q 92 0 136 0 l 92 0 q 18 104 18 0 l 18 104 l 18 675 z m 163 844 l 224 729 l 192 704 l 129 801 l 67 704 l 35 729 l 96 844 l 163 844 z "},"Ÿ":{"ha":256,"x_min":4,"x_max":251,"o":"m 168 381 l 168 0 l 90 0 l 90 381 l 4 922 l 83 922 l 126 575 l 132 575 l 172 922 l 251 922 l 168 381 z m 110 1085 l 110 981 l 42 981 l 42 1085 l 110 1085 z m 217 1085 l 217 981 l 149 981 l 149 1085 l 217 1085 z "},"Ϋ":{"ha":256,"x_min":4,"x_max":251,"o":"m 168 381 l 168 0 l 90 0 l 90 381 l 4 922 l 83 922 l 126 575 l 132 575 l 172 922 l 251 922 l 168 381 z m 110 1085 l 110 981 l 42 981 l 42 1085 l 110 1085 z m 217 1085 l 217 981 l 149 981 l 149 1085 l 217 1085 z "},"Ź":{"ha":233,"x_min":11,"x_max":222,"o":"m 222 69 l 222 0 l 11 0 l 11 71 l 144 851 l 13 851 l 13 922 l 218 922 l 218 853 l 88 69 l 222 69 z m 163 1121 l 201 1076 l 89 953 l 60 982 l 163 1121 z "},"ź":{"ha":211,"x_min":13,"x_max":200,"o":"m 200 68 l 200 0 l 13 0 l 13 69 l 129 608 l 13 608 l 13 675 l 197 675 l 197 607 l 81 68 l 200 68 z m 151 872 l 190 828 l 78 704 l 49 733 l 151 872 z "},"Ż":{"ha":233,"x_min":11,"x_max":222,"o":"m 222 69 l 222 0 l 11 0 l 11 71 l 144 851 l 13 851 l 13 922 l 218 922 l 218 853 l 88 69 l 222 69 z m 150 1089 l 150 985 l 76 985 l 76 1089 l 150 1089 z "},"ż":{"ha":211,"x_min":13,"x_max":200,"o":"m 200 68 l 200 0 l 13 0 l 13 69 l 129 608 l 13 608 l 13 675 l 197 675 l 197 607 l 81 68 l 200 68 z m 139 840 l 139 736 l 65 736 l 65 840 l 139 840 z "},"Ž":{"ha":233,"x_min":11,"x_max":222,"o":"m 222 69 l 222 0 l 11 0 l 11 71 l 144 851 l 13 851 l 13 922 l 218 922 l 218 853 l 88 69 l 222 69 z m 211 1060 l 150 963 l 83 963 l 22 1060 l 54 1086 l 117 1007 l 179 1086 l 211 1060 z "},"ž":{"ha":211,"x_min":11,"x_max":200,"o":"m 200 68 l 200 0 l 13 0 l 13 69 l 129 608 l 13 608 l 13 675 l 197 675 l 197 607 l 81 68 l 200 68 z m 200 814 l 139 717 l 72 717 l 11 814 l 43 840 l 106 761 l 168 840 l 200 814 z "},"Ǝ":{"ha":201,"x_min":8,"x_max":185,"o":"m 8 851 l 8 922 l 185 922 l 185 0 l 14 0 l 14 69 l 107 69 l 107 403 l 24 403 l 24 474 l 107 474 l 107 851 l 8 851 z "},"Ə":{"ha":251,"x_min":14,"x_max":236,"o":"m 89 681 l 14 681 l 14 814 q 126 926 14 926 l 126 926 q 236 814 236 926 l 236 814 l 236 106 q 126 -4 236 -4 l 126 -4 q 14 106 14 -4 l 14 106 l 14 525 l 161 525 l 161 814 q 126 854 161 854 l 126 854 q 89 814 89 854 l 89 814 l 89 681 z m 161 457 l 89 457 l 89 104 q 126 64 89 64 l 126 64 q 161 104 161 64 l 161 104 l 161 457 z "},"Ә":{"ha":251,"x_min":14,"x_max":236,"o":"m 89 681 l 14 681 l 14 814 q 126 926 14 926 l 126 926 q 236 814 236 926 l 236 814 l 236 106 q 126 -4 236 -4 l 126 -4 q 14 106 14 -4 l 14 106 l 14 525 l 161 525 l 161 814 q 126 854 161 854 l 126 854 q 89 814 89 854 l 89 814 l 89 681 z m 161 457 l 89 457 l 89 104 q 126 64 89 64 l 126 64 q 161 104 161 64 l 161 104 l 161 457 z "},"ƒ":{"ha":215,"x_min":3,"x_max":207,"o":"m 207 613 l 207 565 l 151 565 l 110 -165 q 88 -223 108 -206 q 28 -240 68 -240 l 28 -240 l 3 -240 l 3 -171 l 14 -171 q 38 -153 38 -171 l 38 -153 l 79 565 l 38 565 l 38 613 l 82 613 l 96 858 q 117 917 97 900 q 178 933 138 933 l 178 933 l 207 933 l 207 864 l 192 864 q 168 846 169 864 l 168 846 l 154 613 l 207 613 z "},"Ɣ":{"ha":286,"x_min":14,"x_max":272,"o":"m 143 -324 l 143 -324 q 54 -221 54 -324 l 54 -221 q 107 242 54 -190 l 107 242 l 14 922 l 94 922 l 138 547 l 146 547 l 190 922 l 272 922 l 178 240 q 231 -218 231 -197 l 231 -218 q 143 -324 231 -324 z m 147 -33 l 147 -33 l 136 -33 q 119 -225 119 -185 l 119 -225 q 142 -262 119 -262 l 142 -262 q 167 -214 167 -262 l 167 -214 q 165 -183 167 -200 q 158 -123 163 -165 q 147 -33 153 -81 z "},"Ɲ":{"ha":272,"x_min":-26,"x_max":256,"o":"m 256 922 l 256 0 l 154 0 l 82 739 l 76 739 q 79 401 79 693 l 79 401 l 79 -218 q -4 -324 79 -324 l -4 -324 q -26 -321 -18 -324 l -26 -321 l -26 -254 q -12 -257 -22 -257 l -12 -257 q 17 -218 17 -257 l 17 -218 l 17 922 l 128 922 l 189 190 l 194 190 q 190 596 190 361 l 190 596 l 190 922 l 256 922 z "},"Ơ":{"ha":292,"x_min":14,"x_max":289,"o":"m 236 804 l 236 804 l 236 113 q 126 -4 236 -4 l 126 -4 q 14 114 14 -4 l 14 114 l 14 806 q 42 895 14 864 q 124 926 71 926 l 124 926 q 168 923 138 926 q 210 919 199 919 l 210 919 q 238 927 231 919 q 246 954 246 935 l 246 954 q 243 992 246 975 l 243 992 l 283 992 q 289 947 289 981 l 289 947 q 242 875 289 875 l 242 875 q 218 878 228 875 l 218 878 q 236 804 236 850 z m 160 108 l 160 108 l 160 811 q 125 854 160 854 q 90 813 90 854 l 90 813 l 90 108 q 125 67 90 67 q 160 108 160 67 z "},"ơ":{"ha":281,"x_min":18,"x_max":278,"o":"m 229 572 l 229 572 l 229 101 q 204 22 229 47 q 124 -4 179 -4 l 124 -4 q 18 101 18 -4 l 18 101 l 18 572 q 121 679 18 679 l 121 679 q 164 675 138 679 q 201 671 190 671 l 201 671 q 228 678 221 671 q 235 707 235 686 q 232 744 235 728 l 232 744 l 272 744 q 278 700 278 733 l 278 700 q 233 626 278 626 l 233 626 q 218 628 224 626 l 218 628 q 229 572 229 603 z m 157 101 l 157 101 l 157 572 q 124 613 157 613 q 90 572 90 613 l 90 572 l 90 101 q 124 63 90 63 q 157 101 157 63 z "},"Ư":{"ha":317,"x_min":17,"x_max":314,"o":"m 161 108 l 161 108 l 161 922 l 243 922 q 271 957 271 922 l 271 957 q 267 992 271 978 l 267 992 l 308 992 q 314 947 314 981 l 314 947 q 268 875 314 875 l 268 875 q 253 877 264 875 q 238 879 243 879 l 238 879 l 238 114 q 128 -4 238 -4 l 128 -4 q 17 113 17 -4 l 17 113 l 17 922 l 92 922 l 92 108 q 126 67 92 67 q 161 108 161 67 z "},"ư":{"ha":310,"x_min":18,"x_max":307,"o":"m 18 132 l 18 675 l 93 675 l 93 96 q 122 60 93 60 l 122 60 q 160 96 147 60 l 160 96 l 160 675 l 238 675 q 264 708 264 675 l 264 708 q 260 744 264 731 l 260 744 l 300 744 q 307 700 307 733 l 307 700 q 260 628 307 628 l 260 628 q 233 632 247 628 l 233 632 l 233 0 l 164 0 l 163 42 l 158 42 q 90 -4 136 -4 l 90 -4 q 32 31 46 -4 q 18 132 18 65 l 18 132 z "},"ǝ":{"ha":249,"x_min":18,"x_max":231,"o":"m 90 444 l 18 444 l 18 572 q 125 679 18 679 l 125 679 q 231 572 231 679 l 231 572 l 231 101 q 125 -4 231 -4 l 125 -4 q 18 101 18 -4 l 18 101 l 18 353 l 158 353 l 158 575 q 125 614 158 614 l 125 614 q 90 575 90 614 l 90 575 l 90 444 z m 158 299 l 90 299 l 90 100 q 125 61 90 61 l 125 61 q 158 100 158 61 l 158 100 l 158 299 z "},"ə":{"ha":249,"x_min":18,"x_max":231,"o":"m 90 444 l 18 444 l 18 572 q 125 679 18 679 l 125 679 q 231 572 231 679 l 231 572 l 231 101 q 125 -4 231 -4 l 125 -4 q 18 101 18 -4 l 18 101 l 18 353 l 158 353 l 158 575 q 125 614 158 614 l 125 614 q 90 575 90 614 l 90 575 l 90 444 z m 158 299 l 90 299 l 90 100 q 125 61 90 61 l 125 61 q 158 100 158 61 l 158 100 l 158 299 z "},"ә":{"ha":249,"x_min":18,"x_max":231,"o":"m 90 444 l 18 444 l 18 572 q 125 679 18 679 l 125 679 q 231 572 231 679 l 231 572 l 231 101 q 125 -4 231 -4 l 125 -4 q 18 101 18 -4 l 18 101 l 18 353 l 158 353 l 158 575 q 125 614 158 614 l 125 614 q 90 575 90 614 l 90 575 l 90 444 z m 158 299 l 90 299 l 90 100 q 125 61 90 61 l 125 61 q 158 100 158 61 l 158 100 l 158 299 z "},"Ǧ":{"ha":251,"x_min":17,"x_max":235,"o":"m 235 464 l 235 0 l 185 0 l 182 29 l 176 29 q 114 -4 158 -4 l 114 -4 q 42 27 68 -4 q 17 114 17 58 l 17 114 l 17 806 q 44 895 17 864 q 125 926 72 926 l 125 926 q 207 894 179 926 q 235 804 235 863 l 235 804 l 235 638 l 161 638 l 161 811 q 126 854 161 854 l 126 854 q 93 813 93 854 l 93 813 l 93 108 q 126 67 93 67 l 126 67 q 161 104 157 67 l 161 104 l 161 394 l 122 394 l 122 464 l 235 464 z m 224 1063 l 163 965 l 96 965 l 35 1063 l 67 1089 l 129 1010 l 192 1089 l 224 1063 z "},"ǧ":{"ha":251,"x_min":18,"x_max":232,"o":"m 232 675 l 232 -218 q 125 -324 232 -324 l 125 -324 q 19 -218 19 -324 l 19 -218 l 19 -42 l 92 -42 l 92 -218 q 125 -257 92 -257 q 158 -218 158 -257 l 158 -218 l 158 39 l 153 39 q 89 0 136 0 l 89 0 q 18 85 18 0 l 18 85 l 18 589 q 38 656 18 632 q 94 679 58 679 l 94 679 q 158 632 138 679 l 158 632 l 164 632 l 167 675 l 232 675 z m 93 575 l 93 575 l 93 107 q 125 68 93 68 l 125 68 q 161 110 153 68 l 161 110 l 161 568 q 126 614 153 614 l 126 614 q 93 575 93 614 z m 221 814 l 160 717 l 93 717 l 32 814 l 64 840 l 126 761 l 189 840 l 221 814 z "},"Ǵ":{"ha":251,"x_min":17,"x_max":235,"o":"m 235 464 l 235 0 l 185 0 l 182 29 l 176 29 q 114 -4 158 -4 l 114 -4 q 42 27 68 -4 q 17 114 17 58 l 17 114 l 17 806 q 44 895 17 864 q 125 926 72 926 l 125 926 q 207 894 179 926 q 235 804 235 863 l 235 804 l 235 638 l 161 638 l 161 811 q 126 854 161 854 l 126 854 q 93 813 93 854 l 93 813 l 93 108 q 126 67 93 67 l 126 67 q 161 104 157 67 l 161 104 l 161 394 l 122 394 l 122 464 l 235 464 z m 174 1121 l 213 1076 l 100 953 l 71 982 l 174 1121 z "},"ǵ":{"ha":251,"x_min":18,"x_max":232,"o":"m 232 675 l 232 -218 q 125 -324 232 -324 l 125 -324 q 19 -218 19 -324 l 19 -218 l 19 -42 l 92 -42 l 92 -218 q 125 -257 92 -257 q 158 -218 158 -257 l 158 -218 l 158 39 l 153 39 q 89 0 136 0 l 89 0 q 18 85 18 0 l 18 85 l 18 589 q 38 656 18 632 q 94 679 58 679 l 94 679 q 158 632 138 679 l 158 632 l 164 632 l 167 675 l 232 675 z m 93 575 l 93 575 l 93 107 q 125 68 93 68 l 125 68 q 161 110 153 68 l 161 110 l 161 568 q 126 614 153 614 l 126 614 q 93 575 93 614 z m 174 872 l 213 828 l 100 704 l 71 733 l 174 872 z "},"Ǹ":{"ha":272,"x_min":17,"x_max":256,"o":"m 256 922 l 256 0 l 154 0 l 82 739 l 76 739 q 79 401 79 693 l 79 401 l 79 0 l 17 0 l 17 922 l 128 922 l 189 190 l 194 190 q 190 596 190 361 l 190 596 l 190 922 l 256 922 z m 196 982 l 167 953 l 54 1076 l 93 1121 l 196 982 z "},"ǹ":{"ha":253,"x_min":18,"x_max":235,"o":"m 235 592 l 235 0 l 160 0 l 160 578 q 128 614 160 614 l 128 614 q 92 579 104 614 l 92 579 l 92 0 l 18 0 l 18 675 l 88 675 l 89 632 l 94 632 q 165 679 117 679 l 165 679 q 235 592 235 679 l 235 592 z m 185 733 l 156 704 l 43 828 l 82 872 l 185 733 z "},"ȷ":{"ha":119,"x_min":-114,"x_max":100,"o":"m -114 -218 l -114 -218 l -114 -37 l -42 -37 l -42 -218 q -8 -257 -42 -257 q 25 -218 25 -257 l 25 -218 l 25 675 l 100 675 l 100 -218 q -7 -324 100 -324 q -114 -218 -114 -324 z "},"Ɂ":{"ha":238,"x_min":10,"x_max":224,"o":"m 156 350 l 156 0 l 78 0 l 78 349 q 92 447 78 413 l 92 447 q 119 506 101 472 q 139 543 138 539 l 139 543 q 150 632 150 569 l 150 632 l 150 814 q 144 845 150 836 q 118 854 138 854 q 91 844 99 854 q 83 811 83 835 l 83 811 l 83 654 l 10 654 l 10 810 q 33 899 10 871 q 118 926 57 926 l 118 926 q 201 900 178 926 q 224 813 224 874 l 224 813 l 224 656 q 211 533 224 569 l 211 533 q 189 486 204 513 q 169 449 174 460 l 169 449 q 156 350 156 415 l 156 350 z "},"ɂ":{"ha":249,"x_min":18,"x_max":229,"o":"m 160 181 l 160 0 l 85 0 l 85 181 q 96 233 85 206 l 96 233 q 124 280 104 251 q 147 317 143 308 l 147 317 q 157 357 157 339 l 157 357 l 157 572 q 125 613 157 613 l 125 613 q 90 569 90 613 l 90 569 l 90 419 l 18 419 l 18 558 q 42 651 18 622 q 124 679 67 679 l 124 679 q 204 653 179 679 q 229 571 229 626 l 229 571 l 229 357 q 221 310 229 328 l 221 310 q 193 264 214 292 q 167 221 172 236 l 167 221 q 160 181 160 203 l 160 181 z "},"Ɍ":{"ha":276,"x_min":1,"x_max":263,"o":"m 118 421 l 118 0 l 40 0 l 40 421 l 1 421 l 1 483 l 40 483 l 40 922 l 172 922 q 261 826 261 922 l 261 826 l 261 531 q 214 458 261 469 l 214 458 l 214 453 q 263 379 263 442 l 263 379 l 263 0 l 186 0 l 186 386 q 156 421 186 421 l 156 421 l 118 421 z m 186 522 l 186 522 l 186 818 q 154 851 186 851 l 154 851 l 118 851 l 118 483 l 154 483 q 186 522 186 483 z "},"ɍ":{"ha":206,"x_min":1,"x_max":194,"o":"m 106 301 l 106 0 l 31 0 l 31 301 l 1 301 l 1 349 l 31 349 l 31 675 l 100 675 l 103 626 l 108 626 q 169 679 128 679 l 169 679 q 194 674 181 679 l 194 674 l 194 606 q 167 611 185 611 l 167 611 q 124 596 138 611 q 106 543 110 581 l 106 543 l 106 349 l 167 349 l 167 301 l 106 301 z "},"ɣ":{"ha":246,"x_min":4,"x_max":240,"o":"m 165 675 l 240 675 l 156 129 q 201 -235 201 -206 l 201 -235 q 122 -324 201 -324 q 43 -233 43 -324 l 43 -233 q 89 126 43 -204 l 89 126 l 4 675 l 81 675 l 118 378 l 125 378 l 165 675 z m 125 -92 l 125 -92 l 118 -92 q 103 -243 103 -231 l 103 -243 q 122 -272 103 -272 q 142 -243 142 -272 l 142 -243 q 125 -92 142 -215 z "},"ɲ":{"ha":253,"x_min":-29,"x_max":235,"o":"m 235 592 l 235 0 l 160 0 l 160 578 q 128 614 160 614 l 128 614 q 92 579 104 614 l 92 579 l 92 -218 q -4 -324 92 -324 l -4 -324 q -29 -321 -21 -324 l -29 -321 l -29 -254 q -12 -257 -25 -257 l -12 -257 q 18 -218 18 -257 l 18 -218 l 18 675 l 88 675 l 89 632 l 94 632 q 165 679 117 679 l 165 679 q 235 592 235 679 l 235 592 z "},"ˆ":{"ha":225,"x_min":18,"x_max":207,"o":"m 146 844 l 207 729 l 175 704 l 113 801 l 50 704 l 18 729 l 79 844 l 146 844 z "},"ˇ":{"ha":224,"x_min":18,"x_max":207,"o":"m 207 814 l 146 717 l 79 717 l 18 814 l 50 840 l 113 761 l 175 840 l 207 814 z "},"ˉ":{"ha":0,"x_min":-211,"x_max":-46,"o":"m -46 788 l -46 740 l -211 740 l -211 788 l -46 788 z "},"˘":{"ha":229,"x_min":17,"x_max":211,"o":"m 184 742 q 114 704 157 704 q 44 743 71 704 q 17 844 17 782 l 17 844 l 71 844 q 114 751 72 751 l 114 751 q 157 844 153 751 l 157 844 l 211 844 q 184 742 211 781 z "},"˙":{"ha":108,"x_min":17,"x_max":90,"o":"m 90 840 l 90 736 l 17 736 l 17 840 l 90 840 z "},"˚":{"ha":154,"x_min":17,"x_max":138,"o":"m 78 736 l 78 736 q 106 781 106 736 l 106 781 q 78 826 106 826 l 78 826 q 49 781 49 826 l 49 781 q 78 736 49 736 z m 78 704 l 78 704 q 32 726 47 704 q 17 781 17 747 q 32 835 17 814 q 78 857 47 857 l 78 857 q 122 835 107 857 q 138 781 138 814 q 122 726 138 747 q 78 704 107 704 z "},"˛":{"ha":142,"x_min":11,"x_max":125,"o":"m 124 -222 l 124 -222 l 124 -282 q 78 -292 106 -292 l 78 -292 q 26 -272 42 -292 q 11 -199 11 -253 l 11 -199 l 11 -154 q 99 0 11 -43 l 99 0 l 125 0 q 76 -59 90 -28 q 63 -140 63 -90 l 63 -140 l 63 -186 q 69 -219 63 -211 q 93 -226 75 -226 q 124 -222 111 -226 z "},"˜":{"ha":225,"x_min":15,"x_max":208,"o":"m 178 785 l 178 785 l 208 765 q 157 715 196 715 l 157 715 q 115 730 140 715 q 75 744 89 744 l 75 744 q 47 721 53 744 l 47 721 l 15 739 q 68 789 28 789 l 68 789 q 110 775 83 789 q 149 761 136 761 l 149 761 q 178 785 169 761 z "},"˝":{"ha":222,"x_min":17,"x_max":206,"o":"m 122 846 l 50 704 l 17 721 l 75 872 l 122 846 z m 206 846 l 135 704 l 100 721 l 158 872 l 206 846 z "},"̀":{"ha":0,"x_min":-212,"x_max":-71,"o":"m -71 733 l -100 704 l -212 828 l -174 872 l -71 733 z "},"́":{"ha":0,"x_min":-196,"x_max":-54,"o":"m -93 872 l -54 828 l -167 704 l -196 733 l -93 872 z "},"̂":{"ha":0,"x_min":-222,"x_max":-33,"o":"m -94 844 l -33 729 l -65 704 l -128 801 l -190 704 l -222 729 l -161 844 l -94 844 z "},"̃":{"ha":0,"x_min":-225,"x_max":-32,"o":"m -62 785 l -62 785 l -32 765 q -83 715 -44 715 l -83 715 q -126 730 -100 715 q -165 744 -151 744 l -165 744 q -193 721 -187 744 l -193 721 l -225 739 q -172 789 -212 789 l -172 789 q -131 775 -157 789 q -92 761 -104 761 l -92 761 q -62 785 -71 761 z "},"̄":{"ha":0,"x_min":-211,"x_max":-46,"o":"m -46 788 l -46 740 l -211 740 l -211 788 l -46 788 z "},"̆":{"ha":0,"x_min":-226,"x_max":-32,"o":"m -59 742 q -129 704 -86 704 q -199 743 -172 704 q -226 844 -226 782 l -226 844 l -172 844 q -129 751 -171 751 l -129 751 q -86 844 -90 751 l -86 844 l -32 844 q -59 742 -32 781 z "},"̇":{"ha":0,"x_min":-165,"x_max":-92,"o":"m -92 840 l -92 736 l -165 736 l -165 840 l -92 840 z "},"̈":{"ha":0,"x_min":-215,"x_max":-40,"o":"m -147 840 l -147 736 l -215 736 l -215 840 l -147 840 z m -40 840 l -40 736 l -108 736 l -108 840 l -40 840 z "},"̉":{"ha":0,"x_min":-182,"x_max":-72,"o":"m -118 713 l -118 713 l -154 713 q -134 751 -154 736 q -114 776 -114 767 l -114 776 q -133 792 -114 792 q -168 776 -153 792 l -168 776 l -182 817 q -126 836 -158 836 l -126 836 q -87 822 -103 836 q -72 783 -72 807 l -72 783 q -95 742 -72 758 q -118 713 -118 725 z "},"̊":{"ha":0,"x_min":-187,"x_max":-67,"o":"m -126 736 l -126 736 q -99 781 -99 736 l -99 781 q -126 826 -99 826 l -126 826 q -156 781 -156 826 l -156 781 q -126 736 -156 736 z m -126 704 l -126 704 q -172 726 -157 704 q -187 781 -187 747 q -172 835 -187 814 q -126 857 -157 857 l -126 857 q -82 835 -97 857 q -67 781 -67 814 q -82 726 -67 747 q -126 704 -97 704 z "},"̋":{"ha":0,"x_min":-221,"x_max":-32,"o":"m -115 846 l -187 704 l -221 721 l -162 872 l -115 846 z m -32 846 l -103 704 l -137 721 l -79 872 l -32 846 z "},"̌":{"ha":0,"x_min":-222,"x_max":-33,"o":"m -33 814 l -94 717 l -161 717 l -222 814 l -190 840 l -128 761 l -65 840 l -33 814 z "},"̓":{"ha":0,"x_min":-161,"x_max":-94,"o":"m -94 985 l -94 985 l -94 950 q -128 900 -128 943 l -128 900 l -128 842 l -94 842 l -94 718 l -161 718 l -161 882 q -145 958 -161 935 q -94 985 -129 982 z "},"̛":{"ha":50,"x_min":-71,"x_max":47,"o":"m -71 649 l -71 649 l -71 675 q -26 672 -43 672 l -26 672 q -1 679 -7 672 q 4 706 4 686 q 1 744 4 725 l 1 744 l 42 744 q 47 700 47 733 l 47 700 q 0 626 47 626 l 0 626 q -71 649 -29 626 z "},"̣":{"ha":0,"x_min":-164,"x_max":-89,"o":"m -89 -51 l -89 -154 l -164 -154 l -164 -51 l -89 -51 z "},"̦":{"ha":0,"x_min":-161,"x_max":-94,"o":"m -161 -292 l -161 -292 l -161 -257 q -128 -207 -128 -250 l -128 -207 l -128 -149 l -161 -149 l -161 -25 l -94 -25 l -94 -189 q -110 -265 -94 -242 q -161 -292 -126 -289 z "},"̨":{"ha":0,"x_min":-185,"x_max":-71,"o":"m -72 -222 l -72 -222 l -72 -282 q -118 -292 -90 -292 l -118 -292 q -169 -272 -154 -292 q -185 -199 -185 -253 l -185 -199 l -185 -154 q -97 0 -185 -43 l -97 0 l -71 0 q -119 -59 -106 -28 q -133 -140 -133 -90 l -133 -140 l -133 -186 q -127 -219 -133 -211 q -103 -226 -121 -226 q -72 -222 -85 -226 z "},"̭":{"ha":0,"x_min":-222,"x_max":-33,"o":"m -94 -82 l -33 -197 l -65 -222 l -128 -125 l -190 -222 l -222 -197 l -161 -82 l -94 -82 z "},"΄":{"ha":72,"x_min":10,"x_max":69,"o":"m 69 942 l 56 725 l 10 725 l 10 942 l 69 942 z "},"΅":{"ha":0,"x_min":-242,"x_max":-8,"o":"m -90 942 l -104 725 l -150 725 l -150 942 l -90 942 z m -168 840 l -168 736 l -242 736 l -242 840 l -168 840 z m -8 840 l -8 736 l -82 736 l -82 840 l -8 840 z "},"Ά":{"ha":282,"x_min":10,"x_max":275,"o":"m 213 922 l 275 0 l 199 0 l 185 238 l 117 238 l 104 0 l 29 0 l 90 922 l 213 922 z m 154 789 l 149 789 l 121 304 l 181 304 l 154 789 z m 69 942 l 56 725 l 10 725 l 10 942 l 69 942 z "},"·":{"ha":83,"x_min":17,"x_max":92,"o":"m 92 568 l 92 453 l 17 453 l 17 568 l 92 568 z "},"Έ":{"ha":263,"x_min":10,"x_max":253,"o":"m 253 69 l 253 0 l 78 0 l 78 922 l 247 922 l 247 851 l 154 851 l 154 518 l 238 518 l 238 449 l 154 449 l 154 69 l 253 69 z m 69 942 l 56 725 l 10 725 l 10 942 l 69 942 z "},"Ή":{"ha":319,"x_min":10,"x_max":301,"o":"m 301 922 l 301 0 l 224 0 l 224 457 l 154 457 l 154 0 l 76 0 l 76 922 l 154 922 l 154 525 l 224 525 l 224 922 l 301 922 z m 69 942 l 56 725 l 10 725 l 10 942 l 69 942 z "},"Ί":{"ha":171,"x_min":10,"x_max":154,"o":"m 154 922 l 154 0 l 76 0 l 76 922 l 154 922 z m 69 942 l 56 725 l 10 725 l 10 942 l 69 942 z "},"Ό":{"ha":308,"x_min":10,"x_max":293,"o":"m 293 804 l 293 804 l 293 113 q 183 -4 293 -4 l 183 -4 q 71 114 71 -4 l 71 114 l 71 806 q 100 894 71 863 q 182 926 129 926 q 264 894 235 926 q 293 804 293 861 z m 217 108 l 217 108 l 217 811 q 182 854 217 854 q 147 813 147 854 l 147 813 l 147 108 q 182 67 147 67 q 217 108 217 67 z m 69 942 l 56 725 l 10 725 l 10 942 l 69 942 z "},"Ύ":{"ha":326,"x_min":10,"x_max":322,"o":"m 239 381 l 239 0 l 161 0 l 161 381 l 75 922 l 154 922 l 197 575 l 203 575 l 243 922 l 322 922 l 239 381 z m 69 942 l 56 725 l 10 725 l 10 942 l 69 942 z "},"Ώ":{"ha":326,"x_min":10,"x_max":318,"o":"m 318 67 l 318 0 l 207 0 l 207 63 q 231 200 231 79 l 231 200 l 231 813 q 193 854 231 854 l 193 854 q 153 813 153 854 l 153 813 l 153 200 q 179 63 153 79 l 179 63 l 179 0 l 68 0 l 68 67 l 115 67 l 115 72 q 75 201 75 106 l 75 201 l 75 822 q 106 899 75 872 q 193 926 138 926 q 279 899 249 926 q 310 822 310 872 l 310 822 l 310 201 q 300 119 310 146 q 268 72 290 92 l 268 72 l 268 67 l 318 67 z m 69 942 l 56 725 l 10 725 l 10 942 l 69 942 z "},"ΐ":{"ha":218,"x_min":-8,"x_max":225,"o":"m 168 65 l 168 0 l 156 0 q 68 88 68 0 l 68 88 l 68 675 l 142 675 l 142 88 q 157 65 142 65 l 157 65 l 168 65 z m 143 942 l 129 725 l 83 725 l 83 942 l 143 942 z m 65 840 l 65 736 l -8 736 l -8 840 l 65 840 z m 225 840 l 225 736 l 151 736 l 151 840 l 225 840 z "},"Γ":{"ha":207,"x_min":17,"x_max":196,"o":"m 94 851 l 94 0 l 17 0 l 17 922 l 196 922 l 196 851 l 94 851 z "},"Г":{"ha":207,"x_min":17,"x_max":196,"o":"m 94 851 l 94 0 l 17 0 l 17 922 l 196 922 l 196 851 l 94 851 z "},"Δ":{"ha":258,"x_min":6,"x_max":251,"o":"m 189 922 l 251 0 l 6 0 l 67 922 l 189 922 z m 88 71 l 168 71 l 131 789 l 125 789 l 88 71 z "},"Θ":{"ha":251,"x_min":14,"x_max":236,"o":"m 236 804 l 236 804 l 236 113 q 126 -4 236 -4 l 126 -4 q 14 114 14 -4 l 14 114 l 14 806 q 43 894 14 863 q 125 926 72 926 q 207 894 178 926 q 236 804 236 861 z m 154 518 l 154 449 l 96 449 l 96 518 l 154 518 z m 165 108 l 165 108 l 165 811 q 125 854 165 854 q 85 813 85 854 l 85 813 l 85 108 q 125 67 85 67 q 165 108 165 67 z "},"Λ":{"ha":258,"x_min":7,"x_max":253,"o":"m 7 0 l 68 922 l 190 922 l 253 0 l 175 0 l 131 753 l 125 753 l 81 0 l 7 0 z "},"Ξ":{"ha":201,"x_min":10,"x_max":192,"o":"m 192 69 l 192 0 l 10 0 l 10 69 l 192 69 z m 176 518 l 176 449 l 24 449 l 24 518 l 176 518 z m 186 922 l 186 851 l 14 851 l 14 922 l 186 922 z "},"Π":{"ha":260,"x_min":17,"x_max":242,"o":"m 242 922 l 242 0 l 164 0 l 164 851 l 94 851 l 94 0 l 17 0 l 17 922 l 242 922 z "},"П":{"ha":260,"x_min":17,"x_max":242,"o":"m 242 922 l 242 0 l 164 0 l 164 851 l 94 851 l 94 0 l 17 0 l 17 922 l 242 922 z "},"Σ":{"ha":201,"x_min":10,"x_max":192,"o":"m 192 69 l 192 0 l 11 0 l 11 69 l 83 465 l 10 854 l 10 922 l 186 922 l 186 851 l 81 851 l 153 467 l 81 69 l 192 69 z "},"Φ":{"ha":356,"x_min":13,"x_max":344,"o":"m 215 186 l 215 0 l 140 0 l 140 186 l 100 186 q 33 209 53 186 q 13 279 13 232 l 13 279 l 13 690 q 100 785 13 785 l 100 785 l 140 785 l 140 922 l 215 922 l 215 785 l 256 785 q 344 690 344 785 l 344 690 l 344 279 q 256 186 344 186 l 256 186 l 215 186 z m 276 292 l 276 292 l 276 679 q 243 718 276 718 l 243 718 l 215 718 l 215 253 l 243 253 q 276 292 276 253 z m 113 253 l 140 253 l 140 718 l 113 718 q 79 679 79 718 l 79 679 l 79 292 q 113 253 79 253 l 113 253 z "},"Ф":{"ha":356,"x_min":13,"x_max":344,"o":"m 215 186 l 215 0 l 140 0 l 140 186 l 100 186 q 33 209 53 186 q 13 279 13 232 l 13 279 l 13 690 q 100 785 13 785 l 100 785 l 140 785 l 140 922 l 215 922 l 215 785 l 256 785 q 344 690 344 785 l 344 690 l 344 279 q 256 186 344 186 l 256 186 l 215 186 z m 276 292 l 276 292 l 276 679 q 243 718 276 718 l 243 718 l 215 718 l 215 253 l 243 253 q 276 292 276 253 z m 113 253 l 140 253 l 140 718 l 113 718 q 79 679 79 718 l 79 679 l 79 292 q 113 253 79 253 l 113 253 z "},"Ψ":{"ha":361,"x_min":14,"x_max":347,"o":"m 218 197 l 218 0 l 143 0 l 143 197 l 103 197 q 14 292 14 197 l 14 292 l 14 922 l 82 922 l 82 304 q 115 264 82 264 l 115 264 l 143 264 l 143 922 l 218 922 l 218 264 l 246 264 q 279 304 279 264 l 279 304 l 279 922 l 347 922 l 347 292 q 258 197 347 197 l 258 197 l 218 197 z "},"Ω":{"ha":269,"x_min":10,"x_max":260,"o":"m 260 67 l 260 0 l 149 0 l 149 63 q 172 200 172 79 l 172 200 l 172 813 q 135 854 172 854 l 135 854 q 94 813 94 854 l 94 813 l 94 200 q 121 63 94 79 l 121 63 l 121 0 l 10 0 l 10 67 l 57 67 l 57 72 q 17 201 17 106 l 17 201 l 17 822 q 48 899 17 872 q 135 926 79 926 q 221 899 190 926 q 251 822 251 872 l 251 822 l 251 201 q 242 119 251 146 q 210 72 232 92 l 210 72 l 210 67 l 260 67 z "},"ά":{"ha":267,"x_min":18,"x_max":257,"o":"m 257 65 l 257 0 l 246 0 q 169 42 181 0 l 169 42 l 164 42 q 90 -4 142 -4 l 90 -4 q 32 22 46 -4 q 18 100 18 47 l 18 100 l 18 593 q 38 656 18 633 q 93 679 58 679 l 93 679 q 158 632 136 679 l 158 632 l 164 632 l 167 675 l 232 675 l 232 89 q 246 65 232 65 l 246 65 l 257 65 z m 93 575 l 93 575 l 93 100 q 125 60 93 60 l 125 60 q 150 70 143 60 q 161 107 157 81 l 161 107 l 161 572 q 126 614 151 614 l 126 614 q 93 575 93 614 z m 160 942 l 146 725 l 100 725 l 100 942 l 160 942 z "},"έ":{"ha":244,"x_min":17,"x_max":226,"o":"m 157 942 l 143 725 l 97 725 l 97 942 l 157 942 z m 156 240 l 226 240 l 226 86 q 122 -4 226 -4 l 122 -4 q 17 85 17 -4 l 17 85 l 17 289 q 68 356 17 346 l 68 356 l 68 361 q 22 417 22 369 l 22 417 l 22 593 q 122 679 22 679 l 122 679 q 226 589 226 679 l 226 589 l 226 431 l 156 431 l 156 582 q 124 614 156 614 l 124 614 q 90 579 90 614 l 90 579 l 90 410 q 125 381 90 381 l 125 381 l 154 381 l 154 332 l 126 332 q 89 297 89 332 l 89 297 l 89 93 q 122 60 89 60 q 156 97 156 60 l 156 97 l 156 240 z "},"ή":{"ha":253,"x_min":18,"x_max":235,"o":"m 235 592 l 235 -324 l 160 -324 l 160 578 q 128 614 160 614 l 128 614 q 92 579 104 614 l 92 579 l 92 0 l 18 0 l 18 675 l 88 675 l 89 632 l 94 632 q 165 679 117 679 l 165 679 q 235 592 235 679 l 235 592 z m 161 942 l 147 725 l 101 725 l 101 942 l 161 942 z "},"ί":{"ha":128,"x_min":18,"x_max":118,"o":"m 118 65 l 118 0 l 106 0 q 18 88 18 0 l 18 88 l 18 675 l 92 675 l 92 88 q 107 65 92 65 l 107 65 l 118 65 z m 93 942 l 79 725 l 33 725 l 33 942 l 93 942 z "},"ΰ":{"ha":246,"x_min":6,"x_max":238,"o":"m 156 942 l 142 725 l 96 725 l 96 942 l 156 942 z m 157 101 l 157 101 l 157 675 l 226 675 l 226 101 q 122 -4 226 -4 q 18 101 18 -4 l 18 101 l 18 675 l 90 675 l 90 101 q 124 63 90 63 q 157 101 157 63 z m 79 840 l 79 736 l 6 736 l 6 840 l 79 840 z m 238 840 l 238 736 l 164 736 l 164 840 l 238 840 z "},"α":{"ha":267,"x_min":18,"x_max":257,"o":"m 257 65 l 257 0 l 246 0 q 169 42 181 0 l 169 42 l 164 42 q 90 -4 142 -4 l 90 -4 q 32 22 46 -4 q 18 100 18 47 l 18 100 l 18 593 q 38 656 18 633 q 93 679 58 679 l 93 679 q 158 632 136 679 l 158 632 l 164 632 l 167 675 l 232 675 l 232 89 q 246 65 232 65 l 246 65 l 257 65 z m 93 575 l 93 575 l 93 100 q 125 60 93 60 l 125 60 q 150 70 143 60 q 161 107 157 81 l 161 107 l 161 572 q 126 614 151 614 l 126 614 q 93 575 93 614 z "},"β":{"ha":251,"x_min":18,"x_max":233,"o":"m 90 11 l 90 -324 l 18 -324 l 18 850 q 43 917 18 896 q 126 938 68 938 l 126 938 q 206 918 182 938 q 229 851 229 899 l 229 851 l 229 575 q 183 513 229 528 l 183 513 l 183 507 q 233 429 233 494 l 233 429 l 233 101 q 143 -4 233 -4 l 143 -4 q 90 11 114 -4 l 90 11 z m 160 99 l 160 99 l 160 438 q 152 469 160 461 q 125 478 144 478 l 125 478 l 114 478 l 114 536 l 125 536 q 158 574 158 536 l 158 574 l 158 839 q 125 871 158 871 l 125 871 q 90 839 90 871 l 90 839 l 90 78 q 126 60 108 60 l 126 60 q 160 99 160 60 z "},"γ":{"ha":236,"x_min":4,"x_max":231,"o":"m 154 -82 l 154 -324 l 81 -324 l 81 -82 l 4 675 l 79 675 l 117 150 l 122 150 l 160 675 l 231 675 l 154 -82 z "},"ү":{"ha":236,"x_min":4,"x_max":231,"o":"m 154 -82 l 154 -324 l 81 -324 l 81 -82 l 4 675 l 79 675 l 117 150 l 122 150 l 160 675 l 231 675 l 154 -82 z "},"δ":{"ha":249,"x_min":18,"x_max":229,"o":"m 18 101 l 18 504 q 58 578 18 554 l 58 578 l 58 583 q 32 649 32 601 l 32 649 l 32 839 q 144 938 32 938 l 144 938 q 204 933 175 938 l 204 933 l 204 867 q 151 874 176 874 l 151 874 q 104 839 104 874 l 104 839 l 104 651 q 131 613 104 628 l 131 613 q 199 571 193 575 l 199 571 q 229 485 229 546 l 229 485 l 229 101 q 204 22 229 47 q 124 -4 179 -4 l 124 -4 q 18 101 18 -4 l 18 101 z m 157 101 l 157 101 l 157 488 q 132 539 157 519 l 132 539 l 108 553 q 90 504 90 535 l 90 504 l 90 101 q 124 63 90 63 q 157 101 157 63 z "},"ε":{"ha":244,"x_min":17,"x_max":226,"o":"m 156 240 l 226 240 l 226 86 q 122 -4 226 -4 l 122 -4 q 17 85 17 -4 l 17 85 l 17 289 q 68 356 17 346 l 68 356 l 68 361 q 22 417 22 369 l 22 417 l 22 593 q 122 679 22 679 l 122 679 q 226 589 226 679 l 226 589 l 226 431 l 156 431 l 156 582 q 124 614 156 614 l 124 614 q 90 579 90 614 l 90 579 l 90 410 q 125 381 90 381 l 125 381 l 154 381 l 154 332 l 126 332 q 89 297 89 332 l 89 297 l 89 93 q 122 60 89 60 q 156 97 156 60 l 156 97 l 156 240 z "},"ζ":{"ha":224,"x_min":18,"x_max":214,"o":"m 207 10 l 207 -240 l 132 -240 l 132 -14 q 119 0 132 0 l 119 0 l 82 0 q 18 68 18 0 l 18 68 l 18 400 q 33 510 18 456 l 33 510 l 140 867 l 25 867 l 25 933 l 214 933 l 214 867 l 103 490 q 92 411 92 451 l 92 411 l 92 86 q 111 65 92 65 l 111 65 l 157 65 q 207 10 207 65 l 207 10 z "},"η":{"ha":253,"x_min":18,"x_max":235,"o":"m 235 592 l 235 -324 l 160 -324 l 160 578 q 128 614 160 614 l 128 614 q 92 579 104 614 l 92 579 l 92 0 l 18 0 l 18 675 l 88 675 l 89 632 l 94 632 q 165 679 117 679 l 165 679 q 235 592 235 679 l 235 592 z "},"θ":{"ha":249,"x_min":18,"x_max":229,"o":"m 18 101 l 18 101 l 18 822 q 124 929 18 929 q 229 822 229 929 l 229 822 l 229 101 q 124 -4 229 -4 q 18 101 18 -4 z m 157 101 l 157 101 l 157 454 l 90 454 l 90 101 q 124 63 90 63 q 157 101 157 63 z m 90 510 l 157 510 l 157 822 q 124 863 157 863 q 90 822 90 863 l 90 822 l 90 510 z "},"ι":{"ha":128,"x_min":18,"x_max":118,"o":"m 118 65 l 118 0 l 106 0 q 18 88 18 0 l 18 88 l 18 675 l 92 675 l 92 88 q 107 65 92 65 l 107 65 l 118 65 z "},"κ":{"ha":250,"x_min":18,"x_max":246,"o":"m 172 383 l 244 0 l 168 0 l 118 269 l 114 269 l 92 188 l 92 0 l 18 0 l 18 675 l 92 675 l 92 388 l 97 388 l 168 675 l 246 675 l 172 383 z "},"к":{"ha":250,"x_min":18,"x_max":246,"o":"m 172 383 l 244 0 l 168 0 l 118 269 l 114 269 l 92 188 l 92 0 l 18 0 l 18 675 l 92 675 l 92 388 l 97 388 l 168 675 l 246 675 l 172 383 z "},"λ":{"ha":261,"x_min":4,"x_max":253,"o":"m 244 65 l 253 65 l 253 0 l 225 0 q 177 14 192 0 q 160 58 163 28 l 160 58 l 128 431 l 121 431 l 78 0 l 4 0 l 92 708 l 81 843 q 57 868 79 868 l 57 868 l 42 868 l 42 933 l 78 933 q 135 917 118 933 q 157 854 153 900 l 157 854 l 226 83 q 244 65 228 65 l 244 65 z "},"μ":{"ha":251,"x_min":18,"x_max":233,"o":"m 83 6 l 93 -324 l 18 -324 l 18 675 l 93 675 l 93 96 q 122 61 93 61 l 122 61 q 160 100 150 61 l 160 100 l 160 675 l 233 675 l 233 0 l 164 0 l 163 42 l 157 42 q 106 0 139 0 l 106 0 q 83 6 89 0 l 83 6 z "},"ξ":{"ha":239,"x_min":18,"x_max":226,"o":"m 218 10 l 218 -240 l 143 -240 l 143 -14 q 132 0 143 0 l 132 0 l 82 0 q 18 68 18 0 l 18 68 l 18 465 q 69 531 18 521 l 69 531 l 69 536 q 24 592 24 549 l 24 592 l 24 853 q 124 938 24 938 l 124 938 q 226 847 226 938 l 226 847 l 226 707 l 157 707 l 157 842 q 125 872 157 872 l 125 872 q 92 838 92 872 l 92 838 l 92 585 q 126 556 92 556 l 126 556 l 154 556 l 154 507 l 129 507 q 92 474 92 507 l 92 474 l 92 86 q 111 65 92 65 l 111 65 l 169 65 q 218 10 218 65 l 218 10 z "},"π":{"ha":310,"x_min":10,"x_max":300,"o":"m 283 65 l 283 0 l 274 0 q 185 88 185 0 l 185 88 l 185 608 l 124 608 l 124 0 l 49 0 l 49 608 l 10 608 l 10 675 l 300 675 l 300 608 l 258 608 l 258 88 q 274 65 258 65 l 274 65 l 283 65 z "},"ρ":{"ha":249,"x_min":18,"x_max":229,"o":"m 157 100 l 157 100 l 157 572 q 124 613 157 613 q 90 572 90 613 l 90 572 l 90 96 q 125 60 96 60 l 125 60 q 157 100 157 60 z m 90 35 l 90 -324 l 18 -324 l 18 572 q 124 679 18 679 q 229 572 229 679 l 229 572 l 229 81 q 210 18 229 40 q 157 -4 192 -4 l 157 -4 q 96 35 117 -4 l 96 35 l 90 35 z "},"ς":{"ha":246,"x_min":18,"x_max":226,"o":"m 226 10 l 226 -240 l 153 -240 l 153 -14 q 142 0 153 0 l 142 0 l 82 0 q 18 68 18 0 l 18 68 l 18 572 q 124 679 18 679 l 124 679 q 226 572 226 679 l 226 572 l 226 431 l 157 431 l 157 572 q 124 613 157 613 q 90 572 90 613 l 90 572 l 90 86 q 110 65 90 65 l 110 65 l 179 65 q 226 10 226 65 l 226 10 z "},"σ":{"ha":263,"x_min":18,"x_max":253,"o":"m 124 675 l 253 675 l 253 608 l 221 608 q 226 568 226 586 l 226 568 l 226 101 q 202 22 226 47 q 124 -4 178 -4 l 124 -4 q 18 101 18 -4 l 18 101 l 18 568 q 124 675 18 675 l 124 675 z m 157 101 l 157 568 q 150 608 157 592 l 150 608 l 133 608 q 90 568 90 608 l 90 568 l 90 103 q 124 63 90 63 q 157 101 157 63 l 157 101 z "},"τ":{"ha":197,"x_min":10,"x_max":188,"o":"m 161 65 l 161 0 l 150 0 q 61 88 61 0 l 61 88 l 61 608 l 10 608 l 10 675 l 188 675 l 188 608 l 136 608 l 136 88 q 151 65 136 65 l 151 65 l 161 65 z "},"υ":{"ha":246,"x_min":18,"x_max":226,"o":"m 157 101 l 157 101 l 157 675 l 226 675 l 226 101 q 122 -4 226 -4 q 18 101 18 -4 l 18 101 l 18 675 l 90 675 l 90 101 q 124 63 90 63 q 157 101 157 63 z "},"φ":{"ha":353,"x_min":18,"x_max":336,"o":"m 213 0 l 213 -324 l 140 -324 l 140 0 l 88 0 q 37 22 56 0 q 18 81 18 43 l 18 81 l 18 594 q 37 653 18 631 q 88 675 56 675 l 88 675 l 140 675 l 140 933 l 213 933 l 213 675 l 265 675 q 317 653 297 675 q 336 594 336 631 l 336 594 l 336 81 q 317 22 336 43 q 265 0 297 0 l 265 0 l 213 0 z m 114 61 l 140 61 l 140 614 l 114 614 q 86 579 86 614 l 86 579 l 86 96 q 114 61 86 61 l 114 61 z m 239 614 l 213 614 l 213 61 l 239 61 q 267 96 267 61 l 267 96 l 267 579 q 239 614 267 614 l 239 614 z "},"ф":{"ha":353,"x_min":18,"x_max":336,"o":"m 213 0 l 213 -324 l 140 -324 l 140 0 l 88 0 q 37 22 56 0 q 18 81 18 43 l 18 81 l 18 594 q 37 653 18 631 q 88 675 56 675 l 88 675 l 140 675 l 140 933 l 213 933 l 213 675 l 265 675 q 317 653 297 675 q 336 594 336 631 l 336 594 l 336 81 q 317 22 336 43 q 265 0 297 0 l 265 0 l 213 0 z m 114 61 l 140 61 l 140 614 l 114 614 q 86 579 86 614 l 86 579 l 86 96 q 114 61 86 61 l 114 61 z m 239 614 l 213 614 l 213 61 l 239 61 q 267 96 267 61 l 267 96 l 267 579 q 239 614 267 614 l 239 614 z "},"χ":{"ha":247,"x_min":4,"x_max":243,"o":"m 176 199 l 243 -324 l 167 -324 l 125 74 l 119 74 l 79 -324 l 4 -324 l 71 182 l 7 675 l 82 675 l 124 299 l 129 299 l 167 675 l 240 675 l 176 199 z "},"ψ":{"ha":353,"x_min":18,"x_max":336,"o":"m 213 0 l 213 -324 l 140 -324 l 140 0 l 88 0 q 37 22 56 0 q 18 81 18 43 l 18 81 l 18 675 l 86 675 l 86 96 q 114 61 86 61 l 114 61 l 140 61 l 140 933 l 213 933 l 213 61 l 239 61 q 267 96 267 61 l 267 96 l 267 675 l 336 675 l 336 81 q 317 22 336 43 q 265 0 297 0 l 265 0 l 213 0 z "},"ω":{"ha":364,"x_min":18,"x_max":346,"o":"m 274 103 l 274 103 l 274 593 q 256 675 274 643 l 256 675 l 328 675 q 346 593 346 651 l 346 593 l 346 104 q 264 -4 346 -4 l 264 -4 q 185 33 213 -4 l 185 33 l 179 33 q 100 -4 151 -4 l 100 -4 q 18 104 18 -4 l 18 104 l 18 593 q 35 675 18 650 l 35 675 l 107 675 q 90 593 90 642 l 90 593 l 90 103 q 119 63 90 63 l 119 63 q 150 101 150 63 l 150 101 l 150 476 l 213 476 l 213 101 q 243 63 213 63 q 274 103 274 63 z "},"ϊ":{"ha":169,"x_min":-6,"x_max":169,"o":"m 144 65 l 144 0 l 132 0 q 44 88 44 0 l 44 88 l 44 675 l 118 675 l 118 88 q 133 65 118 65 l 133 65 l 144 65 z m 63 840 l 63 736 l -6 736 l -6 840 l 63 840 z m 169 840 l 169 736 l 101 736 l 101 840 l 169 840 z "},"ϋ":{"ha":246,"x_min":18,"x_max":226,"o":"m 157 101 l 157 101 l 157 675 l 226 675 l 226 101 q 122 -4 226 -4 q 18 101 18 -4 l 18 101 l 18 675 l 90 675 l 90 101 q 124 63 90 63 q 157 101 157 63 z m 104 840 l 104 736 l 36 736 l 36 840 l 104 840 z m 211 840 l 211 736 l 143 736 l 143 840 l 211 840 z "},"ό":{"ha":249,"x_min":18,"x_max":229,"o":"m 229 572 l 229 572 l 229 101 q 124 -4 229 -4 q 18 101 18 -4 l 18 101 l 18 572 q 124 679 18 679 q 229 572 229 679 z m 157 101 l 157 101 l 157 572 q 124 613 157 613 q 90 572 90 613 l 90 572 l 90 101 q 124 63 90 63 q 157 101 157 63 z m 158 942 l 144 725 l 99 725 l 99 942 l 158 942 z "},"ύ":{"ha":246,"x_min":18,"x_max":226,"o":"m 156 942 l 142 725 l 96 725 l 96 942 l 156 942 z m 157 101 l 157 101 l 157 675 l 226 675 l 226 101 q 122 -4 226 -4 q 18 101 18 -4 l 18 101 l 18 675 l 90 675 l 90 101 q 124 63 90 63 q 157 101 157 63 z "},"ώ":{"ha":364,"x_min":18,"x_max":346,"o":"m 274 103 l 274 103 l 274 593 q 256 675 274 643 l 256 675 l 328 675 q 346 593 346 651 l 346 593 l 346 104 q 264 -4 346 -4 l 264 -4 q 185 33 213 -4 l 185 33 l 179 33 q 100 -4 151 -4 l 100 -4 q 18 104 18 -4 l 18 104 l 18 593 q 35 675 18 650 l 35 675 l 107 675 q 90 593 90 642 l 90 593 l 90 103 q 119 63 90 63 l 119 63 q 150 101 150 63 l 150 101 l 150 476 l 213 476 l 213 101 q 243 63 213 63 q 274 103 274 63 z m 211 942 l 197 725 l 151 725 l 151 942 l 211 942 z "},"Ђ":{"ha":303,"x_min":11,"x_max":285,"o":"m 143 0 l 65 0 l 65 851 l 11 851 l 11 922 l 204 922 l 204 851 l 143 851 l 143 589 l 149 589 q 217 625 179 625 l 217 625 q 285 544 285 625 l 285 544 l 285 -218 q 175 -324 285 -324 q 65 -218 65 -324 l 65 -218 l 65 -56 l 143 -56 l 143 -218 q 175 -257 143 -257 q 207 -218 207 -257 l 207 -218 l 207 522 q 178 556 207 556 l 178 556 q 143 513 150 556 l 143 513 l 143 0 z "},"Ѓ":{"ha":207,"x_min":17,"x_max":196,"o":"m 150 1121 l 189 1076 l 76 953 l 47 982 l 150 1121 z m 94 851 l 94 0 l 17 0 l 17 922 l 196 922 l 196 851 l 94 851 z "},"Є":{"ha":251,"x_min":17,"x_max":235,"o":"m 161 268 l 235 268 l 235 113 q 126 -4 235 -4 l 126 -4 q 17 114 17 -4 l 17 114 l 17 806 q 45 894 17 863 q 125 926 74 926 l 125 926 q 207 894 179 926 q 235 804 235 863 l 235 804 l 235 661 l 161 661 l 161 811 q 128 854 161 854 l 128 854 q 93 813 93 854 l 93 813 l 93 518 l 161 518 l 161 454 l 93 454 l 93 108 q 128 67 93 67 l 128 67 q 161 108 161 67 l 161 108 l 161 268 z "},"Љ":{"ha":425,"x_min":11,"x_max":413,"o":"m 78 922 l 271 922 l 271 529 l 324 529 q 413 442 413 529 l 413 442 l 413 93 q 324 0 413 0 l 324 0 l 193 0 l 193 851 l 139 851 l 132 581 q 99 58 121 139 l 99 58 q 22 0 82 0 l 22 0 l 11 0 l 11 71 l 17 71 q 43 104 38 71 l 43 104 q 68 582 57 188 l 68 582 l 78 922 z m 271 461 l 271 69 l 307 69 q 339 118 339 69 l 339 118 l 339 425 q 333 454 339 447 q 308 461 326 461 l 308 461 l 271 461 z "},"Њ":{"ha":396,"x_min":17,"x_max":385,"o":"m 164 922 l 242 922 l 242 529 l 294 529 q 385 442 385 529 l 385 442 l 385 93 q 294 0 385 0 l 294 0 l 164 0 l 164 461 l 94 461 l 94 0 l 17 0 l 17 922 l 94 922 l 94 529 l 164 529 l 164 922 z m 242 461 l 242 69 l 279 69 q 311 118 311 69 l 311 118 l 311 425 q 305 454 311 447 q 281 461 299 461 l 281 461 l 242 461 z "},"Ћ":{"ha":301,"x_min":11,"x_max":285,"o":"m 143 0 l 65 0 l 65 851 l 11 851 l 11 922 l 204 922 l 204 851 l 143 851 l 143 589 l 149 589 q 217 625 179 625 l 217 625 q 285 544 285 625 l 285 544 l 285 0 l 207 0 l 207 522 q 178 556 207 556 l 178 556 q 156 548 164 556 q 143 521 149 540 l 143 521 l 143 0 z "},"Ќ":{"ha":256,"x_min":17,"x_max":250,"o":"m 176 565 l 249 0 l 171 0 l 121 396 l 118 396 l 94 290 l 94 0 l 17 0 l 17 922 l 94 922 l 94 563 l 100 563 l 172 922 l 250 922 l 176 565 z m 167 1121 l 206 1076 l 93 953 l 64 982 l 167 1121 z "},"Ѝ":{"ha":272,"x_min":17,"x_max":256,"o":"m 196 982 l 167 953 l 54 1076 l 93 1121 l 196 982 z m 256 922 l 256 0 l 181 0 l 181 629 l 176 629 l 99 0 l 17 0 l 17 922 l 92 922 l 92 324 l 97 324 l 168 922 l 256 922 z "},"Ў":{"ha":256,"x_min":17,"x_max":238,"o":"m 197 991 q 126 953 169 953 q 56 992 83 953 q 29 1093 29 1031 l 29 1093 l 83 1093 q 126 1000 85 1000 l 126 1000 q 169 1093 165 1000 l 169 1093 l 224 1093 q 197 991 224 1029 z m 161 108 l 161 108 l 161 385 l 156 385 q 92 350 139 350 l 92 350 q 17 467 17 350 l 17 467 l 17 922 l 92 922 l 92 463 q 124 421 92 421 q 161 456 156 421 l 161 456 l 161 922 l 238 922 l 238 114 q 128 -4 238 -4 l 128 -4 q 17 113 17 -4 l 17 113 l 17 307 l 92 307 l 92 108 q 126 67 92 67 q 161 108 161 67 z "},"Џ":{"ha":260,"x_min":17,"x_max":242,"o":"m 158 0 l 158 -192 l 100 -192 l 100 0 l 17 0 l 17 922 l 94 922 l 94 71 l 164 71 l 164 922 l 242 922 l 242 0 l 158 0 z "},"Б":{"ha":249,"x_min":17,"x_max":236,"o":"m 17 922 l 196 922 l 196 851 l 94 851 l 94 529 l 147 529 q 236 442 236 529 l 236 442 l 236 93 q 147 0 236 0 l 147 0 l 17 0 l 17 922 z m 94 461 l 94 69 l 131 69 q 163 118 163 69 l 163 118 l 163 425 q 156 454 163 447 q 132 461 150 461 l 132 461 l 94 461 z "},"Д":{"ha":310,"x_min":10,"x_max":300,"o":"m 300 71 l 300 -192 l 243 -192 l 243 0 l 67 0 l 67 -192 l 10 -192 l 10 71 l 17 71 q 35 85 29 71 l 35 85 q 69 581 56 124 l 69 581 l 79 922 l 272 922 l 272 71 l 300 71 z m 99 71 l 194 71 l 194 851 l 140 851 l 133 579 q 99 71 121 113 l 99 71 z "},"Ж":{"ha":406,"x_min":4,"x_max":401,"o":"m 158 410 l 85 0 l 4 0 l 96 469 l 8 922 l 88 922 l 158 549 l 164 549 l 164 922 l 240 922 l 240 549 l 246 549 l 318 922 l 397 922 l 307 469 l 401 0 l 319 0 l 246 410 l 240 410 l 240 0 l 164 0 l 164 410 l 158 410 z "},"И":{"ha":272,"x_min":17,"x_max":256,"o":"m 256 922 l 256 0 l 181 0 l 181 629 l 176 629 l 99 0 l 17 0 l 17 922 l 92 922 l 92 324 l 97 324 l 168 922 l 256 922 z "},"Й":{"ha":272,"x_min":17,"x_max":256,"o":"m 208 991 q 138 953 181 953 q 67 992 94 953 q 40 1093 40 1031 l 40 1093 l 94 1093 q 138 1000 96 1000 l 138 1000 q 181 1093 176 1000 l 181 1093 l 235 1093 q 208 991 235 1029 z m 256 922 l 256 0 l 181 0 l 181 629 l 176 629 l 99 0 l 17 0 l 17 922 l 92 922 l 92 324 l 97 324 l 168 922 l 256 922 z "},"Л":{"ha":288,"x_min":11,"x_max":271,"o":"m 271 922 l 271 0 l 193 0 l 193 851 l 139 851 l 132 581 q 99 58 121 139 l 99 58 q 22 0 82 0 l 22 0 l 11 0 l 11 71 l 17 71 q 43 104 38 71 l 43 104 q 68 582 57 188 l 68 582 l 78 922 l 271 922 z "},"У":{"ha":256,"x_min":17,"x_max":238,"o":"m 161 108 l 161 108 l 161 385 l 156 385 q 92 350 139 350 l 92 350 q 17 467 17 350 l 17 467 l 17 922 l 92 922 l 92 463 q 124 421 92 421 q 161 456 156 421 l 161 456 l 161 922 l 238 922 l 238 114 q 128 -4 238 -4 l 128 -4 q 17 113 17 -4 l 17 113 l 17 307 l 92 307 l 92 108 q 126 67 92 67 q 161 108 161 67 z "},"Ц":{"ha":279,"x_min":17,"x_max":271,"o":"m 271 71 l 271 -192 l 213 -192 l 213 0 l 17 0 l 17 922 l 94 922 l 94 71 l 164 71 l 164 922 l 242 922 l 242 71 l 271 71 z "},"Ч":{"ha":256,"x_min":17,"x_max":238,"o":"m 238 922 l 238 0 l 161 0 l 161 410 l 157 410 q 97 397 132 397 l 97 397 q 35 421 53 397 q 17 503 17 444 l 17 503 l 17 922 l 92 922 l 92 507 q 125 468 92 468 l 125 468 q 161 479 151 468 l 161 479 l 161 922 l 238 922 z "},"Ш":{"ha":386,"x_min":17,"x_max":368,"o":"m 368 922 l 368 0 l 17 0 l 17 922 l 94 922 l 94 71 l 156 71 l 156 922 l 228 922 l 228 71 l 290 71 l 290 922 l 368 922 z "},"Щ":{"ha":407,"x_min":17,"x_max":397,"o":"m 397 71 l 397 -192 l 339 -192 l 339 0 l 17 0 l 17 922 l 94 922 l 94 71 l 156 71 l 156 922 l 228 922 l 228 71 l 290 71 l 290 922 l 368 922 l 368 71 l 397 71 z "},"Ъ":{"ha":329,"x_min":11,"x_max":317,"o":"m 228 0 l 96 0 l 96 851 l 11 851 l 11 922 l 175 922 l 175 529 l 228 529 q 297 505 276 529 q 317 429 317 481 l 317 429 l 317 93 q 228 0 317 0 l 228 0 z m 175 461 l 175 69 l 211 69 q 243 114 243 69 l 243 114 l 243 421 q 235 453 243 444 q 204 461 226 461 l 204 461 l 175 461 z "},"Ы":{"ha":358,"x_min":17,"x_max":342,"o":"m 342 922 l 342 0 l 264 0 l 264 922 l 342 922 z m 17 922 l 94 922 l 94 529 l 147 529 q 236 442 236 529 l 236 442 l 236 93 q 147 0 236 0 l 147 0 l 17 0 l 17 922 z m 94 461 l 94 69 l 131 69 q 163 118 163 69 l 163 118 l 163 425 q 156 454 163 447 q 132 461 150 461 l 132 461 l 94 461 z "},"Ь":{"ha":249,"x_min":17,"x_max":236,"o":"m 17 922 l 94 922 l 94 529 l 147 529 q 236 442 236 529 l 236 442 l 236 93 q 147 0 236 0 l 147 0 l 17 0 l 17 922 z m 94 461 l 94 69 l 131 69 q 163 118 163 69 l 163 118 l 163 425 q 156 454 163 447 q 132 461 150 461 l 132 461 l 94 461 z "},"Э":{"ha":251,"x_min":17,"x_max":235,"o":"m 17 113 l 17 113 l 17 268 l 89 268 l 89 108 q 124 67 89 67 q 158 108 158 67 l 158 108 l 158 454 l 89 454 l 89 518 l 158 518 l 158 813 q 124 854 158 854 q 89 811 89 854 l 89 811 l 89 661 l 17 661 l 17 804 q 44 894 17 863 q 126 926 72 926 l 126 926 q 206 894 178 926 q 235 806 235 863 l 235 806 l 235 114 q 125 -4 235 -4 l 125 -4 q 17 113 17 -4 z "},"Ю":{"ha":383,"x_min":17,"x_max":365,"o":"m 94 450 l 94 0 l 17 0 l 17 922 l 94 922 l 94 518 l 143 518 l 143 806 q 172 894 143 863 q 254 926 201 926 q 336 894 307 926 q 365 804 365 861 l 365 804 l 365 113 q 256 -4 365 -4 l 256 -4 q 143 114 143 -4 l 143 114 l 143 450 l 94 450 z m 289 108 l 289 108 l 289 811 q 254 854 289 854 q 219 811 219 854 l 219 811 l 219 108 q 254 67 219 67 q 289 108 289 67 z "},"Я":{"ha":249,"x_min":4,"x_max":231,"o":"m 124 404 l 81 0 l 4 0 l 51 415 q 13 511 13 440 l 13 511 l 13 810 q 31 896 13 869 q 100 922 49 922 l 100 922 l 231 922 l 231 0 l 153 0 l 153 404 l 124 404 z m 85 810 l 85 507 q 117 467 85 467 l 117 467 l 153 467 l 153 851 l 117 851 q 85 810 85 851 l 85 810 z "},"б":{"ha":250,"x_min":18,"x_max":233,"o":"m 157 100 l 157 100 l 157 575 q 125 614 157 614 l 125 614 q 90 579 99 614 l 90 579 l 90 100 q 124 60 90 60 q 157 100 157 60 z m 233 593 l 233 593 l 233 81 q 126 -4 233 -4 l 126 -4 q 18 101 18 -4 l 18 101 l 18 804 q 34 903 18 874 q 94 933 50 933 l 94 933 l 139 933 q 175 967 171 933 l 175 967 l 219 967 q 165 867 219 867 l 165 867 l 124 867 q 88 804 88 867 l 88 804 l 88 640 l 93 640 q 157 679 115 679 l 157 679 q 213 656 193 679 q 233 593 233 633 z "},"в":{"ha":247,"x_min":18,"x_max":232,"o":"m 225 589 l 225 425 q 182 361 225 374 l 182 361 l 182 356 q 232 286 232 346 l 232 286 l 232 97 q 208 23 232 46 q 128 0 183 0 l 128 0 l 18 0 l 18 675 l 129 675 q 202 654 179 675 q 225 589 225 633 l 225 589 z m 125 332 l 125 332 l 92 332 l 92 60 l 129 60 q 160 94 160 60 l 160 94 l 160 299 q 125 332 160 332 z m 157 408 l 157 408 l 157 576 q 128 610 157 610 l 128 610 l 92 610 l 92 381 l 126 381 q 157 408 157 381 z "},"г":{"ha":168,"x_min":18,"x_max":158,"o":"m 92 608 l 92 0 l 18 0 l 18 675 l 158 675 l 158 608 l 92 608 z "},"д":{"ha":292,"x_min":10,"x_max":283,"o":"m 283 65 l 283 -208 l 225 -208 l 225 0 l 67 0 l 67 -208 l 10 -208 l 10 65 l 19 65 q 35 78 29 65 q 46 131 40 92 q 56 238 51 169 q 64 421 60 307 l 64 421 l 74 675 l 254 675 l 254 65 l 283 65 z m 89 65 l 179 65 l 179 608 l 131 608 l 121 419 q 105 142 110 200 q 89 65 100 83 l 89 65 z "},"ж":{"ha":378,"x_min":4,"x_max":374,"o":"m 292 344 l 374 0 l 296 0 l 231 304 l 225 304 l 225 0 l 153 0 l 153 304 l 147 304 l 82 0 l 4 0 l 85 344 l 8 675 l 85 675 l 147 400 l 153 400 l 153 675 l 225 675 l 225 400 l 231 400 l 294 675 l 369 675 l 292 344 z "},"з":{"ha":244,"x_min":17,"x_max":226,"o":"m 226 289 l 226 289 l 226 85 q 121 -4 226 -4 l 121 -4 q 17 86 17 -4 l 17 86 l 17 240 l 89 240 l 89 97 q 122 60 89 60 l 122 60 q 154 93 154 60 l 154 93 l 154 297 q 117 332 154 332 l 117 332 l 90 332 l 90 381 l 118 381 q 153 410 153 381 l 153 410 l 153 579 q 121 614 153 614 l 121 614 q 88 582 88 614 l 88 582 l 88 468 l 17 468 l 17 589 q 122 679 17 679 l 122 679 q 219 593 219 679 l 219 593 l 219 417 q 175 361 219 369 l 175 361 l 175 356 q 226 289 226 346 z "},"и":{"ha":263,"x_min":18,"x_max":243,"o":"m 243 675 l 243 0 l 171 0 l 171 417 l 165 417 l 94 0 l 18 0 l 18 675 l 90 675 l 90 260 l 96 260 l 164 675 l 243 675 z "},"й":{"ha":263,"x_min":18,"x_max":243,"o":"m 201 742 q 131 704 174 704 q 60 743 88 704 q 33 844 33 782 l 33 844 l 88 844 q 131 751 89 751 l 131 751 q 174 844 169 751 l 174 844 l 228 844 q 201 742 228 781 z m 243 675 l 243 0 l 171 0 l 171 417 l 165 417 l 94 0 l 18 0 l 18 675 l 90 675 l 90 260 l 96 260 l 164 675 l 243 675 z "},"л":{"ha":269,"x_min":10,"x_max":250,"o":"m 250 675 l 250 0 l 175 0 l 175 608 l 126 608 l 117 432 q 97 126 103 194 q 83 35 92 57 l 83 35 q 19 0 69 0 l 19 0 l 10 0 l 10 65 l 15 65 q 36 82 31 65 l 36 82 q 60 432 49 118 l 60 432 l 69 675 l 250 675 z "},"м":{"ha":338,"x_min":18,"x_max":319,"o":"m 319 675 l 319 0 l 254 0 l 254 365 q 258 513 254 438 l 258 513 l 253 513 l 201 0 l 136 0 l 85 513 l 79 513 q 82 365 82 463 l 82 365 l 82 0 l 18 0 l 18 675 l 126 675 l 168 181 l 172 181 l 213 675 l 319 675 z "},"н":{"ha":254,"x_min":18,"x_max":235,"o":"m 235 675 l 235 0 l 161 0 l 161 315 l 92 315 l 92 0 l 18 0 l 18 675 l 92 675 l 92 382 l 161 382 l 161 675 l 235 675 z "},"п":{"ha":254,"x_min":18,"x_max":235,"o":"m 235 675 l 235 0 l 161 0 l 161 608 l 92 608 l 92 0 l 18 0 l 18 675 l 235 675 z "},"т":{"ha":211,"x_min":11,"x_max":201,"o":"m 143 608 l 143 0 l 68 0 l 68 608 l 11 608 l 11 675 l 201 675 l 201 608 l 143 608 z "},"ц":{"ha":274,"x_min":18,"x_max":264,"o":"m 264 65 l 264 -186 l 206 -186 l 206 0 l 18 0 l 18 675 l 92 675 l 92 65 l 161 65 l 161 675 l 235 675 l 235 65 l 264 65 z "},"ч":{"ha":253,"x_min":17,"x_max":233,"o":"m 233 675 l 233 0 l 160 0 l 160 293 l 154 293 q 94 279 131 279 l 94 279 q 35 296 53 279 q 17 351 17 313 l 17 351 l 17 675 l 90 675 l 90 371 q 125 343 90 343 l 125 343 q 160 351 150 343 l 160 351 l 160 675 l 233 675 z "},"ш":{"ha":372,"x_min":18,"x_max":354,"o":"m 354 675 l 354 0 l 18 0 l 18 675 l 92 675 l 92 65 l 153 65 l 153 675 l 219 675 l 219 65 l 281 65 l 281 675 l 354 675 z "},"щ":{"ha":393,"x_min":18,"x_max":383,"o":"m 383 65 l 383 -186 l 325 -186 l 325 0 l 18 0 l 18 675 l 92 675 l 92 65 l 153 65 l 153 675 l 219 675 l 219 65 l 281 65 l 281 675 l 354 675 l 354 65 l 383 65 z "},"ъ":{"ha":296,"x_min":7,"x_max":282,"o":"m 7 675 l 146 675 l 146 411 l 196 411 q 263 394 243 411 q 282 336 282 376 l 282 336 l 282 69 q 196 0 282 0 l 196 0 l 71 0 l 71 608 l 7 608 l 7 675 z m 146 349 l 146 64 l 181 64 q 211 93 211 64 l 211 93 l 211 321 q 181 349 211 349 l 181 349 l 146 349 z "},"ы":{"ha":347,"x_min":18,"x_max":328,"o":"m 18 675 l 92 675 l 92 411 l 143 411 q 208 394 189 411 q 228 336 228 376 l 228 336 l 228 69 q 143 0 228 0 l 143 0 l 18 0 l 18 675 z m 92 349 l 92 64 l 128 64 q 158 93 158 64 l 158 93 l 158 321 q 128 349 158 349 l 128 349 l 92 349 z m 328 675 l 328 0 l 254 0 l 254 675 l 328 675 z "},"ь":{"ha":242,"x_min":18,"x_max":228,"o":"m 18 675 l 92 675 l 92 411 l 143 411 q 208 394 189 411 q 228 336 228 376 l 228 336 l 228 69 q 143 0 228 0 l 143 0 l 18 0 l 18 675 z m 92 349 l 92 64 l 128 64 q 158 93 158 64 l 158 93 l 158 321 q 128 349 158 349 l 128 349 l 92 349 z "},"э":{"ha":246,"x_min":18,"x_max":228,"o":"m 156 99 l 156 326 l 89 326 l 89 381 l 156 381 l 156 575 q 122 614 156 614 l 122 614 q 90 583 90 614 l 90 583 l 90 471 l 19 471 l 19 585 q 122 679 19 679 l 122 679 q 228 572 228 679 l 228 572 l 228 101 q 122 -4 228 -4 l 122 -4 q 18 101 18 -4 l 18 101 l 18 238 l 89 238 l 89 97 q 122 60 89 60 q 156 99 156 60 l 156 99 z "},"ю":{"ha":368,"x_min":18,"x_max":349,"o":"m 349 572 l 349 572 l 349 101 q 324 22 349 47 q 243 -4 299 -4 l 243 -4 q 139 101 139 -4 l 139 101 l 139 318 l 90 318 l 90 0 l 18 0 l 18 675 l 90 675 l 90 385 l 139 385 l 139 572 q 164 653 139 628 q 243 679 189 679 l 243 679 q 324 653 299 679 q 349 572 349 628 z m 276 101 l 276 101 l 276 572 q 243 613 276 613 q 210 572 210 613 l 210 572 l 210 101 q 243 63 210 63 q 276 101 276 63 z "},"я":{"ha":247,"x_min":4,"x_max":228,"o":"m 122 275 l 79 0 l 4 0 l 54 282 q 18 351 18 297 l 18 351 l 18 604 q 103 675 18 675 l 103 675 l 228 675 l 228 0 l 154 0 l 154 275 l 122 275 z m 88 578 l 88 363 q 118 335 88 335 l 118 335 l 154 335 l 154 610 l 118 610 q 88 578 88 610 l 88 578 z "},"ђ":{"ha":253,"x_min":-1,"x_max":235,"o":"m 165 804 l 165 757 l 92 757 l 92 631 l 97 631 q 167 679 118 679 l 167 679 q 219 657 204 679 q 235 585 235 635 l 235 585 l 235 -218 q 125 -324 235 -324 l 125 -324 q 18 -218 18 -324 l 18 -218 l 18 -37 l 92 -37 l 92 -218 q 125 -257 92 -257 l 125 -257 q 160 -218 160 -257 l 160 -218 l 160 578 q 128 614 160 614 l 128 614 q 92 575 100 614 l 92 575 l 92 0 l 18 0 l 18 757 l -1 757 l -1 804 l 18 804 l 18 933 l 92 933 l 92 804 l 165 804 z "},"ѓ":{"ha":168,"x_min":18,"x_max":169,"o":"m 131 872 l 169 828 l 57 704 l 28 733 l 131 872 z m 92 608 l 92 0 l 18 0 l 18 675 l 158 675 l 158 608 l 92 608 z "},"є":{"ha":246,"x_min":18,"x_max":226,"o":"m 156 381 l 156 326 l 90 326 l 90 99 q 124 60 90 60 q 157 97 157 60 l 157 97 l 157 238 l 226 238 l 226 101 q 124 -4 226 -4 l 124 -4 q 18 101 18 -4 l 18 101 l 18 572 q 124 679 18 679 l 124 679 q 225 585 225 679 l 225 585 l 225 471 l 156 471 l 156 583 q 124 614 156 614 l 124 614 q 90 575 90 614 l 90 575 l 90 381 l 156 381 z "},"љ":{"ha":400,"x_min":10,"x_max":386,"o":"m 69 675 l 250 675 l 250 411 l 300 411 q 367 394 347 411 q 386 336 386 376 l 386 336 l 386 69 q 300 0 386 0 l 300 0 l 175 0 l 175 608 l 126 608 l 117 432 q 97 126 103 194 q 83 35 92 57 l 83 35 q 19 0 69 0 l 19 0 l 10 0 l 10 65 l 15 65 q 36 82 31 65 l 36 82 q 60 432 49 118 l 60 432 l 69 675 z m 250 349 l 250 64 l 285 64 q 317 93 317 64 l 317 93 l 317 321 q 285 349 317 349 l 285 349 l 250 349 z "},"њ":{"ha":385,"x_min":18,"x_max":371,"o":"m 161 675 l 235 675 l 235 411 l 286 411 q 351 394 332 411 q 371 336 371 376 l 371 336 l 371 69 q 286 0 371 0 l 286 0 l 161 0 l 161 349 l 92 349 l 92 0 l 18 0 l 18 675 l 92 675 l 92 411 l 161 411 l 161 675 z m 235 349 l 235 64 l 271 64 q 301 93 301 64 l 301 93 l 301 321 q 271 349 301 349 l 271 349 l 235 349 z "},"ќ":{"ha":250,"x_min":18,"x_max":246,"o":"m 174 872 l 213 828 l 100 704 l 71 733 l 174 872 z m 172 383 l 244 0 l 168 0 l 118 269 l 114 269 l 92 188 l 92 0 l 18 0 l 18 675 l 92 675 l 92 388 l 97 388 l 168 675 l 246 675 l 172 383 z "},"ѝ":{"ha":263,"x_min":18,"x_max":243,"o":"m 189 733 l 160 704 l 47 828 l 86 872 l 189 733 z m 243 675 l 243 0 l 171 0 l 171 417 l 165 417 l 94 0 l 18 0 l 18 675 l 90 675 l 90 260 l 96 260 l 164 675 l 243 675 z "},"ў":{"ha":251,"x_min":18,"x_max":232,"o":"m 18 675 l 93 675 l 93 107 q 125 68 93 68 l 125 68 q 161 111 153 68 l 161 111 l 161 675 l 232 675 l 232 -218 q 125 -324 232 -324 l 125 -324 q 19 -218 19 -324 l 19 -218 l 19 -42 l 92 -42 l 92 -218 q 125 -257 92 -257 q 158 -218 158 -257 l 158 -218 l 158 39 l 154 39 q 92 0 136 0 l 92 0 q 18 104 18 0 l 18 104 l 18 675 z m 198 742 q 128 704 171 704 q 58 743 85 704 q 31 844 31 782 l 31 844 l 85 844 q 128 751 86 751 l 128 751 q 171 844 167 751 l 171 844 l 225 844 q 198 742 225 781 z "},"џ":{"ha":254,"x_min":18,"x_max":235,"o":"m 156 0 l 156 -186 l 97 -186 l 97 0 l 18 0 l 18 675 l 92 675 l 92 65 l 161 65 l 161 675 l 235 675 l 235 0 l 156 0 z "},"Ґ":{"ha":206,"x_min":17,"x_max":196,"o":"m 94 851 l 94 0 l 17 0 l 17 922 l 138 922 l 138 1086 l 196 1086 l 196 851 l 94 851 z "},"ґ":{"ha":168,"x_min":18,"x_max":158,"o":"m 92 608 l 92 0 l 18 0 l 18 675 l 101 675 l 101 819 l 158 819 l 158 608 l 92 608 z "},"Ғ":{"ha":218,"x_min":3,"x_max":208,"o":"m 106 417 l 106 0 l 28 0 l 28 417 l 3 417 l 3 476 l 28 476 l 28 922 l 208 922 l 208 851 l 106 851 l 106 476 l 168 476 l 168 417 l 106 417 z "},"ғ":{"ha":178,"x_min":3,"x_max":168,"o":"m 101 282 l 101 0 l 26 0 l 26 282 l 3 282 l 3 328 l 26 328 l 26 675 l 168 675 l 168 608 l 101 608 l 101 328 l 168 328 l 168 282 l 101 282 z "},"Җ":{"ha":439,"x_min":4,"x_max":429,"o":"m 158 410 l 85 0 l 4 0 l 96 469 l 8 922 l 88 922 l 158 549 l 164 549 l 164 922 l 240 922 l 240 549 l 246 549 l 318 922 l 397 922 l 307 469 l 386 71 l 429 71 l 429 -143 l 371 -143 l 371 0 l 319 0 l 246 410 l 240 410 l 240 0 l 164 0 l 164 410 l 158 410 z "},"җ":{"ha":414,"x_min":4,"x_max":404,"o":"m 404 71 l 404 -143 l 346 -143 l 346 0 l 296 0 l 231 304 l 225 304 l 225 0 l 153 0 l 153 304 l 147 304 l 82 0 l 4 0 l 85 344 l 8 675 l 85 675 l 147 400 l 153 400 l 153 675 l 225 675 l 225 400 l 231 400 l 294 675 l 369 675 l 292 344 l 357 71 l 404 71 z "},"Ҙ":{"ha":247,"x_min":17,"x_max":235,"o":"m 69 -282 l 69 -282 l 69 -222 q 100 -226 82 -226 q 124 -219 118 -226 q 131 -186 131 -211 l 131 -186 l 131 -140 q 96 -1 131 -49 l 96 -1 q 17 113 17 11 l 17 113 l 17 268 l 89 268 l 89 108 q 124 67 89 67 q 158 108 158 67 l 158 108 l 158 417 q 119 456 158 456 l 119 456 l 89 456 l 89 521 l 121 521 q 157 558 157 521 l 157 558 l 157 815 q 124 854 157 854 l 124 854 q 89 815 89 854 l 89 815 l 89 661 l 17 661 l 17 807 q 44 895 17 864 q 124 926 72 926 q 201 896 175 926 q 228 824 228 865 l 228 824 l 228 565 q 181 493 228 501 l 181 493 l 181 488 q 235 410 235 478 l 235 410 l 235 114 q 140 -3 235 6 l 140 -3 l 140 -11 q 182 -154 182 -65 l 182 -154 l 182 -199 q 167 -272 182 -253 q 115 -292 151 -292 l 115 -292 q 69 -282 88 -292 z "},"ҙ":{"ha":244,"x_min":17,"x_max":226,"o":"m 226 289 l 226 289 l 226 85 q 126 -4 226 -3 l 126 -4 l 126 -10 q 179 -154 179 -56 l 179 -154 l 179 -199 q 164 -272 179 -253 q 113 -292 149 -292 l 113 -292 q 67 -282 85 -292 l 67 -282 l 67 -222 q 97 -226 79 -226 q 122 -219 115 -226 q 128 -186 128 -211 l 128 -186 l 128 -140 q 83 0 128 -42 l 83 0 q 17 86 17 13 l 17 86 l 17 240 l 89 240 l 89 97 q 122 60 89 60 l 122 60 q 154 93 154 60 l 154 93 l 154 297 q 117 332 154 332 l 117 332 l 90 332 l 90 381 l 118 381 q 153 410 153 381 l 153 410 l 153 579 q 121 614 153 614 l 121 614 q 88 582 88 614 l 88 582 l 88 468 l 17 468 l 17 589 q 122 679 17 679 l 122 679 q 219 593 219 679 l 219 593 l 219 417 q 175 361 219 369 l 175 361 l 175 356 q 226 289 226 346 z "},"Қ":{"ha":292,"x_min":17,"x_max":283,"o":"m 283 71 l 283 -143 l 225 -143 l 225 0 l 171 0 l 121 396 l 118 396 l 94 290 l 94 0 l 17 0 l 17 922 l 94 922 l 94 563 l 100 563 l 172 922 l 250 922 l 176 565 l 239 71 l 283 71 z "},"қ":{"ha":282,"x_min":18,"x_max":274,"o":"m 274 71 l 274 -143 l 215 -143 l 215 0 l 168 0 l 118 269 l 114 269 l 92 188 l 92 0 l 18 0 l 18 675 l 92 675 l 92 388 l 97 388 l 168 675 l 246 675 l 172 383 l 231 71 l 274 71 z "},"Ҡ":{"ha":350,"x_min":11,"x_max":344,"o":"m 190 290 l 190 0 l 111 0 l 111 851 l 11 851 l 11 922 l 190 922 l 190 563 l 196 563 l 267 922 l 344 922 l 272 565 l 343 0 l 265 0 l 215 396 l 213 396 l 190 290 z "},"ҡ":{"ha":308,"x_min":11,"x_max":304,"o":"m 151 192 l 151 0 l 76 0 l 76 608 l 11 608 l 11 675 l 151 675 l 151 388 l 156 388 l 226 675 l 304 675 l 232 383 l 303 0 l 226 0 l 178 269 l 172 269 l 151 192 z "},"Ң":{"ha":279,"x_min":17,"x_max":271,"o":"m 271 71 l 271 -143 l 213 -143 l 213 0 l 164 0 l 164 457 l 94 457 l 94 0 l 17 0 l 17 922 l 94 922 l 94 525 l 164 525 l 164 922 l 242 922 l 242 71 l 271 71 z "},"ң":{"ha":282,"x_min":18,"x_max":274,"o":"m 274 71 l 274 -143 l 215 -143 l 215 0 l 161 0 l 161 315 l 92 315 l 92 0 l 18 0 l 18 675 l 92 675 l 92 382 l 161 382 l 161 675 l 235 675 l 235 71 l 274 71 z "},"Ҫ":{"ha":251,"x_min":17,"x_max":235,"o":"m 75 -282 l 75 -282 l 75 -222 q 106 -226 88 -226 q 130 -219 124 -226 q 136 -186 136 -211 l 136 -186 l 136 -140 q 83 1 136 -43 l 83 1 q 17 114 17 22 l 17 114 l 17 806 q 128 926 17 926 l 128 926 q 233 804 233 926 l 233 804 l 235 592 l 161 592 l 161 811 q 128 854 161 854 l 128 854 q 93 813 93 854 l 93 813 l 93 110 q 126 67 93 67 l 126 67 q 161 108 161 67 l 161 108 l 161 376 l 235 376 l 235 113 q 133 -4 235 0 l 133 -4 l 133 -11 q 188 -154 188 -58 l 188 -154 l 188 -199 q 172 -272 188 -253 q 121 -292 156 -292 l 121 -292 q 75 -282 93 -292 z "},"ҫ":{"ha":246,"x_min":18,"x_max":226,"o":"m 67 -282 l 67 -282 l 67 -222 q 97 -226 79 -226 q 122 -219 115 -226 q 128 -186 128 -211 l 128 -186 l 128 -140 q 117 -56 128 -87 q 76 1 107 -24 l 76 1 q 18 101 18 19 l 18 101 l 18 572 q 124 679 18 679 l 124 679 q 226 572 226 679 l 226 572 l 226 431 l 157 431 l 157 572 q 124 613 157 613 q 90 572 90 613 l 90 572 l 90 101 q 124 63 90 63 q 157 101 157 63 l 157 101 l 157 247 l 226 247 l 226 101 q 128 -4 226 -3 l 128 -4 l 128 -14 q 179 -154 179 -60 l 179 -154 l 179 -199 q 164 -272 179 -253 q 113 -292 149 -292 l 113 -292 q 67 -282 85 -292 z "},"Ҳ":{"ha":301,"x_min":6,"x_max":292,"o":"m 139 581 l 185 922 l 261 922 l 188 482 l 253 71 l 292 71 l 292 -143 l 235 -143 l 235 0 l 185 0 l 138 360 l 132 360 l 83 0 l 6 0 l 82 465 l 8 922 l 86 922 l 133 581 l 139 581 z "},"ҳ":{"ha":281,"x_min":4,"x_max":272,"o":"m 129 432 l 167 675 l 240 675 l 176 353 l 229 71 l 272 71 l 272 -143 l 214 -143 l 214 0 l 167 0 l 125 257 l 119 257 l 79 0 l 4 0 l 71 343 l 7 675 l 82 675 l 124 432 l 129 432 z "},"Ҷ":{"ha":279,"x_min":17,"x_max":271,"o":"m 271 71 l 271 -143 l 213 -143 l 213 0 l 161 0 l 161 410 l 157 410 q 97 397 132 397 l 97 397 q 35 421 53 397 q 17 503 17 444 l 17 503 l 17 922 l 92 922 l 92 507 q 125 468 92 468 l 125 468 q 161 479 151 468 l 161 479 l 161 922 l 238 922 l 238 71 l 271 71 z "},"ҷ":{"ha":276,"x_min":17,"x_max":267,"o":"m 267 71 l 267 -143 l 208 -143 l 208 0 l 160 0 l 160 293 l 154 293 q 94 279 131 279 l 94 279 q 35 296 53 279 q 17 351 17 313 l 17 351 l 17 675 l 90 675 l 90 371 q 125 343 90 343 l 125 343 q 160 351 150 343 l 160 351 l 160 675 l 233 675 l 233 71 l 267 71 z "},"Һ":{"ha":256,"x_min":18,"x_max":239,"o":"m 18 0 l 18 922 l 94 922 l 94 513 l 97 513 q 158 525 125 525 l 158 525 q 220 501 201 525 q 239 419 239 476 l 239 419 l 239 0 l 164 0 l 164 415 q 131 454 164 454 l 131 454 q 94 442 103 454 l 94 442 l 94 0 l 18 0 z "},"Ӄ":{"ha":256,"x_min":17,"x_max":250,"o":"m 138 -324 l 138 -324 l 138 -257 q 171 -218 171 -257 l 171 -218 l 171 0 l 121 396 l 118 396 l 94 290 l 94 0 l 17 0 l 17 922 l 94 922 l 94 563 l 100 563 l 172 922 l 250 922 l 176 565 l 249 0 l 249 -218 q 138 -324 249 -324 z "},"ӄ":{"ha":250,"x_min":18,"x_max":246,"o":"m 136 -324 l 136 -324 l 136 -257 q 169 -218 169 -257 l 169 -218 l 169 -15 l 118 269 l 114 269 l 92 188 l 92 0 l 18 0 l 18 675 l 92 675 l 92 388 l 97 388 l 168 675 l 246 675 l 172 383 l 244 0 l 244 -218 q 136 -324 244 -324 z "},"Ӈ":{"ha":260,"x_min":17,"x_max":242,"o":"m 131 -324 l 131 -324 l 131 -257 q 164 -218 164 -257 l 164 -218 l 164 457 l 94 457 l 94 0 l 17 0 l 17 922 l 94 922 l 94 525 l 164 525 l 164 922 l 242 922 l 242 -218 q 131 -324 242 -324 z "},"ӈ":{"ha":254,"x_min":18,"x_max":235,"o":"m 128 -324 l 128 -324 l 126 -257 q 161 -218 161 -257 l 161 -218 l 161 315 l 92 315 l 92 0 l 18 0 l 18 675 l 92 675 l 92 382 l 161 382 l 161 675 l 235 675 l 235 -218 q 128 -324 235 -324 z "},"Ө":{"ha":251,"x_min":14,"x_max":236,"o":"m 236 804 l 236 804 l 236 113 q 126 -4 236 -4 l 126 -4 q 14 114 14 -4 l 14 114 l 14 806 q 43 894 14 863 q 125 926 72 926 q 207 894 178 926 q 236 804 236 861 z m 160 108 l 160 108 l 160 442 l 90 442 l 90 108 q 125 67 90 67 q 160 108 160 67 z m 90 813 l 90 813 l 90 510 l 160 510 l 160 811 q 125 854 160 854 q 90 813 90 854 z "},"ө":{"ha":249,"x_min":18,"x_max":229,"o":"m 229 572 l 229 572 l 229 101 q 124 -4 229 -4 q 18 101 18 -4 l 18 101 l 18 572 q 124 679 18 679 q 229 572 229 679 z m 157 101 l 157 101 l 157 319 l 90 319 l 90 101 q 124 63 90 63 q 157 101 157 63 z m 90 572 l 90 572 l 90 368 l 157 368 l 157 572 q 124 613 157 613 q 90 572 90 613 z "},"Ӯ":{"ha":256,"x_min":17,"x_max":238,"o":"m 210 1036 l 210 989 l 44 989 l 44 1036 l 210 1036 z m 161 108 l 161 108 l 161 385 l 156 385 q 92 350 139 350 l 92 350 q 17 467 17 350 l 17 467 l 17 922 l 92 922 l 92 463 q 124 421 92 421 q 161 456 156 421 l 161 456 l 161 922 l 238 922 l 238 114 q 128 -4 238 -4 l 128 -4 q 17 113 17 -4 l 17 113 l 17 307 l 92 307 l 92 108 q 126 67 92 67 q 161 108 161 67 z "},"ӯ":{"ha":251,"x_min":18,"x_max":232,"o":"m 18 675 l 93 675 l 93 107 q 125 68 93 68 l 125 68 q 161 111 153 68 l 161 111 l 161 675 l 232 675 l 232 -218 q 125 -324 232 -324 l 125 -324 q 19 -218 19 -324 l 19 -218 l 19 -42 l 92 -42 l 92 -218 q 125 -257 92 -257 q 158 -218 158 -257 l 158 -218 l 158 39 l 154 39 q 92 0 136 0 l 92 0 q 18 104 18 0 l 18 104 l 18 675 z m 210 788 l 210 740 l 44 740 l 44 788 l 210 788 z "},"Ԓ":{"ha":288,"x_min":11,"x_max":271,"o":"m 158 -324 l 158 -324 l 158 -257 q 193 -218 193 -257 l 193 -218 l 193 851 l 139 851 l 132 581 q 99 58 121 139 l 99 58 q 22 0 82 0 l 22 0 l 11 0 l 11 71 l 17 71 q 43 104 38 71 l 43 104 q 68 582 57 188 l 68 582 l 78 922 l 271 922 l 271 -218 q 158 -324 271 -324 z "},"ԓ":{"ha":269,"x_min":10,"x_max":250,"o":"m 142 -324 l 142 -324 l 142 -257 q 175 -218 175 -257 l 175 -218 l 175 608 l 126 608 l 117 432 q 97 126 103 194 q 83 35 92 57 l 83 35 q 19 0 69 0 l 19 0 l 10 0 l 10 65 l 15 65 q 36 82 31 65 l 36 82 q 60 432 49 118 l 60 432 l 69 675 l 250 675 l 250 -218 q 142 -324 250 -324 z "},"֏":{"ha":272,"x_min":11,"x_max":261,"o":"m 229 224 l 229 0 l 153 0 l 153 224 l 57 224 l 57 271 l 153 271 l 153 415 l 57 415 l 57 463 l 153 463 l 153 814 q 118 856 153 856 l 118 856 q 85 814 85 856 l 85 814 l 85 574 l 11 574 l 11 808 q 119 926 11 926 l 119 926 q 229 807 229 926 l 229 807 l 229 463 l 261 463 l 261 415 l 229 415 l 229 271 l 261 271 l 261 224 l 229 224 z "},"Ḍ":{"ha":257,"x_min":17,"x_max":239,"o":"m 132 0 l 132 0 l 17 0 l 17 922 l 132 922 q 239 814 239 922 l 239 814 l 239 114 q 132 0 239 0 z m 93 851 l 93 69 l 128 69 q 161 118 161 69 l 161 118 l 161 808 q 122 851 161 851 l 122 851 l 93 851 z m 157 -51 l 157 -154 l 82 -154 l 82 -51 l 157 -51 z "},"ḍ":{"ha":251,"x_min":18,"x_max":232,"o":"m 93 575 l 93 575 l 93 100 q 125 60 93 60 l 125 60 q 161 104 153 60 l 161 104 l 161 567 q 150 603 157 593 q 126 614 143 614 l 126 614 q 93 575 93 614 z m 232 933 l 232 0 l 167 0 l 164 42 l 158 42 q 93 -4 142 -4 l 93 -4 q 38 18 58 -4 q 18 81 18 40 l 18 81 l 18 593 q 38 656 18 633 q 94 679 58 679 l 94 679 q 153 640 135 679 l 153 640 l 158 640 l 158 933 l 232 933 z m 164 -51 l 164 -154 l 89 -154 l 89 -51 l 164 -51 z "},"Ḓ":{"ha":257,"x_min":15,"x_max":239,"o":"m 132 0 l 132 0 l 17 0 l 17 922 l 132 922 q 239 814 239 922 l 239 814 l 239 114 q 132 0 239 0 z m 93 851 l 93 69 l 128 69 q 161 118 161 69 l 161 118 l 161 808 q 122 851 161 851 l 122 851 l 93 851 z m 143 -82 l 204 -197 l 172 -222 l 110 -125 l 47 -222 l 15 -197 l 76 -82 l 143 -82 z "},"ḓ":{"ha":251,"x_min":18,"x_max":232,"o":"m 93 575 l 93 575 l 93 100 q 125 60 93 60 l 125 60 q 161 104 153 60 l 161 104 l 161 567 q 150 603 157 593 q 126 614 143 614 l 126 614 q 93 575 93 614 z m 232 933 l 232 0 l 167 0 l 164 42 l 158 42 q 93 -4 142 -4 l 93 -4 q 38 18 58 -4 q 18 81 18 40 l 18 81 l 18 593 q 38 656 18 633 q 94 679 58 679 l 94 679 q 153 640 135 679 l 153 640 l 158 640 l 158 933 l 232 933 z m 156 -82 l 217 -197 l 185 -222 l 122 -125 l 60 -222 l 28 -197 l 89 -82 l 156 -82 z "},"Ḥ":{"ha":260,"x_min":17,"x_max":242,"o":"m 242 922 l 242 0 l 164 0 l 164 457 l 94 457 l 94 0 l 17 0 l 17 922 l 94 922 l 94 525 l 164 525 l 164 922 l 242 922 z m 167 -51 l 167 -154 l 92 -154 l 92 -51 l 167 -51 z "},"ḥ":{"ha":253,"x_min":18,"x_max":235,"o":"m 235 585 l 235 0 l 160 0 l 160 578 q 129 614 160 614 l 129 614 q 92 575 100 614 l 92 575 l 92 0 l 18 0 l 18 933 l 92 933 l 92 631 l 97 631 q 167 679 118 679 l 167 679 q 219 657 204 679 q 235 585 235 635 l 235 585 z m 163 -51 l 163 -154 l 88 -154 l 88 -51 l 163 -51 z "},"Ḽ":{"ha":207,"x_min":11,"x_max":200,"o":"m 196 71 l 196 0 l 17 0 l 17 922 l 94 922 l 94 71 l 196 71 z m 139 -82 l 200 -197 l 168 -222 l 106 -125 l 43 -222 l 11 -197 l 72 -82 l 139 -82 z "},"ḽ":{"ha":121,"x_min":-35,"x_max":154,"o":"m 96 933 l 96 0 l 22 0 l 22 933 l 96 933 z m 93 -82 l 154 -197 l 122 -222 l 60 -125 l -3 -222 l -35 -197 l 26 -82 l 93 -82 z "},"Ṅ":{"ha":272,"x_min":17,"x_max":256,"o":"m 256 922 l 256 0 l 154 0 l 82 739 l 76 739 q 79 401 79 693 l 79 401 l 79 0 l 17 0 l 17 922 l 128 922 l 189 190 l 194 190 q 190 596 190 361 l 190 596 l 190 922 l 256 922 z m 169 1089 l 169 985 l 96 985 l 96 1089 l 169 1089 z "},"ṅ":{"ha":253,"x_min":18,"x_max":235,"o":"m 235 592 l 235 0 l 160 0 l 160 578 q 128 614 160 614 l 128 614 q 92 579 104 614 l 92 579 l 92 0 l 18 0 l 18 675 l 88 675 l 89 632 l 94 632 q 165 679 117 679 l 165 679 q 235 592 235 679 l 235 592 z m 161 840 l 161 736 l 88 736 l 88 840 l 161 840 z "},"Ṋ":{"ha":272,"x_min":17,"x_max":256,"o":"m 256 922 l 256 0 l 154 0 l 82 739 l 76 739 q 79 401 79 693 l 79 401 l 79 0 l 17 0 l 17 922 l 128 922 l 189 190 l 194 190 q 190 596 190 361 l 190 596 l 190 922 l 256 922 z m 164 -82 l 225 -197 l 193 -222 l 131 -125 l 68 -222 l 36 -197 l 97 -82 l 164 -82 z "},"ṋ":{"ha":253,"x_min":18,"x_max":235,"o":"m 235 592 l 235 0 l 160 0 l 160 578 q 128 614 160 614 l 128 614 q 92 579 104 614 l 92 579 l 92 0 l 18 0 l 18 675 l 88 675 l 89 632 l 94 632 q 165 679 117 679 l 165 679 q 235 592 235 679 l 235 592 z m 158 -82 l 219 -197 l 188 -222 l 125 -125 l 63 -222 l 31 -197 l 92 -82 l 158 -82 z "},"Ṛ":{"ha":251,"x_min":17,"x_max":238,"o":"m 93 421 l 93 0 l 17 0 l 17 922 l 147 922 q 236 826 236 922 l 236 826 l 236 531 q 189 458 236 469 l 189 458 l 189 453 q 238 379 238 442 l 238 379 l 238 0 l 163 0 l 163 386 q 131 421 163 421 l 131 421 l 93 421 z m 161 522 l 161 522 l 161 818 q 129 851 161 851 l 129 851 l 93 851 l 93 483 l 129 483 q 161 522 161 483 z m 163 -51 l 163 -154 l 88 -154 l 88 -51 l 163 -51 z "},"ṛ":{"ha":190,"x_min":14,"x_max":181,"o":"m 92 543 l 92 0 l 18 0 l 18 675 l 88 675 l 89 626 l 94 626 q 156 679 114 679 l 156 679 q 181 674 167 679 l 181 674 l 181 606 q 153 611 171 611 l 153 611 q 110 596 124 611 q 92 543 96 581 l 92 543 z m 89 -51 l 89 -154 l 14 -154 l 14 -51 l 89 -51 z "},"Ṣ":{"ha":261,"x_min":14,"x_max":246,"o":"m 238 804 l 238 635 l 165 635 l 165 813 q 129 854 165 854 q 93 818 93 854 l 93 818 l 93 664 q 97 594 93 613 q 115 557 101 575 l 115 557 q 169 495 135 531 q 218 440 204 460 l 218 440 q 246 326 246 403 l 246 326 l 246 118 q 132 -4 246 -4 l 132 -4 q 14 124 14 -4 l 14 124 l 14 276 l 86 276 l 86 110 q 128 67 86 67 l 128 67 q 165 106 165 67 l 165 106 l 165 294 q 160 371 165 350 q 138 414 154 392 l 138 414 q 92 464 133 419 q 39 535 51 508 l 39 535 q 15 672 15 585 l 15 672 l 15 817 q 44 897 15 867 q 126 926 72 926 l 126 926 q 238 804 238 926 l 238 804 z m 165 -51 l 165 -154 l 90 -154 l 90 -51 l 165 -51 z "},"ṣ":{"ha":244,"x_min":15,"x_max":229,"o":"m 225 583 l 225 468 l 156 468 l 156 586 q 122 617 156 617 q 89 588 89 617 l 89 588 l 89 457 q 94 418 89 429 q 114 394 99 407 l 114 394 q 155 367 128 383 q 194 342 182 351 l 194 342 q 222 305 214 325 q 229 239 229 285 l 229 239 l 229 89 q 125 -4 229 -4 l 125 -4 q 15 92 15 -4 l 15 92 l 15 217 l 85 217 l 85 90 q 121 56 85 56 l 121 56 q 156 88 156 56 l 156 88 l 156 239 q 125 297 156 272 l 125 297 q 90 323 119 301 q 47 357 60 344 l 47 357 q 18 457 18 390 l 18 457 l 18 594 q 44 657 18 635 q 121 679 71 679 l 121 679 q 225 583 225 679 l 225 583 z m 161 -51 l 161 -154 l 86 -154 l 86 -51 l 161 -51 z "},"Ṭ":{"ha":243,"x_min":11,"x_max":232,"o":"m 160 851 l 160 0 l 82 0 l 82 851 l 11 851 l 11 922 l 232 922 l 232 851 l 160 851 z m 158 -51 l 158 -154 l 83 -154 l 83 -51 l 158 -51 z "},"ṭ":{"ha":238,"x_min":18,"x_max":218,"o":"m 156 101 l 156 101 l 156 381 l 218 381 l 218 101 q 197 21 218 46 q 124 -4 176 -4 l 124 -4 q 18 101 18 -4 l 18 101 l 18 860 l 90 860 l 90 675 l 218 675 l 218 608 l 90 608 l 90 101 q 125 63 90 63 l 125 63 q 156 101 156 63 z m 160 -51 l 160 -154 l 85 -154 l 85 -51 l 160 -51 z "},"Ẁ":{"ha":381,"x_min":6,"x_max":375,"o":"m 188 744 l 160 0 l 49 0 l 6 922 l 79 922 l 106 163 l 111 163 l 146 922 l 235 922 l 271 163 l 276 163 l 301 922 l 375 922 l 332 0 l 221 0 l 193 744 l 188 744 z m 247 982 l 218 953 l 106 1076 l 144 1121 l 247 982 z "},"ẁ":{"ha":347,"x_min":4,"x_max":343,"o":"m 171 524 l 146 0 l 43 0 l 4 675 l 75 675 l 94 160 l 100 160 l 131 675 l 215 675 l 247 160 l 253 160 l 272 675 l 343 675 l 304 0 l 200 0 l 176 524 l 171 524 z m 232 733 l 203 704 l 90 828 l 129 872 l 232 733 z "},"Ẃ":{"ha":381,"x_min":6,"x_max":375,"o":"m 188 744 l 160 0 l 49 0 l 6 922 l 79 922 l 106 163 l 111 163 l 146 922 l 235 922 l 271 163 l 276 163 l 301 922 l 375 922 l 332 0 l 221 0 l 193 744 l 188 744 z m 238 1121 l 276 1076 l 164 953 l 135 982 l 238 1121 z "},"ẃ":{"ha":347,"x_min":4,"x_max":343,"o":"m 171 524 l 146 0 l 43 0 l 4 675 l 75 675 l 94 160 l 100 160 l 131 675 l 215 675 l 247 160 l 253 160 l 272 675 l 343 675 l 304 0 l 200 0 l 176 524 l 171 524 z m 218 872 l 257 828 l 144 704 l 115 733 l 218 872 z "},"Ẅ":{"ha":381,"x_min":6,"x_max":375,"o":"m 188 744 l 160 0 l 49 0 l 6 922 l 79 922 l 106 163 l 111 163 l 146 922 l 235 922 l 271 163 l 276 163 l 301 922 l 375 922 l 332 0 l 221 0 l 193 744 l 188 744 z m 169 1089 l 169 985 l 101 985 l 101 1089 l 169 1089 z m 276 1089 l 276 985 l 208 985 l 208 1089 l 276 1089 z "},"ẅ":{"ha":347,"x_min":4,"x_max":343,"o":"m 171 524 l 146 0 l 43 0 l 4 675 l 75 675 l 94 160 l 100 160 l 131 675 l 215 675 l 247 160 l 253 160 l 272 675 l 343 675 l 304 0 l 200 0 l 176 524 l 171 524 z m 153 840 l 153 736 l 85 736 l 85 840 l 153 840 z m 260 840 l 260 736 l 192 736 l 192 840 l 260 840 z "},"Ẓ":{"ha":233,"x_min":11,"x_max":222,"o":"m 222 69 l 222 0 l 11 0 l 11 71 l 144 851 l 13 851 l 13 922 l 218 922 l 218 853 l 88 69 l 222 69 z m 153 -51 l 153 -154 l 78 -154 l 78 -51 l 153 -51 z "},"ẓ":{"ha":211,"x_min":13,"x_max":200,"o":"m 200 68 l 200 0 l 13 0 l 13 69 l 129 608 l 13 608 l 13 675 l 197 675 l 197 607 l 81 68 l 200 68 z m 143 -51 l 143 -154 l 68 -154 l 68 -51 l 143 -51 z "},"ẞ":{"ha":285,"x_min":17,"x_max":268,"o":"m 121 1 l 121 1 l 121 69 q 153 63 133 63 l 153 63 q 192 103 192 63 l 192 103 l 192 469 q 161 500 192 500 l 161 500 q 131 493 147 500 l 131 493 l 131 563 l 183 851 l 139 851 q 94 804 94 851 l 94 804 l 94 0 l 17 0 l 17 806 q 128 922 17 922 l 128 922 l 254 922 l 254 857 l 199 561 q 268 474 268 561 l 268 474 l 268 104 q 244 21 268 46 q 171 -4 221 -4 l 171 -4 q 121 1 143 -4 z "},"Ạ":{"ha":258,"x_min":6,"x_max":251,"o":"m 189 922 l 251 0 l 175 0 l 161 238 l 93 238 l 81 0 l 6 0 l 67 922 l 189 922 z m 131 789 l 125 789 l 97 304 l 157 304 l 131 789 z m 164 -51 l 164 -154 l 89 -154 l 89 -51 l 164 -51 z "},"ạ":{"ha":246,"x_min":13,"x_max":228,"o":"m 156 88 l 156 88 l 156 356 q 118 339 150 350 q 86 292 86 328 l 86 292 l 86 93 q 117 60 86 60 l 117 60 q 156 88 144 60 z m 228 599 l 228 0 l 160 0 l 158 35 l 153 35 q 83 -4 131 -4 l 83 -4 q 13 75 13 -4 l 13 75 l 13 278 q 31 346 13 325 q 99 383 49 367 l 99 383 q 142 401 129 393 q 154 425 154 408 l 154 425 l 154 588 q 122 614 154 614 l 122 614 q 88 585 88 614 l 88 585 l 88 457 l 18 457 l 18 593 q 128 679 18 679 l 128 679 q 228 599 228 679 l 228 599 z m 158 -51 l 158 -154 l 83 -154 l 83 -51 l 158 -51 z "},"Ả":{"ha":258,"x_min":6,"x_max":251,"o":"m 189 922 l 251 0 l 175 0 l 161 238 l 93 238 l 81 0 l 6 0 l 67 922 l 189 922 z m 131 789 l 125 789 l 97 304 l 157 304 l 131 789 z m 143 961 l 143 961 l 107 961 q 127 999 107 983 q 147 1025 147 1014 l 147 1025 q 128 1040 147 1040 q 93 1025 108 1040 l 93 1025 l 79 1065 q 135 1085 103 1085 l 135 1085 q 174 1070 158 1085 q 189 1032 189 1056 q 166 990 189 1008 q 143 961 143 972 z "},"ả":{"ha":246,"x_min":13,"x_max":228,"o":"m 156 88 l 156 88 l 156 356 q 118 339 150 350 q 86 292 86 328 l 86 292 l 86 93 q 117 60 86 60 l 117 60 q 156 88 144 60 z m 228 599 l 228 0 l 160 0 l 158 35 l 153 35 q 83 -4 131 -4 l 83 -4 q 13 75 13 -4 l 13 75 l 13 278 q 31 346 13 325 q 99 383 49 367 l 99 383 q 142 401 129 393 q 154 425 154 408 l 154 425 l 154 588 q 122 614 154 614 l 122 614 q 88 585 88 614 l 88 585 l 88 457 l 18 457 l 18 593 q 128 679 18 679 l 128 679 q 228 599 228 679 l 228 599 z m 136 713 l 136 713 l 100 713 q 120 751 100 736 q 140 776 140 767 l 140 776 q 121 792 140 792 q 86 776 101 792 l 86 776 l 72 817 q 128 836 96 836 l 128 836 q 167 822 151 836 q 182 783 182 807 l 182 783 q 159 742 182 758 q 136 713 136 725 z "},"Ấ":{"ha":258,"x_min":6,"x_max":303,"o":"m 189 922 l 251 0 l 175 0 l 161 238 l 93 238 l 81 0 l 6 0 l 67 922 l 189 922 z m 131 789 l 125 789 l 97 304 l 157 304 l 131 789 z m 160 1082 l 221 978 l 189 953 l 128 1039 l 64 953 l 32 978 l 93 1082 l 160 1082 z m 264 1175 l 303 1132 l 208 1047 l 181 1076 l 264 1175 z "},"ấ":{"ha":246,"x_min":13,"x_max":301,"o":"m 156 88 l 156 88 l 156 356 q 118 339 150 350 q 86 292 86 328 l 86 292 l 86 93 q 117 60 86 60 l 117 60 q 156 88 144 60 z m 228 599 l 228 0 l 160 0 l 158 35 l 153 35 q 83 -4 131 -4 l 83 -4 q 13 75 13 -4 l 13 75 l 13 278 q 31 346 13 325 q 99 383 49 367 l 99 383 q 142 401 129 393 q 154 425 154 408 l 154 425 l 154 588 q 122 614 154 614 l 122 614 q 88 585 88 614 l 88 585 l 88 457 l 18 457 l 18 593 q 128 679 18 679 l 128 679 q 228 599 228 679 l 228 599 z m 158 833 l 219 729 l 188 704 l 126 790 l 63 704 l 31 729 l 92 833 l 158 833 z m 263 926 l 301 883 l 207 799 l 179 828 l 263 926 z "},"Ầ":{"ha":258,"x_min":6,"x_max":268,"o":"m 189 922 l 251 0 l 175 0 l 161 238 l 93 238 l 81 0 l 6 0 l 67 922 l 189 922 z m 131 789 l 125 789 l 97 304 l 157 304 l 131 789 z m 157 1082 l 218 978 l 186 953 l 125 1039 l 61 953 l 29 978 l 90 1082 l 157 1082 z m 268 1076 l 240 1047 l 147 1132 l 185 1175 l 268 1076 z "},"ầ":{"ha":246,"x_min":13,"x_max":264,"o":"m 156 88 l 156 88 l 156 356 q 118 339 150 350 q 86 292 86 328 l 86 292 l 86 93 q 117 60 86 60 l 117 60 q 156 88 144 60 z m 228 599 l 228 0 l 160 0 l 158 35 l 153 35 q 83 -4 131 -4 l 83 -4 q 13 75 13 -4 l 13 75 l 13 278 q 31 346 13 325 q 99 383 49 367 l 99 383 q 142 401 129 393 q 154 425 154 408 l 154 425 l 154 588 q 122 614 154 614 l 122 614 q 88 585 88 614 l 88 585 l 88 457 l 18 457 l 18 593 q 128 679 18 679 l 128 679 q 228 599 228 679 l 228 599 z m 153 833 l 214 729 l 182 704 l 121 790 l 57 704 l 25 729 l 86 833 l 153 833 z m 264 828 l 236 799 l 143 883 l 181 926 l 264 828 z "},"Ẩ":{"ha":258,"x_min":6,"x_max":289,"o":"m 189 922 l 251 0 l 175 0 l 161 238 l 93 238 l 81 0 l 6 0 l 67 922 l 189 922 z m 131 789 l 125 789 l 97 304 l 157 304 l 131 789 z m 163 1082 l 224 978 l 192 953 l 129 1039 l 67 953 l 35 978 l 96 1082 l 163 1082 z m 243 1028 l 243 1028 l 207 1028 q 227 1067 207 1050 q 247 1096 247 1083 l 247 1096 q 228 1113 247 1113 l 228 1113 q 193 1099 207 1113 l 193 1099 l 179 1138 q 235 1157 200 1157 l 235 1157 q 274 1142 258 1157 q 289 1103 289 1126 l 289 1103 q 266 1058 289 1076 q 243 1028 243 1039 z "},"ẩ":{"ha":246,"x_min":13,"x_max":275,"o":"m 156 88 l 156 88 l 156 356 q 118 339 150 350 q 86 292 86 328 l 86 292 l 86 93 q 117 60 86 60 l 117 60 q 156 88 144 60 z m 228 599 l 228 0 l 160 0 l 158 35 l 153 35 q 83 -4 131 -4 l 83 -4 q 13 75 13 -4 l 13 75 l 13 278 q 31 346 13 325 q 99 383 49 367 l 99 383 q 142 401 129 393 q 154 425 154 408 l 154 425 l 154 588 q 122 614 154 614 l 122 614 q 88 585 88 614 l 88 585 l 88 457 l 18 457 l 18 593 q 128 679 18 679 l 128 679 q 228 599 228 679 l 228 599 z m 149 833 l 210 729 l 178 704 l 115 790 l 53 704 l 21 729 l 82 833 l 149 833 z m 229 779 l 229 779 l 193 779 q 213 818 193 801 q 233 847 233 835 l 233 847 q 214 864 233 864 l 214 864 q 179 850 193 864 l 179 850 l 165 889 q 221 908 186 908 l 221 908 q 260 893 244 908 q 275 854 275 878 l 275 854 q 252 809 275 828 q 229 779 229 790 z "},"Ẫ":{"ha":258,"x_min":6,"x_max":251,"o":"m 189 922 l 251 0 l 175 0 l 161 238 l 93 238 l 81 0 l 6 0 l 67 922 l 189 922 z m 131 789 l 125 789 l 97 304 l 157 304 l 131 789 z m 160 1071 l 221 978 l 189 953 l 128 1028 l 64 953 l 32 978 l 93 1071 l 160 1071 z m 192 1151 l 192 1151 l 225 1132 q 172 1086 213 1086 l 172 1086 q 131 1097 157 1086 q 92 1108 106 1108 l 92 1108 q 65 1088 72 1108 l 65 1088 l 32 1106 q 85 1153 44 1153 l 85 1153 q 126 1142 100 1153 q 165 1131 151 1131 l 165 1131 q 192 1151 185 1131 z "},"ẫ":{"ha":246,"x_min":13,"x_max":228,"o":"m 156 88 l 156 88 l 156 356 q 118 339 150 350 q 86 292 86 328 l 86 292 l 86 93 q 117 60 86 60 l 117 60 q 156 88 144 60 z m 228 599 l 228 0 l 160 0 l 158 35 l 153 35 q 83 -4 131 -4 l 83 -4 q 13 75 13 -4 l 13 75 l 13 278 q 31 346 13 325 q 99 383 49 367 l 99 383 q 142 401 129 393 q 154 425 154 408 l 154 425 l 154 588 q 122 614 154 614 l 122 614 q 88 585 88 614 l 88 585 l 88 457 l 18 457 l 18 593 q 128 679 18 679 l 128 679 q 228 599 228 679 l 228 599 z m 151 822 l 213 729 l 181 704 l 119 779 l 56 704 l 24 729 l 85 822 l 151 822 z m 183 903 l 183 903 l 217 883 q 164 838 204 838 l 164 838 q 123 849 149 838 q 83 860 97 860 l 83 860 q 57 839 64 860 l 57 839 l 24 857 q 76 904 36 904 l 76 904 q 117 893 92 904 q 157 882 143 882 l 157 882 q 183 903 176 882 z "},"Ậ":{"ha":258,"x_min":6,"x_max":251,"o":"m 189 922 l 251 0 l 175 0 l 161 238 l 93 238 l 81 0 l 6 0 l 67 922 l 189 922 z m 131 789 l 125 789 l 97 304 l 157 304 l 131 789 z m 161 1093 l 222 978 l 190 953 l 128 1050 l 65 953 l 33 978 l 94 1093 l 161 1093 z m 165 -51 l 165 -154 l 90 -154 l 90 -51 l 165 -51 z "},"ậ":{"ha":246,"x_min":13,"x_max":228,"o":"m 156 88 l 156 88 l 156 356 q 118 339 150 350 q 86 292 86 328 l 86 292 l 86 93 q 117 60 86 60 l 117 60 q 156 88 144 60 z m 228 599 l 228 0 l 160 0 l 158 35 l 153 35 q 83 -4 131 -4 l 83 -4 q 13 75 13 -4 l 13 75 l 13 278 q 31 346 13 325 q 99 383 49 367 l 99 383 q 142 401 129 393 q 154 425 154 408 l 154 425 l 154 588 q 122 614 154 614 l 122 614 q 88 585 88 614 l 88 585 l 88 457 l 18 457 l 18 593 q 128 679 18 679 l 128 679 q 228 599 228 679 l 228 599 z m 154 844 l 215 729 l 183 704 l 121 801 l 58 704 l 26 729 l 88 844 l 154 844 z m 158 -51 l 158 -154 l 83 -154 l 83 -51 l 158 -51 z "},"Ắ":{"ha":258,"x_min":6,"x_max":251,"o":"m 189 922 l 251 0 l 175 0 l 161 238 l 93 238 l 81 0 l 6 0 l 67 922 l 189 922 z m 131 789 l 125 789 l 97 304 l 157 304 l 131 789 z m 131 951 l 131 951 q 60 979 86 951 q 35 1063 35 1007 l 35 1063 l 88 1063 q 131 993 90 993 q 171 1063 171 993 l 171 1063 l 226 1063 q 200 979 226 1007 q 131 951 174 951 z m 181 1165 l 218 1124 l 121 1035 l 93 1064 l 181 1165 z "},"ắ":{"ha":246,"x_min":13,"x_max":228,"o":"m 156 88 l 156 88 l 156 356 q 118 339 150 350 q 86 292 86 328 l 86 292 l 86 93 q 117 60 86 60 l 117 60 q 156 88 144 60 z m 228 599 l 228 0 l 160 0 l 158 35 l 153 35 q 83 -4 131 -4 l 83 -4 q 13 75 13 -4 l 13 75 l 13 278 q 31 346 13 325 q 99 383 49 367 l 99 383 q 142 401 129 393 q 154 425 154 408 l 154 425 l 154 588 q 122 614 154 614 l 122 614 q 88 585 88 614 l 88 585 l 88 457 l 18 457 l 18 593 q 128 679 18 679 l 128 679 q 228 599 228 679 l 228 599 z m 125 703 l 125 703 q 55 731 81 703 q 29 814 29 758 l 29 814 l 82 814 q 125 744 85 744 q 165 814 165 744 l 165 814 l 221 814 q 194 731 221 758 q 125 703 168 703 z m 175 917 l 213 875 l 115 786 l 88 815 l 175 917 z "},"Ằ":{"ha":258,"x_min":6,"x_max":251,"o":"m 189 922 l 251 0 l 175 0 l 161 238 l 93 238 l 81 0 l 6 0 l 67 922 l 189 922 z m 131 789 l 125 789 l 97 304 l 157 304 l 131 789 z m 132 951 l 132 951 q 35 1063 35 951 l 35 1063 l 89 1063 q 132 993 92 993 q 172 1063 172 993 l 172 1063 l 226 1063 q 132 951 226 951 z m 168 1064 l 140 1035 l 43 1115 l 81 1158 l 168 1064 z "},"ằ":{"ha":246,"x_min":13,"x_max":228,"o":"m 156 88 l 156 88 l 156 356 q 118 339 150 350 q 86 292 86 328 l 86 292 l 86 93 q 117 60 86 60 l 117 60 q 156 88 144 60 z m 228 599 l 228 0 l 160 0 l 158 35 l 153 35 q 83 -4 131 -4 l 83 -4 q 13 75 13 -4 l 13 75 l 13 278 q 31 346 13 325 q 99 383 49 367 l 99 383 q 142 401 129 393 q 154 425 154 408 l 154 425 l 154 588 q 122 614 154 614 l 122 614 q 88 585 88 614 l 88 585 l 88 457 l 18 457 l 18 593 q 128 679 18 679 l 128 679 q 228 599 228 679 l 228 599 z m 122 703 l 122 703 q 25 814 25 703 l 25 814 l 79 814 q 122 744 82 744 q 163 814 163 744 l 163 814 l 217 814 q 122 703 217 703 z m 158 815 l 131 786 l 33 867 l 71 910 l 158 815 z "},"Ẳ":{"ha":258,"x_min":6,"x_max":251,"o":"m 189 922 l 251 0 l 175 0 l 161 238 l 93 238 l 81 0 l 6 0 l 67 922 l 189 922 z m 131 789 l 125 789 l 97 304 l 157 304 l 131 789 z m 128 951 l 128 951 q 58 979 83 951 q 32 1063 32 1007 l 32 1063 l 85 1063 q 128 993 88 993 l 128 993 q 169 1063 167 993 l 169 1063 l 224 1063 q 197 979 224 1007 q 128 951 171 951 z m 136 1042 l 136 1042 l 101 1042 q 121 1080 101 1064 q 140 1107 140 1096 l 140 1107 q 121 1124 140 1124 l 121 1124 q 86 1110 104 1124 l 86 1110 l 75 1147 q 129 1165 93 1165 l 129 1165 q 167 1151 153 1165 q 182 1114 182 1138 l 182 1114 q 159 1070 182 1089 q 136 1042 136 1051 z "},"ẳ":{"ha":246,"x_min":13,"x_max":228,"o":"m 156 88 l 156 88 l 156 356 q 118 339 150 350 q 86 292 86 328 l 86 292 l 86 93 q 117 60 86 60 l 117 60 q 156 88 144 60 z m 228 599 l 228 0 l 160 0 l 158 35 l 153 35 q 83 -4 131 -4 l 83 -4 q 13 75 13 -4 l 13 75 l 13 278 q 31 346 13 325 q 99 383 49 367 l 99 383 q 142 401 129 393 q 154 425 154 408 l 154 425 l 154 588 q 122 614 154 614 l 122 614 q 88 585 88 614 l 88 585 l 88 457 l 18 457 l 18 593 q 128 679 18 679 l 128 679 q 228 599 228 679 l 228 599 z m 122 703 l 122 703 q 52 731 78 703 q 26 814 26 758 l 26 814 l 79 814 q 122 744 82 744 l 122 744 q 164 814 161 744 l 164 814 l 218 814 q 192 731 218 758 q 122 703 165 703 z m 131 793 l 131 793 l 96 793 q 115 831 96 815 q 135 858 135 847 l 135 858 q 115 875 135 875 l 115 875 q 81 861 99 875 l 81 861 l 69 899 q 124 917 88 917 l 124 917 q 162 903 147 917 q 176 865 176 889 l 176 865 q 153 822 176 840 q 131 793 131 803 z "},"Ẵ":{"ha":258,"x_min":6,"x_max":251,"o":"m 189 922 l 251 0 l 175 0 l 161 238 l 93 238 l 81 0 l 6 0 l 67 922 l 189 922 z m 131 789 l 125 789 l 97 304 l 157 304 l 131 789 z m 126 951 l 126 951 q 56 979 82 951 q 31 1063 31 1007 l 31 1063 l 83 1063 q 126 993 86 993 l 126 993 q 168 1063 165 993 l 168 1063 l 222 1063 q 196 979 222 1007 q 126 951 169 951 z m 190 1156 l 190 1156 l 221 1136 q 169 1086 208 1086 l 169 1086 q 127 1101 153 1086 q 88 1115 101 1115 l 88 1115 q 60 1092 65 1115 l 60 1092 l 28 1110 q 81 1160 40 1160 l 81 1160 q 122 1146 96 1160 q 161 1132 149 1132 l 161 1132 q 190 1156 182 1132 z "},"ẵ":{"ha":246,"x_min":13,"x_max":228,"o":"m 156 88 l 156 88 l 156 356 q 118 339 150 350 q 86 292 86 328 l 86 292 l 86 93 q 117 60 86 60 l 117 60 q 156 88 144 60 z m 228 599 l 228 0 l 160 0 l 158 35 l 153 35 q 83 -4 131 -4 l 83 -4 q 13 75 13 -4 l 13 75 l 13 278 q 31 346 13 325 q 99 383 49 367 l 99 383 q 142 401 129 393 q 154 425 154 408 l 154 425 l 154 588 q 122 614 154 614 l 122 614 q 88 585 88 614 l 88 585 l 88 457 l 18 457 l 18 593 q 128 679 18 679 l 128 679 q 228 599 228 679 l 228 599 z m 119 703 l 119 703 q 49 731 75 703 q 24 814 24 758 l 24 814 l 76 814 q 119 744 79 744 l 119 744 q 161 814 158 744 l 161 814 l 215 814 q 189 731 215 758 q 119 703 163 703 z m 183 907 l 183 907 l 214 888 q 163 838 201 838 l 163 838 q 120 852 146 838 q 81 867 94 867 l 81 867 q 53 843 58 867 l 53 843 l 21 861 q 74 911 33 911 l 74 911 q 115 897 89 911 q 154 883 142 883 l 154 883 q 183 907 175 883 z "},"Ặ":{"ha":258,"x_min":6,"x_max":251,"o":"m 189 922 l 251 0 l 175 0 l 161 238 l 93 238 l 81 0 l 6 0 l 67 922 l 189 922 z m 131 789 l 125 789 l 97 304 l 157 304 l 131 789 z m 198 991 q 128 953 171 953 q 58 992 85 953 q 31 1093 31 1031 l 31 1093 l 85 1093 q 128 1000 86 1000 l 128 1000 q 171 1093 167 1000 l 171 1093 l 225 1093 q 198 991 225 1029 z m 165 -51 l 165 -154 l 90 -154 l 90 -51 l 165 -51 z "}}}
